<svg xmlns="http://www.w3.org/2000/svg" xmlns:xlink="http://www.w3.org/1999/xlink" viewBox="0 0 509 509" xmlns:v="https://vecta.io/nano"><style><![CDATA[.U{stroke:#e8e8e9}.V{stroke:#939394}.W{stroke:#aaa}.X{stroke:#c3c3c3}.Y{fill:#fff}.Z{fill:#d1d1d2}.a{stroke:#acacac}.b{stroke:#bababa}]]></style><g fill="none"><g stroke="#d3d3d3" stroke-width="2"><path vector-effect="non-scaling-stroke" d="M113.06 93.83q-.7.38-1.3.95-9.38 8.93-18.31 18.4-.35.37-.72.02l-8.63-8.34a.53.53 0 0 0-.76.02q-9.75 10.62-17.67 22.67a.49.48 33.5 0 0 .14.68l10.24 6.71q.54.35.19.88-7.42 11.22-13.37 23.28a.79.79 0 0 1-1.08.35l-10.61-5.68q-.54-.28-.82.26-6.67 12.88-11.04 26.72-.19.6.41.78l11.09 3.25q.86.25.63 1.12l-7.22 26.47q-.15.54-.68.4l-11.57-3.01q-.44-.12-.54.33-2.97 14.24-3.8 28.75-.03.66.62.66h12q.46 0 .46.45l-.04 28.03q0 .4-.41.41l-12.21.25q-.48.01-.45.49.87 14.58 3.69 28.9a.58.58 0 0 0 .7.45l11.99-2.91q.53-.13.65.41 2.77 13.56 7.05 26.72.17.55-.38.7l-11.36 3.07q-.88.24-.59 1.11 4.63 13.72 11 26.7.21.43.62.19l10.83-6.18a.55.54 61.6 0 1 .75.23q6.07 12.32 13.66 23.76a.59.59 0 0 1-.17.81l-10.29 6.51q-.44.28-.15.72 7.89 11.98 17.56 22.57a.89.89 0 0 0 1.29.03l8.05-8.07q.4-.39.79 0l19.72 19.75q.26.26 0 .53l-8.31 8.81q-.36.38.03.74 10.82 9.73 22.93 17.79.47.32.76-.17l6.17-10.45q.34-.57.89-.21 11.43 7.52 23.63 13.73a.8.79 28.4 0 1 .33 1.09L153.51 457q-.24.44.21.66 13.04 6.56 27 10.91.62.19.79-.43l3.13-10.95q.25-.88 1.13-.64l26.37 7.23a.56.56 0 0 1 .39.68l-2.94 11.32q-.14.51.38.62 14.25 2.97 28.79 4.02.45.03.47-.42l.53-12.19q.02-.41.43-.41l27.88.04a.39.38 89.2 0 1 .38.38l.17 12.11q0 .49.49.46 14.47-1.13 28.74-3.77.58-.11.44-.7l-2.89-11.84q-.07-.31.24-.39l27.06-7.25a.4.39 74.2 0 1 .48.27l3.4 11.46a.5.49-16.4 0 0 .62.33q13.81-4.18 26.58-10.9a.62.62 0 0 0 .26-.84l-5.23-9.84a1.32 1.31-28.7 0 1 .52-1.76l23.26-13.13a.73.72-30.2 0 1 .98.25l6.17 10.24q.39.63.97.18l22.42-17.59a.77.77 0 0 0 .09-1.14l-7.99-8.6a.74.74 0 0 1 .02-1.02l19.32-19.42q.32-.32.64-.01l8.55 8.06q.62.59 1.19-.06 9.43-10.82 17.46-22.71.32-.48-.18-.77l-10.4-6a.5.49-60.5 0 1-.18-.67l14-24.08q.29-.5.79-.21l10.34 6q.39.22.59-.18 6.62-13.09 11.26-27 .19-.55-.37-.71l-11.39-3.15q-.59-.16-.43-.74l7.16-26.79q.12-.44.56-.33l11.84 2.88q.56.14.67-.43 2.76-14.31 3.73-28.83.04-.7-.66-.7h-11.85a.62.61 89.5 0 1-.61-.61l-.11-27.6q0-.54.54-.56l12.1-.42q.65-.02.6-.67-1.08-14.2-3.72-28.19-.12-.61-.72-.47l-11.49 2.65a.77.77 0 0 1-.92-.55l-7.07-26.11a.95.94-15.8 0 1 .65-1.16l11.16-3.18q.6-.17.4-.77-4.76-13.65-10.91-26.74a.78.78 0 0 0-1.09-.35l-10.55 5.84q-.34.19-.53-.15l-13.96-24.18q-.2-.35.15-.56l10.36-6.28q.55-.33.19-.85-8.18-11.85-17.63-22.7a.47.46 47.9 0 0-.67-.04l-8.7 8.15q-.37.35-.73-.01L395.21 93.6a.62.62 0 0 1-.02-.86l8.02-8.73q.38-.41-.04-.77-10.76-9.4-22.63-17.37-.61-.41-1.01.22l-6.16 9.9q-.25.4-.66.16l-23.84-13.76a.78.77 29.5 0 1-.29-1.04l5.37-9.84q.29-.53-.24-.83c-7.31-4.13-17.96-9.61-26.57-11.18q-.56-.1-.72.45l-3.17 11.3a.78.78 0 0 1-1 .53q-13.12-4.44-26.7-7.11a.37.36 12.4 0 1-.29-.45l3.14-12.05a.7.7 0 0 0-.55-.87q-14.3-2.78-28.83-3.73-.43-.02-.44.4l-.34 12.17q-.02.61-.63.61h-27.58a.49.48-.6 0 1-.49-.47l-.16-12.25q0-.5-.51-.47-14.53.99-28.84 3.73-.57.1-.43.67l3 11.92q.17.69-.53.83-13.52 2.7-26.59 7.08a.53.53 0 0 1-.67-.36l-3.32-11.66q-.16-.56-.71-.4-14.05 4.12-26.79 11.3-.52.29-.23.8l5.62 9.93a.69.69 0 0 1-.25.94l-23.97 13.85a.37.37 0 0 1-.51-.13l-6.32-10.31a.55.55 0 0 0-.78-.16q-11.83 8.31-22.78 17.76-.38.34-.04.71l8.44 9.05q.4.43-.11.72"/><path vector-effect="non-scaling-stroke" d="M454.21 253.98a200.37 200.37 0 1 0-400.74 0 200.37 200.37 0 1 0 400.74 0"/><path vector-effect="non-scaling-stroke" d="M444.56 254.06a190.7 190.7 0 1 0-381.4 0 190.7 190.7 0 1 0 381.4 0"/></g><g stroke-width="2"><path vector-effect="non-scaling-stroke" d="M103.19 162.05l-8.37.52a3.45 3.44 89.1 0 0-3.22 3.33l-.27 9.15" class="W"/><path vector-effect="non-scaling-stroke" d="M91.33 175.05c-3.93 2.96-13.5 11.61-8.81 17.16q4.71 5.6 8.83 11.46" class="U"/><path vector-effect="non-scaling-stroke" d="M91.35 203.67l.13 87.07a3.9 3.9 0 0 0 3.86 3.89q24.56.29 49.48.03 8.27-.09 17.39-2.97" class="W"/><path vector-effect="non-scaling-stroke" d="M162.21 291.69q.18.02.35.05.43.07.44.5 0 .15 0 .3a.75.73-72.3 0 0 .3.6q6.29 4.78 7.66 11.02" class="U"/><path vector-effect="non-scaling-stroke" d="M170.96 304.16q-3.36 2.47-2.96 5.9c.5 4.32 5.27 5.18 7.94 7.74a1.46 1.46 0 0 1-.65 2.46q-3.39.87-6.5-.86-.65-.36-.75.38l-.37 2.84q-.09.7.53 1.03 4.91 2.64 9.72.43" class="X"/><path vector-effect="non-scaling-stroke" d="M177.92 324.08q2.76-1.09 2.74-4.9" class="U"/><path vector-effect="non-scaling-stroke" d="M180.66 319.18c.94-4.01-3.35-5.95-7.01-8.11" class="X"/><path vector-effect="non-scaling-stroke" d="M173.65 311.07q.04-2.4 2.64-2.32.5.02.86.38 5.15 5.28 7.93 12.41" class="U"/><path vector-effect="non-scaling-stroke" d="M185.08 321.54l-.42 2.5q-.09.55.46.61l4.7.5" class="X"/><path vector-effect="non-scaling-stroke" d="M189.82 325.15l41.05 51.02" class="U"/><path vector-effect="non-scaling-stroke" d="M230.87 376.17l-22.94 2.54a.61.61 0 0 0-.35 1.06q10.28 9.38 20.21 18.44c2.71 2.46 3.54 4.49 2.81 8.31q-2.64 13.87-5.83 27.75-.1.46.31.24 17.15-9.1 22.99-12.97c6.15-4.07 8.81-1.8 15.16 1.75 6.7 3.73 13.24 8.05 20.31 11.05q.47.2.35-.3-3.2-13.59-6.01-27.28c-.51-2.47-.53-5.29 1.23-6.9q11.22-10.27 22.34-20.56a.36.36 0 0 0-.2-.62l-23.86-2.58" class="b"/><path vector-effect="non-scaling-stroke" d="M277.39 376.1l41.44-51.35" class="U"/><path vector-effect="non-scaling-stroke" d="M318.83 324.75q6.13.06 2.79-1.68" class="X"/><path vector-effect="non-scaling-stroke" d="M321.62 323.07c2.79-6.4 8.28-11.89 12.75-17.19a.38.37-67.1 0 1 .33-.14q.15.02.27.07" class="U"/><path vector-effect="non-scaling-stroke" d="M334.97 305.81l.35 18.55q.01.49.5.44l3.13-.33q.46-.05.41-.52-.29-2.9.17-5.96.5-3.44 2.24-.43l3.77 6.56a.82.8 77.4 0 0 .62.4l3.79.31q.88.07.46-.71l-4.12-7.65q-.24-.44.2-.69 2.5-1.41 3.04-4.51c1.38-7.99-5.64-8.57-11.99-8.2" class="X"/><path vector-effect="non-scaling-stroke" d="M337.54 303.07l-.38-.04q-.53-.05-.23-.49l5.09-7.49" class="U"/><path vector-effect="non-scaling-stroke" d="M342.02 295.05q6.38-.37 13.29-.34c3.56.01 6.46-.65 6.45-4.71q-.04-12.88.33-19.1" class="W"/><path vector-effect="non-scaling-stroke" d="M362.09 270.9c3.58-4.54 7.52-10.2 11.91-10.66" class="U"/><path vector-effect="non-scaling-stroke" d="M374 260.24q10.23 15.82 20.79 31.47 1.92 2.85 3.71 2.88 15.25.3 30.5.21c3.56-.02 6.83-1.82 4.22-5.76q-7.12-10.75-30.72-47.05-.28-.44.15-.73c15.3-10.2 20.84-26.85 18.75-44.58" class="W"/><path vector-effect="non-scaling-stroke" d="M421.4 196.68c6.43-3.5 7.18-10.08 2.17-15.4q-33.15-35.18-66.4-70.29c-2.23-2.34-4.35-3.02-7.42-3.01q-94.9.01-189.8.02c-3.45 0-6.03.36-8.27 2.68q-18.96 19.57-48.49 51.37" class="U"/><path vector-effect="non-scaling-stroke" d="M421.4 196.68c-3-16.86-13.11-27.84-29.25-32.45q-3.37-.97-5.59-1.86" class="V"/><path vector-effect="non-scaling-stroke" d="M386.56 162.37q-16.02-18.32-32.54-34.73-.39-.39-.6.12-6.21 14.66-12.22 29.43-.9 2.23-.99 4.56" class="U"/><path vector-effect="non-scaling-stroke" d="M340.21 161.75c-4.28-.03-15.06-1.85-14.82 5q.63 18.46-.18 28.97" class="V"/><path vector-effect="non-scaling-stroke" d="M325.21 195.72l-18.38 55.5" class="U"/><path vector-effect="non-scaling-stroke" d="M306.83 251.22q-1.44-10.86-7.98-19.03" class="V"/><path vector-effect="non-scaling-stroke" d="M298.85 232.19l12.07-36.24q.26-.79-.56-.9-8.74-1.13-17.73 1.56" class="U"/><path vector-effect="non-scaling-stroke" d="M292.63 196.61c2.61-4.98 8.45-14.56 10.18-22.2a.9.9 0 0 0-.3-.9q-6.15-5.27-13.78-8.11" class="V"/><path vector-effect="non-scaling-stroke" d="M288.73 165.4q1.06-.78-.33-2.33-8.73-9.71-33.73-36.67-.48-.52-.96 0l-49.75 54.04q-.47.5.22.51l16.84.18" class="U"/><path vector-effect="non-scaling-stroke" d="M221.02 181.13q-3.41 6.67-4.86 13.58" class="V"/><path vector-effect="non-scaling-stroke" d="M216.16 194.71l-18.26.23q-.57.01-.4.55 8.18 25.71 16.59 51.35 1.19 3.62 3.51 6.69" class="U"/><path vector-effect="non-scaling-stroke" d="M217.6 253.53l-9.97 16.58" class="V"/><path vector-effect="non-scaling-stroke" d="M207.63 270.11l-22.29-67.8" class="U"/><path vector-effect="non-scaling-stroke" d="M185.34 202.31q-.5-6.85-1.84-12.31-2.65-10.84-10.33-17.92" class="V"/><path vector-effect="non-scaling-stroke" d="M173.17 172.08l-18.27-44.2a.48.48 0 0 0-.8-.14l-32.44 34.49" class="U"/><path vector-effect="non-scaling-stroke" d="M121.66 162.23l-18.47-.18" class="V"/><path vector-effect="non-scaling-stroke" d="M386.56 162.37c-4.34-.08-8.7-.62-12.41-.62q-16.93 0-33.94 0m-51.48 3.65c-24.74-10.31-51.92-7.98-67.71 15.73" class="W"/><path vector-effect="non-scaling-stroke" d="M211.23 283.88q4.81 11.2 8.36 22.49l17.71 54.76q.86 2.66-.89.48l-29.3-36.51" class="U"/><path vector-effect="non-scaling-stroke" d="M207.11 325.1c7.62-1.01 12.02-6.53 10.33-14.05-1.78-7.94-9.53-8.51-16.47-7.71q-.47.06-.48.53l-.08 13.6" class="X"/><path vector-effect="non-scaling-stroke" d="M200.41 317.47q-3.14-5.44-6.85-8.15a1.01 1.01 0 0 1 .65-1.83l.99.05q.47.02.47-.45l-.03-2.82" class="U"/><path vector-effect="non-scaling-stroke" d="M195.64 304.27q-.35-1.58-6.21-1.12" class="X"/><path vector-effect="non-scaling-stroke" d="M189.43 303.15l-14.21-18.13" class="U"/><path vector-effect="non-scaling-stroke" d="M185.34 202.31q-.91 13.8-7.95 23.52a1.49 1.49 0 0 0 .15 1.93c15.79 15.85 15.79 42.78-2.32 57.26" class="W"/><path vector-effect="non-scaling-stroke" d="M175.22 285.02q-5.93 4.29-13.01 6.67m-70.86-88.02l-.02-28.62" class="V"/><path vector-effect="non-scaling-stroke" d="M326.08 292.31q-2.22 7.01-8.37 11.16" class="U"/><path vector-effect="non-scaling-stroke" d="M317.71 303.47l-9.81-.08q-.59 0-.6.59l-.2 14.32" class="X"/><path vector-effect="non-scaling-stroke" d="M307.1 318.3q-2.43 2.69-4.58 2.18" class="U"/><path vector-effect="non-scaling-stroke" d="M302.52 320.48l-6.06-.02q-.54 0-.52-.54l.16-2.99q.02-.46.48-.53l4.2-.63q.72-.11.72-.85v-2.11q0-.7-.7-.78l-4.3-.47q-.5-.06-.5-.56v-2.89q0-.64.64-.67l5.12-.26a.47.46-90 0 0 .44-.45l.18-2.92q.03-.59-.56-.6l-9.42-.24q-.9-.02-.9.88v20.37q0 .43.42.44l9.71.24" class="X"/><path vector-effect="non-scaling-stroke" d="M301.63 324.9l-29.06 35.81q-1.88 2.32-.98-.52L289 305.63q.13-.43.06-.87-.19-1.12.73-1.68a1.12 1.09-8 0 0 .47-.61l4.55-14.4q.17-.55.58-.93 1.63-1.53-.11-3.72" class="U"/><path vector-effect="non-scaling-stroke" d="M374 260.24l-7.68-11.34a.72.71-13.9 0 0-.54-.32l-3.14-.25q-.57-.05-.57.52l.02 22.05m-20.07 24.15c-4.32-.27-13.53.92-15.94-2.74" class="V"/><path vector-effect="non-scaling-stroke" d="M326.08 292.31q-.55-3.08-.56-6.06-.17-43.72.06-87.44.01-.96-.37-3.09m-152.04-23.64c-16.28-11.59-33.71-10.13-51.51-9.85m170.97 34.38c-1.11 1.86-2.98 6.09-5.81 4.82-9.95-4.46-17.23-8.81-28.73-7.6-4.3.45-9.24 5.16-5.42 9 5.76 5.77 15.42 9.16 22.93 12.51q13.26 5.92 23.25 16.85m7.98 19.03q.2 19.13-11.55 32.2" class="W"/><path vector-effect="non-scaling-stroke" d="M295.28 283.42q-7.46 6.74-16.9 10.09" class="V"/><path vector-effect="non-scaling-stroke" d="M278.38 293.51q-23.81 7.34-48.6-.71" class="W"/><path vector-effect="non-scaling-stroke" d="M229.78 292.8q-9.09-3.29-18.55-8.92" class="V"/><path vector-effect="non-scaling-stroke" d="M211.23 283.88c-6.43-5.22-8.17-5.48-3.6-13.77m9.97-16.58q1.77-3.68 4.67-4.87.51-.21.97.1c9.39 6.38 18.18 12.31 26.01 13.74 5.43.98 20.05.77 18.06-8.65-1.28-6.08-21.21-14.24-26.82-17.13-16.4-8.42-26.97-22.74-24.33-42.01" class="W"/><path vector-effect="non-scaling-stroke" d="M189.43 303.15q-1.77-.45-4.01.39-.51.19-.5.74l.16 17.26m-11.43-10.47q-1.9-.94-1.33-2.81.16-.53.66-.74 2.46-1.07 4.83.14a.54.54 0 0 0 .76-.32l.89-2.87q.15-.49-.32-.69-4.46-1.89-8.18.38" class="a"/><path vector-effect="non-scaling-stroke" d="M229.78 292.8l2.56 9.27q.12.45.03.9-.08.4-.08.79.01.35.76.24" class="U"/><path vector-effect="non-scaling-stroke" d="M233.05 304c-4.77 4.18-2.93 9.89 2.76 11.68 1.42.44 2.63 1.08 2.9 2.45a1.96 1.96 0 0 1-1.69 2.33q-3.17.37-6.05-.93-.45-.21-.54.29c-1 5.9 5.96 5.72 9.53 4.83" class="a"/><path vector-effect="non-scaling-stroke" d="M239.96 324.65q3.9 14.5 9.89 29.18" class="U"/><path stroke="#a3a3a3" vector-effect="non-scaling-stroke" d="M249.85 353.83q-3.44 8.53-8.33 18.06c-.62 1.22-2.22 2.99-3.33 3.3q-4.39 1.2-7.32.98"/><path vector-effect="non-scaling-stroke" d="M189.82 325.15l5.75-.49q.6-.05.54-.64l-.29-2.95q-.04-.44-.49-.45l-5.34-.03q-.86 0-.85-.86l.04-2.73q.01-.58.58-.69l4-.81a1.82 1.82 0 0 0-.5-3.6q-1.73.13-3.43-.35a.79.79 0 0 1-.58-.76v-2.57q0-.63.63-.7 3.21-.38 5.76-3.25m4.77 13.2l.14 6.59q.01.62.63.66l5.93.38m130.43-22.03l-2.02.24q-.64.08-.49.71.28 1.14-.06 1.79m-13.35 17.26l-2.8-6.6a.78.78 0 0 1 .22-.9c4.34-3.69 4.45-9.86-1.33-12.1m-16.08 21.43q2.02-.95.89-4.42m4.58-2.18c.34 2.92-1.57 6.86 3.3 6.36q.97-.1 1.02-1.08l.28-5.68a1.28 1.28 0 0 1 2.35-.63l4.78 7.48" class="a"/><path stroke="#a3a3a3" vector-effect="non-scaling-stroke" d="M277.39 376.1q-8.27.8-11.57-6.42-3.87-8.46-7.08-15.59"/><path vector-effect="non-scaling-stroke" d="M258.74 354.09l9.78-29.01a.46.46 0 0 0-.28-.58q-.24-.09-.49.06" class="U"/><path vector-effect="non-scaling-stroke" d="M267.75 324.56l.03-.79" class="a"/><path vector-effect="non-scaling-stroke" d="M267.78 323.77q1.22.15 1.82-1.44 2.1-5.61 3.29-11.25" class="U"/><path vector-effect="non-scaling-stroke" d="M272.89 311.08l6.11 13.85a.53.53 0 0 0 .97-.01l8.78-21.45q.19-.46-.3-.55c-6.21-1.17-7.13 6.42-8.72 10.66a.43.43 0 0 1-.8.02l-4.35-10.09" class="a"/><path vector-effect="non-scaling-stroke" d="M274.58 303.51q3.64-3.56 3.8-10" class="U"/><path vector-effect="non-scaling-stroke" d="M274.58 303.51q-1.96-.82-3.69-.13-.5.2-.33.71l2.33 6.99m-5.11 12.69l-.05-2.78q0-.42-.43-.43l-5.5-.19q-.53-.02-.55-.55l-.46-16.13q-.02-.63-.66-.58l-2.81.21q-.57.04-.57.61v20.08q0 .53.52.61 5.27.83 10.48-.06" class="X"/><path vector-effect="non-scaling-stroke" d="M258.74 354.09l-3.93-9.4a.31.31 0 0 0-.56-.02l-4.4 9.16" class="b"/><path vector-effect="non-scaling-stroke" d="M239.96 324.65q6.11-5.08 1.7-10.14c-2.31-2.64-7.06-2.11-6.3-6.78q.09-.58.68-.55l5.18.3q.28.01.28-.27 0-1.57 0-3.14 0-.55-.54-.7-4.3-1.19-7.91.63" class="X"/><path vector-effect="non-scaling-stroke" d="M180.66 319.18l-2.74 4.9" class="a"/><path vector-effect="non-scaling-stroke" d="M158.44 320.34q-3.37.66-6.31-.96a.41.41 0 0 0-.6.34l-.12 2.78q-.02.58.46.89c10.59 6.79 18.44-8.4 5.04-12.15a.76.76 0 0 1-.55-.74l.03-2.64a.71.71 0 0 1 .77-.71l5.25.4q.42.03.37-.38l-.33-3.1q-.04-.41-.44-.54-6.52-2.25-9.69 2.93c-3.17 5.18 2.93 8.73 6.57 10.56a1.77 1.77 0 0 1-.45 3.32m-43.09-6.97c4.98-10.39-5.8-11.75-12.52-9.74a.72.71 81.9 0 0-.51.69l-.1 19.89q0 .58.59.57c5.41-.09 13.97 1.74 13.86-6.7q-.02-1.36-1.3-3.81-.24-.45-.02-.9m25.79-5.46a.34.34 0 0 1 .31-.35l5.42-.36a.34.34 0 0 0 .31-.3l.42-3.61a.34.34 0 0 0-.34-.38l-10.43.34a.34.34 0 0 0-.33.34v20.97a.34.34 0 0 0 .34.34l10.89-.03a.34.34 0 0 0 .33-.38l-.43-3.68a.34.34 0 0 0-.34-.3l-5.71-.02a.34.34 0 0 1-.34-.34v-3.14a.34.34 0 0 1 .28-.33l4.8-.91a.34.34 0 0 0 .27-.37l-.27-3.23a.34.34 0 0 0-.3-.31l-4.41-.39a.34.34 0 0 1-.31-.32l-.16-3.24m-8.98 13.16a.34.34 0 0 0-.31-.3l-6.06-.36a.34.34 0 0 1-.32-.34l.04-16.48a.34.34 0 0 0-.34-.34h-3.32a.34.34 0 0 0-.34.34l-.03 20.89a.34.34 0 0 0 .35.34l10.37-.23a.34.34 0 0 0 .33-.38l-.37-3.14" class="X"/><path vector-effect="non-scaling-stroke" d="M413.1 319.89l.2-3.44q.02-.49.51-.5l3.29-.05a2.03 2.03 0 0 0-.07-4.06l-3.21.05a.6.6 0 0 1-.61-.56l-.22-3.32a.7.69-2.3 0 1 .69-.74l4.95-.1a.62.62 0 0 0 .61-.62l.03-2.79q0-.58-.58-.57l-9.02.2q-.67.02-.67.69v20.21q0 .54.54.53l9.75-.25q.85-.02.77-.86l-.22-2.28a.65.65 0 0 0-.61-.59l-5.6-.36q-.56-.03-.53-.59" class="b"/><path vector-effect="non-scaling-stroke" d="M354.17 317.57c.3 6.25 7.38 9.46 12.15 5.44 3.99-3.36 2.67-14.05 2.75-18.94q.01-.57-.56-.57h-2.25q-.52 0-.52.52.01 5.76-.2 11.6c-.15 4.43-2.48 6.84-6.89 4.44q-.42-.23-.48-.7-1.03-7.58-.57-15.23.04-.63-.6-.63h-2.7q-.44 0-.44.43-.02 6.83.31 13.64" class="W"/><path vector-effect="non-scaling-stroke" d="M379.02 315.67c11.41 2.68 12.67-10.42 4.78-11.87q-4.03-.74-8.5.1-.39.07-.39.47l-.03 19.7a.44.43 0 0 0 .44.43h3.03q.25 0 .23-.25l-.46-7.83q-.06-.98.9-.75" class="b"/><path stroke="gray" vector-effect="non-scaling-stroke" d="M396.75 315.51a.34.34 0 0 1 .36-.34l5.54.4a.34.34 0 0 0 .37-.32l.12-2.41a.34.34 0 0 0-.34-.35l-5.39.08a.34.34 0 0 1-.34-.32l-.22-5.46a.34.34 0 0 1 .36-.35l5.78.39a.34.34 0 0 0 .35-.25l.69-2.45a.34.34 0 0 0-.32-.43l-9.46-.1a.34.34 0 0 0-.34.34l.09 20.01a.34.34 0 0 0 .34.34l9.33-.17a.34.34 0 0 0 .33-.34v-2.19a.34.34 0 0 0-.34-.34h-6.57a.34.34 0 0 1-.34-.34v-5.4"/><path vector-effect="non-scaling-stroke" d="M239.3 122.02a.3.3 0 0 0-.22-.5h-71.49a.3.3 0 0 0-.27.42l22.49 53.4a.3.3 0 0 0 .5.09l48.99-53.41m78.5 53.08a.62.62 0 0 0 1.02-.18l22.1-52.5a.62.62 0 0 0-.57-.86l-70.33-.09a.62.62 0 0 0-.46 1.04l48.24 52.59" class="U"/><path vector-effect="non-scaling-stroke" d="M230.86 180.81q-4.37 4.58-6.78 13.64" class="V"/><path vector-effect="non-scaling-stroke" d="M224.08 194.45c-4.02 17.32 8.73 31.17 23.8 37.51 10.08 4.23 30.81 11.68 27.01 26.39-3.75 14.55-23.69 13.68-34.32 9.56q-7.18-2.79-16.09-8.75-.45-.3-.74.15l-3.27 4.89" class="W"/><path vector-effect="non-scaling-stroke" d="M220.47 264.2l-6.76 11.32q-.28.47.17.79 6.4 4.52 13.58 7.45" class="V"/><path vector-effect="non-scaling-stroke" d="M227.46 283.76c16.56 6.72 39.93 8.68 55.92-.97" class="W"/><path vector-effect="non-scaling-stroke" d="M283.38 282.79c13.22-7.46 20.13-27.23 12.48-41.01" class="V"/><path vector-effect="non-scaling-stroke" d="M295.86 241.78c-8.65-14.26-22.78-18.98-37.28-25.37-8.88-3.92-17.9-10.47-13.74-21.68" class="W"/><path vector-effect="non-scaling-stroke" d="M244.84 194.73c7.1-15.25 29.82-8.15 40.46-2.46q.48.26.73-.22l6.38-12.38" class="V"/><path vector-effect="non-scaling-stroke" d="M292.41 179.67q.88-1.41 1.07-2.86.07-.52-.38-.78c-19.8-11.06-45.65-14.16-62.24 4.78" class="W"/><path vector-effect="non-scaling-stroke" d="M292.41 179.67q-1.39.29-2.65 1.2-.4.29-.9.29l-58-.35m13.98 13.92l-20.76-.28m71.78 47.33l-12.3 37.26a1.94 1.93 78 0 1-.55.85q-1.39 1.27.37 2.9m-55.92.97q-5.47-8.82-6.99-19.56" class="U"/><path vector-effect="non-scaling-stroke" d="M333.23 181.09l.02 13.44" class="V"/><path vector-effect="non-scaling-stroke" d="M333.25 194.53l.4 90.63" class="W"/><path vector-effect="non-scaling-stroke" d="M333.65 285.16q-.36.6-.08 1.18a.86.86 0 0 0 .76.49l16.1.37" class="V"/><path vector-effect="non-scaling-stroke" d="M350.43 287.2h3.13q.62 0 .61-.61l-.07-5.84" class="W"/><path vector-effect="non-scaling-stroke" d="M354.1 280.75l-.17-19.95" class="V"/><path vector-effect="non-scaling-stroke" d="M353.93 260.8q.52-6.59.41-15.06c-.09-7.22 10.26-5.09 14.93-4.84" class="W"/><path vector-effect="non-scaling-stroke" d="M369.27 240.9q.94.2 1.42.91 3.6 5.41 7.24 10.65" class="V"/><path vector-effect="non-scaling-stroke" d="M377.93 252.46l22.28 33.72q.76 1.15 2.14 1.14l19.9-.25q.67-.01.3-.58-13.38-20.59-26.97-41.06-1.62-2.45-2.78-5.26a1.01 1 49.9 0 1 .07-.88q1.2-1.98 2.66-2.76 17.2-9.05 18.41-29.34" class="W"/><path vector-effect="non-scaling-stroke" d="M413.94 207.19q1.39-11.35-4.25-21.63-1.62-2.95-4.77-5.79" class="V"/><path vector-effect="non-scaling-stroke" d="M404.92 179.77c-10.64-9.41-21.53-10.36-34.92-10.49q-17.98-.18-35.94.3-.48.01-.49.49l-.34 11.02" class="W"/><path vector-effect="non-scaling-stroke" d="M404.92 179.77q-3.88 1.44-10.67 1.47-30.45.16-61.02-.15m80.71 26.1q-16.54 19.86-31.84 39.4-1.27 1.62-4.17 5.87m-8.66-11.56q10.32-12.7 14.29-17.34 2.09-2.43 1.73-3.93" class="U"/><path vector-effect="non-scaling-stroke" d="M385.29 219.63l5.02-6" class="V"/><path vector-effect="non-scaling-stroke" d="M390.31 213.63q8.91-8.58 15.25-18.36a.35.35 0 0 0-.29-.54l-16.31-.1" class="U"/><path vector-effect="non-scaling-stroke" d="M388.96 194.63c-7.08-9.82-19.57-10.9-30.77-9.91-4.7.41-4.08 6.06-3.93 9.72" class="V"/><path vector-effect="non-scaling-stroke" d="M354.26 194.44l-21.01.09m20.68 66.27q-11.03 12.07-20.28 24.36" class="U"/><path vector-effect="non-scaling-stroke" d="M388.96 194.63q4.6 8.17 1.35 19m-5.02 6q-6.42 4.65-14.79 5.4c-3.89.36-16.22 2.3-16.23-3.59q-.04-13.73-.01-27" class="W"/><path vector-effect="non-scaling-stroke" d="M354.1 280.75q-3.08 2.98-3.67 6.45" class="U"/><path vector-effect="non-scaling-stroke" d="M99.05 212.37v73.75q0 1.13 1.13 1.13 19.95.02 40.76-.04 7.54-.02 15.7-1.81" class="W"/><path vector-effect="non-scaling-stroke" d="M156.64 285.4q7.44-1.68 13.7-6.17" class="V"/><path vector-effect="non-scaling-stroke" d="M170.34 279.23c9.1-6.62 12.39-18.1 10.67-28.98-1.49-9.45-6-13.92-12.14-19.8-1.59-1.52-2.71-3.66-1.08-5.44q12.02-13.1 8.95-30.07" class="W"/><path vector-effect="non-scaling-stroke" d="M176.74 194.94q-1.21-8.39-5.65-13.64" class="V"/><path vector-effect="non-scaling-stroke" d="M171.09 181.3c-6.35-8.55-17.71-11.28-27.59-11.31q-15.35-.06-29.53.06" class="W"/><path vector-effect="non-scaling-stroke" d="M113.97 170.05l-14.21-.04a.75.75 0 0 0-.75.75l.04 41.61" class="V"/><path vector-effect="non-scaling-stroke" d="M113.97 170.05l-9.96 10.48a.43.43 0 0 0 .31.73l66.77.04m5.65 13.64q-12.3-.64-24.74.39" class="U"/><path vector-effect="non-scaling-stroke" d="M152 195.33q-2.86-7.45-11.5-9.59-7.48-1.85-15.64-1.17c-4.43.36-3.64 6.57-3.48 10.27" class="V"/><path vector-effect="non-scaling-stroke" d="M121.38 194.84l-18.87-.03a.45.45 0 0 0-.36.71q.36.5.88.74.49.22.82.63l17.47 21.87" class="U"/><path vector-effect="non-scaling-stroke" d="M121.32 218.76q.87 4.04 3.85 4.16" class="V"/><path vector-effect="non-scaling-stroke" d="M125.17 222.92q-1.47.31-.04 1.23.54.35.83.63 4.42 4.24 6.84 9.66" class="U"/><path vector-effect="non-scaling-stroke" d="M132.8 234.44c-5.06.08-10.29-1.45-11.71 5.16" class="V"/><path vector-effect="non-scaling-stroke" d="M121.09 239.6l-22.04-27.23" class="U"/><path vector-effect="non-scaling-stroke" d="M156.12 261.31q-2.82 7.34-10.8 9.87" class="V"/><path vector-effect="non-scaling-stroke" d="M121.09 239.6q.38 13.28.44 27.93c.02 5.75 1.88 5.57 6.85 5.65q8.73.15 16.94-2" class="W"/><path vector-effect="non-scaling-stroke" d="M145.32 271.18q7.17 6.04 11.32 14.22" class="U"/><path vector-effect="non-scaling-stroke" d="M152 195.33c3.11 10.4 1.04 23.48-11.26 26.37q-6.92 1.63-15.57 1.22m-3.85-4.16l.06-23.92" class="W"/><path vector-effect="non-scaling-stroke" d="M170.34 279.23l-14.22-17.92" class="U"/><path vector-effect="non-scaling-stroke" d="M156.12 261.31c4.52-12.18-2.08-22.1-14.13-24.98q-5.21-1.24-9.19-1.89m-3.66-39.75l.03 19.91q0 .5.5.57c12.69 1.78 19.49-5.79 14.9-18.09" class="W"/><path vector-effect="non-scaling-stroke" d="M144.57 197.08c-2.11-4.97-10.22-5.18-14.7-4.75q-.55.05-.59.6l-.14 1.76" class="V"/><path vector-effect="non-scaling-stroke" d="M144.57 197.08q-7.02-3.32-15.43-2.39" class="U"/><path vector-effect="non-scaling-stroke" d="M362.08 194.32v22.42q0 .47.46.55c8.35 1.48 20.35-.5 21.4-10.52q.79-7.52-4.92-11.59" class="W"/><path vector-effect="non-scaling-stroke" d="M379.02 195.18q-8.1-4-16.53-2.56-.53.09-.49.62l.08 1.08" class="V"/><path vector-effect="non-scaling-stroke" d="M379.02 195.18l-16.94-.86" class="U"/><path vector-effect="non-scaling-stroke" d="M129.11 250.05l.2 14.74q0 .57.58.62 5.03.45 10.59-.86" class="W"/><path vector-effect="non-scaling-stroke" d="M140.48 264.55q7.9-1.37 9.11-8.39c2.01-11.66-11.75-13.84-19.67-13.66a.58.58 0 0 0-.57.56l-.24 6.99" class="V"/><path vector-effect="non-scaling-stroke" d="M140.48 264.55l-11.37-14.5" class="U"/><path vector-effect="non-scaling-stroke" d="M251.484 303.733a.46.46 0 0 0-.462-.458l-3.28.012a.46.46 0 0 0-.458.462l.072 20.54a.46.46 0 0 0 .462.458l3.28-.012a.46.46 0 0 0 .458-.462l-.072-20.54m-139.418 4.857a1.5 1.5 0 0 0-1.569-1.428l-2.997.141a1.5 1.5 0 0 0-1.428 1.569l.081 1.718a1.5 1.5 0 0 0 1.569 1.428l2.997-.141a1.5 1.5 0 0 0 1.428-1.569l-.081-1.718m-6.036 8.43v2.58a1.08 1.08 0 0 0 1.09 1.08l2.95-.01a2.61 2.23-.2 0 0 2.6-2.24v-.28a2.61 2.23-.2 0 0-2.62-2.22l-2.95.01a1.08 1.08 0 0 0-1.07 1.08m98.8-8.5l.04 10.9a1.05 1.05 0 0 0 1.05 1.05h.73a6.64 6.24-.2 0 0 6.62-6.26v-.52a6.64 6.24-.2 0 0-6.66-6.22h-.73a1.05 1.05 0 0 0-1.05 1.05" class="X"/><path vector-effect="non-scaling-stroke" d="M311.37 307.64l-.02 3.8a.7.7 0 0 0 .7.7h1.03a4.89 2.45.2 0 0 4.9-2.43v-.3a4.89 2.45.2 0 0-4.88-2.47h-1.03a.7.7 0 0 0-.7.7" class="a"/><path vector-effect="non-scaling-stroke" d="M339.24 308.31l-.02 2.82a1.01 1.01 0 0 0 1.01 1.02l2.5.01a2.71 2.2.3 0 0 2.72-2.18v-.44a2.71 2.2.3 0 0-2.7-2.22l-2.5-.01a1.01 1.01 0 0 0-1.01 1" class="X"/><path vector-effect="non-scaling-stroke" d="M378.17 308.11l.02 3.48a1.41 1.41 0 0 0 1.42 1.4l2.95-.02a3.2 3.09-.4 0 0 3.18-3.12v-.12a3.2 3.09-.4 0 0-3.22-3.06l-2.95.02a1.41 1.41 0 0 0-1.4 1.42" class="b"/></g></g><path fill="#a6a6a6" d="M248.33 0h12.71C397.53 4.44 504.83 112.33 509 248.58v11.72C504.42 397.25 397.62 504.62 260.42 509h-12.21C111.36 504.64 4.36 396.81 0 260.42v-11.21C3.69 111.94 111.74 4.66 248.33 0zM113.06 93.83q-.7.38-1.3.95-9.38 8.93-18.31 18.4-.35.37-.72.02l-8.63-8.34a.53.53 0 0 0-.76.02q-9.75 10.62-17.67 22.67a.49.48 33.5 0 0 .14.68l10.24 6.71q.54.35.19.88-7.42 11.22-13.37 23.28a.79.79 0 0 1-1.08.35l-10.61-5.68q-.54-.28-.82.26-6.67 12.88-11.04 26.72-.19.6.41.78l11.09 3.25q.86.25.63 1.12l-7.22 26.47q-.15.54-.68.4l-11.57-3.01q-.44-.12-.54.33-2.97 14.24-3.8 28.75-.03.66.62.66h12q.46 0 .46.45l-.04 28.03q0 .4-.41.41l-12.21.25q-.48.01-.45.49.87 14.58 3.69 28.9a.58.58 0 0 0 .7.45l11.99-2.91q.53-.13.65.41 2.77 13.56 7.05 26.72.17.55-.38.7l-11.36 3.07q-.88.24-.59 1.11 4.63 13.72 11 26.7.21.43.62.19l10.83-6.18a.55.54 61.6 0 1 .75.23q6.07 12.32 13.66 23.76a.59.59 0 0 1-.17.81l-10.29 6.51q-.44.28-.15.72 7.89 11.98 17.56 22.57a.89.89 0 0 0 1.29.03l8.05-8.07q.4-.39.79 0l19.72 19.75q.26.26 0 .53l-8.31 8.81q-.36.38.03.74 10.82 9.73 22.93 17.79.47.32.76-.17l6.17-10.45q.34-.57.89-.21 11.43 7.52 23.63 13.73a.8.79 28.4 0 1 .33 1.09L153.51 457q-.24.44.21.66 13.04 6.56 27 10.91.62.19.79-.43l3.13-10.95q.25-.88 1.13-.64l26.37 7.23a.56.56 0 0 1 .39.68l-2.94 11.32q-.14.51.38.62 14.25 2.97 28.79 4.02.45.03.47-.42l.53-12.19q.02-.41.43-.41l27.88.04a.39.38 89.2 0 1 .38.38l.17 12.11q0 .49.49.46 14.47-1.13 28.74-3.77.58-.11.44-.7l-2.89-11.84q-.07-.31.24-.39l27.06-7.25a.4.39 74.2 0 1 .48.27l3.4 11.46a.5.49-16.4 0 0 .62.33q13.81-4.18 26.58-10.9a.62.62 0 0 0 .26-.84l-5.23-9.84a1.32 1.31-28.7 0 1 .52-1.76l23.26-13.13a.73.72-30.2 0 1 .98.25l6.17 10.24q.39.63.97.18l22.42-17.59a.77.77 0 0 0 .09-1.14l-7.99-8.6a.74.74 0 0 1 .02-1.02l19.32-19.42q.32-.32.64-.01l8.55 8.06q.62.59 1.19-.06 9.43-10.82 17.46-22.71.32-.48-.18-.77l-10.4-6a.5.49-60.5 0 1-.18-.67l14-24.08q.29-.5.79-.21l10.34 6q.39.22.59-.18 6.62-13.09 11.26-27 .19-.55-.37-.71l-11.39-3.15q-.59-.16-.43-.74l7.16-26.79q.12-.44.56-.33l11.84 2.88q.56.14.67-.43 2.76-14.31 3.73-28.83.04-.7-.66-.7h-11.85a.62.61 89.5 0 1-.61-.61l-.11-27.6q0-.54.54-.56l12.1-.42q.65-.02.6-.67-1.08-14.2-3.72-28.19-.12-.61-.72-.47l-11.49 2.65a.77.77 0 0 1-.92-.55l-7.07-26.11a.95.94-15.8 0 1 .65-1.16l11.16-3.18q.6-.17.4-.77-4.76-13.65-10.91-26.74a.78.78 0 0 0-1.09-.35l-10.55 5.84q-.34.19-.53-.15l-13.96-24.18q-.2-.35.15-.56l10.36-6.28q.55-.33.19-.85-8.18-11.85-17.63-22.7a.47.46 47.9 0 0-.67-.04l-8.7 8.15q-.37.35-.73-.01L395.21 93.6a.62.62 0 0 1-.02-.86l8.02-8.73q.38-.41-.04-.77-10.76-9.4-22.63-17.37-.61-.41-1.01.22l-6.16 9.9q-.25.4-.66.16l-23.84-13.76a.78.77 29.5 0 1-.29-1.04l5.37-9.84q.29-.53-.24-.83c-7.31-4.13-17.96-9.61-26.57-11.18q-.56-.1-.72.45l-3.17 11.3a.78.78 0 0 1-1 .53q-13.12-4.44-26.7-7.11a.37.36 12.4 0 1-.29-.45l3.14-12.05a.7.7 0 0 0-.55-.87q-14.3-2.78-28.83-3.73-.43-.02-.44.4l-.34 12.17q-.02.61-.63.61h-27.58a.49.48-.6 0 1-.49-.47l-.16-12.25q0-.5-.51-.47-14.53.99-28.84 3.73-.57.1-.43.67l3 11.92q.17.69-.53.83-13.52 2.7-26.59 7.08a.53.53 0 0 1-.67-.36l-3.32-11.66q-.16-.56-.71-.4-14.05 4.12-26.79 11.3-.52.29-.23.8l5.62 9.93a.69.69 0 0 1-.25.94l-23.97 13.85a.37.37 0 0 1-.51-.13l-6.32-10.31a.55.55 0 0 0-.78-.16q-11.83 8.31-22.78 17.76-.38.34-.04.71l8.44 9.05q.4.43-.11.72z"/><path d="M113.17 93.11l-8.44-9.05q-.34-.37.04-.71 10.95-9.45 22.78-17.76a.55.55 0 0 1 .78.16l6.32 10.31a.37.37 0 0 0 .51.13l23.97-13.85a.69.69 0 0 0 .25-.94l-5.62-9.93q-.29-.51.23-.8 12.74-7.18 26.79-11.3.55-.16.71.4l3.32 11.66a.53.53 0 0 0 .67.36q13.07-4.38 26.59-7.08.7-.14.53-.83l-3-11.92q-.14-.57.43-.67 14.31-2.74 28.84-3.73.51-.03.51.47l.16 12.25a.49.48-.6 0 0 .49.47h27.58q.61 0 .63-.61l.34-12.17q.01-.42.44-.4 14.53.95 28.83 3.73a.7.7 0 0 1 .55.87l-3.14 12.05a.37.36 12.4 0 0 .29.45q13.58 2.67 26.7 7.11a.78.78 0 0 0 1-.53l3.17-11.3q.16-.55.72-.45c8.61 1.57 19.26 7.05 26.57 11.18q.53.3.24.83l-5.37 9.84a.78.77 29.5 0 0 .29 1.04l23.84 13.76q.41.24.66-.16l6.16-9.9q.4-.63 1.01-.22 11.87 7.97 22.63 17.37.42.36.04.77l-8.02 8.73a.62.62 0 0 0 .02.86l19.42 19.39q.36.36.73.01l8.7-8.15a.47.46 47.9 0 1 .67.04q9.45 10.85 17.63 22.7.36.52-.19.85l-10.36 6.28q-.35.21-.15.56l13.96 24.18q.19.34.53.15l10.55-5.84a.78.78 0 0 1 1.09.35q6.15 13.09 10.91 26.74.2.6-.4.77l-11.16 3.18a.95.94-15.8 0 0-.65 1.16l7.07 26.11a.77.77 0 0 0 .92.55l11.49-2.65q.6-.14.72.47 2.64 13.99 3.72 28.19.05.65-.6.67l-12.1.42q-.54.02-.54.56l.11 27.6a.62.61 89.5 0 0 .61.61h11.85q.7 0 .66.7-.97 14.52-3.73 28.83-.11.57-.67.43l-11.84-2.88q-.44-.11-.56.33l-7.16 26.79q-.16.58.43.74l11.39 3.15q.56.16.37.71-4.64 13.91-11.26 27-.2.4-.59.18l-10.34-6q-.5-.29-.79.21l-14 24.08a.5.49-60.5 0 0 .18.67l10.4 6q.5.29.18.77-8.03 11.89-17.46 22.71-.57.65-1.19.06l-8.55-8.06q-.32-.31-.64.01l-19.32 19.42a.74.74 0 0 0-.02 1.02l7.99 8.6a.77.77 0 0 1-.09 1.14l-22.42 17.59q-.58.45-.97-.18l-6.17-10.24a.73.72-30.2 0 0-.98-.25l-23.26 13.13a1.32 1.31-28.7 0 0-.52 1.76l5.23 9.84a.62.62 0 0 1-.26.84q-12.77 6.72-26.58 10.9a.5.49-16.4 0 1-.62-.33l-3.4-11.46a.4.39 74.2 0 0-.48-.27l-27.06 7.25q-.31.08-.24.39l2.89 11.84q.14.59-.44.7-14.27 2.64-28.74 3.77-.49.03-.49-.46l-.17-12.11a.39.38 89.2 0 0-.38-.38l-27.88-.04q-.41 0-.43.41l-.53 12.19q-.02.45-.47.42-14.54-1.05-28.79-4.02-.52-.11-.38-.62l2.94-11.32a.56.56 0 0 0-.39-.68l-26.37-7.23q-.88-.24-1.13.64l-3.13 10.95q-.17.62-.79.43-13.96-4.35-27-10.91-.45-.22-.21-.66l5.94-10.54a.8.79 28.4 0 0-.33-1.09q-12.2-6.21-23.63-13.73-.55-.36-.89.21l-6.17 10.45q-.29.49-.76.17-12.11-8.06-22.93-17.79-.39-.36-.03-.74l8.31-8.81q.26-.27 0-.53L93.3 394.85q-.39-.39-.79 0l-8.05 8.07a.89.89 0 0 1-1.29-.03q-9.67-10.59-17.56-22.57-.29-.44.15-.72l10.29-6.51a.59.59 0 0 0 .17-.81q-7.59-11.44-13.66-23.76a.55.54 61.6 0 0-.75-.23l-10.83 6.18q-.41.24-.62-.19-6.37-12.98-11-26.7-.29-.87.59-1.11l11.36-3.07q.55-.15.38-.7-4.28-13.16-7.05-26.72-.12-.54-.65-.41L32 298.48a.58.58 0 0 1-.7-.45q-2.82-14.32-3.69-28.9-.03-.48.45-.49l12.21-.25q.41-.01.41-.41l.04-28.03q0-.45-.46-.45h-12q-.65 0-.62-.66.83-14.51 3.8-28.75.1-.45.54-.33l11.57 3.01q.53.14.68-.4l7.22-26.47q.23-.87-.63-1.12l-11.09-3.25q-.6-.18-.41-.78 4.37-13.84 11.04-26.72.28-.54.82-.26l10.61 5.68a.79.79 0 0 0 1.08-.35q5.95-12.06 13.37-23.28.35-.53-.19-.88l-10.24-6.71a.49.48 33.5 0 1-.14-.68q7.92-12.05 17.67-22.67a.53.53 0 0 1 .76-.02l8.63 8.34q.37.35.72-.02 8.93-9.47 18.31-18.4.6-.57 1.3-.95.51-.29.11-.72zm341.04 160.87a200.37 200.37 0 1 0-400.74 0 200.37 200.37 0 1 0 400.74 0z" class="Y"/><path fill="#a6a6a6" d="M454.21 253.98a200.37 200.37 0 1 1-400.74 0 200.37 200.37 0 1 1 400.74 0zm-9.65.08a190.7 190.7 0 1 0-381.4 0 190.7 190.7 0 1 0 381.4 0z"/><path d="M444.56 254.06c0 105.321-85.379 190.7-190.7 190.7s-190.7-85.379-190.7-190.7 85.379-190.7 190.7-190.7 190.7 85.379 190.7 190.7zm-341.37-92.01l-8.37.52c-1.768.113-3.162 1.554-3.22 3.33l-.27 9.15c-3.93 2.96-13.5 11.61-8.81 17.16a167.23 167.23 0 0 1 8.83 11.46l.13 87.07a3.9 3.9 0 0 0 3.86 3.89l49.48.03c5.513-.06 11.31-1.05 17.39-2.97a5.5 5.5 0 0 1 .35.05c.287.047.433.213.44.5v.3a.74.74 0 0 0 .3.6c4.193 3.187 6.747 6.86 7.66 11.02-2.24 1.647-3.227 3.613-2.96 5.9.5 4.32 5.27 5.18 7.94 7.74a1.46 1.46 0 0 1-.65 2.46c-2.26.58-4.427.293-6.5-.86-.433-.24-.683-.113-.75.38l-.37 2.84c-.06.467.117.81.53 1.03 3.273 1.76 6.513 1.903 9.72.43 1.84-.727 2.753-2.36 2.74-4.9.94-4.01-3.35-5.95-7.01-8.11.027-1.6.907-2.373 2.64-2.32.333.013.62.14.86.38 3.433 3.52 6.077 7.657 7.93 12.41l-.42 2.5c-.06.367.093.57.46.61l4.7.5 41.05 51.02-22.94 2.54a.61.61 0 0 0-.35 1.06l20.21 18.44c2.71 2.46 3.54 4.49 2.81 8.31a749.83 749.83 0 0 1-5.83 27.75c-.067.307.037.387.31.24 11.433-6.067 19.097-10.39 22.99-12.97 6.15-4.07 8.81-1.8 15.16 1.75 6.7 3.73 13.24 8.05 20.31 11.05.313.133.43.033.35-.3l-6.01-27.28c-.51-2.47-.53-5.29 1.23-6.9l22.34-20.56a.36.36 0 0 0-.2-.62l-23.86-2.58 41.44-51.35c4.087.04 5.017-.52 2.79-1.68 2.79-6.4 8.28-11.89 12.75-17.19.081-.1.205-.153.33-.14.1.013.19.037.27.07l.35 18.55c.007.327.173.473.5.44l3.13-.33c.307-.033.443-.207.41-.52-.193-1.933-.137-3.92.17-5.96.333-2.293 1.08-2.437 2.24-.43l3.77 6.56a.81.81 0 0 0 .62.4l3.79.31c.587.047.74-.19.46-.71l-4.12-7.65c-.16-.293-.093-.523.2-.69 1.667-.94 2.68-2.443 3.04-4.51 1.38-7.99-5.64-8.57-11.99-8.2l-.38-.04c-.353-.033-.43-.197-.23-.49l5.09-7.49c4.253-.247 8.683-.36 13.29-.34 3.56.01 6.46-.65 6.45-4.71-.027-8.587.083-14.953.33-19.1 3.58-4.54 7.52-10.2 11.91-10.66l20.79 31.47c1.28 1.9 2.517 2.86 3.71 2.88l30.5.21c3.56-.02 6.83-1.82 4.22-5.76l-30.72-47.05c-.187-.293-.137-.537.15-.73 15.3-10.2 20.84-26.85 18.75-44.58 6.43-3.5 7.18-10.08 2.17-15.4l-66.4-70.29c-2.23-2.34-4.35-3.02-7.42-3.01l-189.8.02c-3.45 0-6.03.36-8.27 2.68l-48.49 51.37zm55.25 158.29c-2.247.44-4.35.12-6.31-.96a.41.41 0 0 0-.6.34l-.12 2.78c-.013.387.14.683.46.89 10.59 6.79 18.44-8.4 5.04-12.15a.76.76 0 0 1-.55-.74l.03-2.64a.71.71 0 0 1 .77-.71l5.25.4c.28.02.403-.107.37-.38l-.33-3.1c-.027-.273-.173-.453-.44-.54-4.347-1.5-7.577-.523-9.69 2.93-3.17 5.18 2.93 8.73 6.57 10.56 1.51.755 1.207 2.994-.45 3.32zm-43.09-6.97c4.98-10.39-5.8-11.75-12.52-9.74-.303.089-.511.37-.51.69l-.1 19.89c0 .387.197.577.59.57 5.41-.09 13.97 1.74 13.86-6.7-.013-.907-.447-2.177-1.3-3.81-.16-.3-.167-.6-.02-.9zm25.79-5.46a.34.34 0 0 1 .31-.35l5.42-.36a.34.34 0 0 0 .31-.3l.42-3.61a.34.34 0 0 0-.34-.38l-10.43.34a.34.34 0 0 0-.33.34v20.97a.34.34 0 0 0 .34.34l10.89-.03a.34.34 0 0 0 .33-.38l-.43-3.68a.34.34 0 0 0-.34-.3l-5.71-.02a.34.34 0 0 1-.34-.34v-3.14a.34.34 0 0 1 .28-.33l4.8-.91a.34.34 0 0 0 .27-.37l-.27-3.23a.34.34 0 0 0-.3-.31l-4.41-.39a.34.34 0 0 1-.31-.32zm-8.98 13.16a.34.34 0 0 0-.31-.3l-6.06-.36a.34.34 0 0 1-.32-.34l.04-16.48a.34.34 0 0 0-.34-.34h-3.32a.34.34 0 0 0-.34.34l-.03 20.89a.34.34 0 0 0 .35.34l10.37-.23a.34.34 0 0 0 .33-.38zm222.01-3.5c.3 6.25 7.38 9.46 12.15 5.44 3.99-3.36 2.67-14.05 2.75-18.94.007-.38-.18-.57-.56-.57h-2.25c-.347 0-.52.173-.52.52.007 3.84-.06 7.707-.2 11.6-.15 4.43-2.48 6.84-6.89 4.44-.28-.153-.44-.387-.48-.7a78.05 78.05 0 0 1-.57-15.23c.027-.42-.173-.63-.6-.63h-2.7c-.293 0-.44.143-.44.43a265.73 265.73 0 0 0 .31 13.64zm24.85-1.9c11.41 2.68 12.67-10.42 4.78-11.87-2.687-.493-5.52-.46-8.5.1-.26.047-.39.203-.39.47l-.03 19.7c0 .237.197.43.44.43h3.03c.167 0 .243-.083.23-.25l-.46-7.83c-.04-.653.26-.903.9-.75zm17.73-.16a.34.34 0 0 1 .36-.34l5.54.4a.34.34 0 0 0 .37-.32l.12-2.41a.34.34 0 0 0-.34-.35l-5.39.08a.34.34 0 0 1-.34-.32l-.22-5.46a.34.34 0 0 1 .36-.35l5.78.39a.34.34 0 0 0 .35-.25l.69-2.45a.34.34 0 0 0-.32-.43l-9.46-.1a.34.34 0 0 0-.34.34l.09 20.01a.34.34 0 0 0 .34.34l9.33-.17a.34.34 0 0 0 .33-.34v-2.19a.34.34 0 0 0-.34-.34h-6.57a.34.34 0 0 1-.34-.34z" class="Y"/><path d="M421.4 196.68c-3-16.86-13.11-27.84-29.25-32.45q-3.37-.97-5.59-1.86-16.02-18.32-32.54-34.73-.39-.39-.6.12-6.21 14.66-12.22 29.43-.9 2.23-.99 4.56c-4.28-.03-15.06-1.85-14.82 5q.63 18.46-.18 28.97l-18.38 55.5q-1.44-10.86-7.98-19.03l12.07-36.24q.26-.79-.56-.9-8.74-1.13-17.73 1.56c2.61-4.98 8.45-14.56 10.18-22.2a.9.9 0 0 0-.3-.9q-6.15-5.27-13.78-8.11 1.06-.78-.33-2.33-8.73-9.71-33.73-36.67-.48-.52-.96 0l-49.75 54.04q-.47.5.22.51l16.84.18q-3.41 6.67-4.86 13.58l-18.26.23q-.57.01-.4.55 8.18 25.71 16.59 51.35 1.19 3.62 3.51 6.69l-9.97 16.58-22.29-67.8q-.5-6.85-1.84-12.31-2.65-10.84-10.33-17.92l-18.27-44.2a.48.48 0 0 0-.8-.14l-32.44 34.49-18.47-.18q29.53-31.8 48.49-51.37c2.24-2.32 4.82-2.68 8.27-2.68q94.9-.01 189.8-.02c3.07-.01 5.19.67 7.42 3.01q33.25 35.11 66.4 70.29c5.01 5.32 4.26 11.9-2.17 15.4zm-182.1-74.66a.3.3 0 0 0-.22-.5h-71.49a.3.3 0 0 0-.27.42l22.49 53.4a.3.3 0 0 0 .5.09l48.99-53.41zm78.5 53.08a.62.62 0 0 0 1.02-.18l22.1-52.5a.62.62 0 0 0-.57-.86l-70.33-.09a.62.62 0 0 0-.46 1.04l48.24 52.59z" class="Z"/><path d="M239.3 122.02l-48.99 53.41a.3.3 0 0 1-.5-.09l-22.49-53.4a.3.3 0 0 1 .27-.42h71.49a.3.3 0 0 1 .22.5zm78.5 53.08l-48.24-52.59a.62.62 0 0 1 .46-1.04l70.33.09a.62.62 0 0 1 .57.86l-22.1 52.5a.62.62 0 0 1-1.02.18zm-29.07-9.7c-24.74-10.31-51.92-7.98-67.71 15.73l-16.84-.18q-.69-.01-.22-.51l49.75-54.04q.48-.52.96 0 25 26.96 33.73 36.67 1.39 1.55.33 2.33zm97.83-3.03c-4.34-.08-8.7-.62-12.41-.62q-16.93 0-33.94 0 .09-2.33.99-4.56 6.01-14.77 12.22-29.43.21-.51.6-.12 16.52 16.41 32.54 34.73zm-213.39 9.71c-16.28-11.59-33.71-10.13-51.51-9.85l32.44-34.49a.48.48 0 0 1 .8.14l18.27 44.2z" class="Y"/><path d="M288.73 165.4q7.63 2.84 13.78 8.11a.9.9 0 0 1 .3.9c-1.73 7.64-7.57 17.22-10.18 22.2-1.11 1.86-2.98 6.09-5.81 4.82-9.95-4.46-17.23-8.81-28.73-7.6-4.3.45-9.24 5.16-5.42 9 5.76 5.77 15.42 9.16 22.93 12.51q13.26 5.92 23.25 16.85 6.54 8.17 7.98 19.03.2 19.13-11.55 32.2-7.46 6.74-16.9 10.09-23.81 7.34-48.6-.71-9.09-3.29-18.55-8.92c-6.43-5.22-8.17-5.48-3.6-13.77l9.97-16.58q1.77-3.68 4.67-4.87.51-.21.97.1c9.39 6.38 18.18 12.31 26.01 13.74 5.43.98 20.05.77 18.06-8.65-1.28-6.08-21.21-14.24-26.82-17.13-16.4-8.42-26.97-22.74-24.33-42.01q1.45-6.91 4.86-13.58c15.79-23.71 42.97-26.04 67.71-15.73zm-57.87 15.41q-4.37 4.58-6.78 13.64c-4.02 17.32 8.73 31.17 23.8 37.51 10.08 4.23 30.81 11.68 27.01 26.39-3.75 14.55-23.69 13.68-34.32 9.56q-7.18-2.79-16.09-8.75-.45-.3-.74.15l-3.27 4.89-6.76 11.32q-.28.47.17.79 6.4 4.52 13.58 7.45c16.56 6.72 39.93 8.68 55.92-.97 13.22-7.46 20.13-27.23 12.48-41.01-8.65-14.26-22.78-18.98-37.28-25.37-8.88-3.92-17.9-10.47-13.74-21.68 7.1-15.25 29.82-8.15 40.46-2.46q.48.26.73-.22l6.38-12.38q.88-1.41 1.07-2.86.07-.52-.38-.78c-19.8-11.06-45.65-14.16-62.24 4.78zm109.35-19.06q17.01 0 33.94 0c3.71 0 8.07.54 12.41.62q2.22.89 5.59 1.86c16.14 4.61 26.25 15.59 29.25 32.45 2.09 17.73-3.45 34.38-18.75 44.58q-.43.29-.15.73 23.6 36.3 30.72 47.05c2.61 3.94-.66 5.74-4.22 5.76q-15.25.09-30.5-.21-1.79-.03-3.71-2.88-10.56-15.65-20.79-31.47l-7.68-11.34a.72.71-13.9 0 0-.54-.32l-3.14-.25q-.57-.05-.57.52l.02 22.05q-.37 6.22-.33 19.1c.01 4.06-2.89 4.72-6.45 4.71q-6.91-.03-13.29.34c-4.32-.27-13.53.92-15.94-2.74q-.55-3.08-.56-6.06-.17-43.72.06-87.44.01-.96-.37-3.09.81-10.51.18-28.97c-.24-6.85 10.54-5.03 14.82-5zm-6.98 19.34l.02 13.44.4 90.63q-.36.6-.08 1.18a.86.86 0 0 0 .76.49l16.1.37h3.13q.62 0 .61-.61l-.07-5.84-.17-19.95q.52-6.59.41-15.06c-.09-7.22 10.26-5.09 14.93-4.84q.94.2 1.42.91 3.6 5.41 7.24 10.65l22.28 33.72q.76 1.15 2.14 1.14l19.9-.25q.67-.01.3-.58-13.38-20.59-26.97-41.06-1.62-2.45-2.78-5.26a1.01 1 49.9 0 1 .07-.88q1.2-1.98 2.66-2.76 17.2-9.05 18.41-29.34 1.39-11.35-4.25-21.63-1.62-2.95-4.77-5.79c-10.64-9.41-21.53-10.36-34.92-10.49q-17.98-.18-35.94.3-.48.01-.49.49l-.34 11.02zm-230.04-19.04l18.47.18c17.8-.28 35.23-1.74 51.51 9.85q7.68 7.08 10.33 17.92 1.34 5.46 1.84 12.31-.91 13.8-7.95 23.52a1.49 1.49 0 0 0 .15 1.93c15.79 15.85 15.79 42.78-2.32 57.26q-5.93 4.29-13.01 6.67-9.12 2.88-17.39 2.97-24.92.26-49.48-.03a3.9 3.9 0 0 1-3.86-3.89l-.13-87.07-.02-28.62.27-9.15a3.45 3.44 89.1 0 1 3.22-3.33l8.37-.52zm-4.14 50.32v73.75q0 1.13 1.13 1.13 19.95.02 40.76-.04 7.54-.02 15.7-1.81 7.44-1.68 13.7-6.17c9.1-6.62 12.39-18.1 10.67-28.98-1.49-9.45-6-13.92-12.14-19.8-1.59-1.52-2.71-3.66-1.08-5.44q12.02-13.1 8.95-30.07-1.21-8.39-5.65-13.64c-6.35-8.55-17.71-11.28-27.59-11.31q-15.35-.06-29.53.06l-14.21-.04a.75.75 0 0 0-.75.75l.04 41.61z" fill="#555"/><path d="M292.41 179.67q-1.39.29-2.65 1.2-.4.29-.9.29l-58-.35c16.59-18.94 42.44-15.84 62.24-4.78q.45.26.38.78-.19 1.45-1.07 2.86zm112.51.1q-3.88 1.44-10.67 1.47-30.45.16-61.02-.15l.34-11.02q.01-.48.49-.49 17.96-.48 35.94-.3c13.39.13 24.28 1.08 34.92 10.49z" class="Y"/><path d="M113.97 170.05l-9.96 10.48a.43.43 0 0 0 .31.73l66.77.04q4.44 5.25 5.65 13.64-12.3-.64-24.74.39-2.86-7.45-11.5-9.59-7.48-1.85-15.64-1.17c-4.43.36-3.64 6.57-3.48 10.27l-18.87-.03a.45.45 0 0 0-.36.71q.36.5.88.74.49.22.82.63l17.47 21.87q.87 4.04 3.85 4.16-1.47.31-.04 1.23.54.35.83.63 4.42 4.24 6.84 9.66c-5.06.08-10.29-1.45-11.71 5.16l-22.04-27.23-.04-41.61a.75.75 0 0 1 .75-.75l14.21.04z" class="Z"/><path d="M113.97 170.05q14.18-.12 29.53-.06c9.88.03 21.24 2.76 27.59 11.31l-66.77-.04a.43.43 0 0 1-.31-.73l9.96-10.48z" class="Y"/><path d="M91.33 175.05l.02 28.62q-4.12-5.86-8.83-11.46c-4.69-5.55 4.88-14.2 8.81-17.16zm201.08 4.62l-6.38 12.38q-.25.48-.73.22c-10.64-5.69-33.36-12.79-40.46 2.46l-20.76-.28q2.41-9.06 6.78-13.64l58 .35q.5 0 .9-.29 1.26-.91 2.65-1.2zm112.51.1q3.15 2.84 4.77 5.79 5.64 10.28 4.25 21.63-16.54 19.86-31.84 39.4-1.27 1.62-4.17 5.87-3.64-5.24-7.24-10.65-.48-.71-1.42-.91 10.32-12.7 14.29-17.34 2.09-2.43 1.73-3.93l5.02-6q8.91-8.58 15.25-18.36a.35.35 0 0 0-.29-.54l-16.31-.1c-7.08-9.82-19.57-10.9-30.77-9.91-4.7.41-4.08 6.06-3.93 9.72l-21.01.09-.02-13.44q30.57.31 61.02.15 6.79-.03 10.67-1.47z" class="Z"/><path d="M152 195.33c3.11 10.4 1.04 23.48-11.26 26.37q-6.92 1.63-15.57 1.22-2.98-.12-3.85-4.16l.06-23.92c-.16-3.7-.95-9.91 3.48-10.27q8.16-.68 15.64 1.17 8.64 2.14 11.5 9.59zm-22.86-.64l.03 19.91q0 .5.5.57c12.69 1.78 19.49-5.79 14.9-18.09-2.11-4.97-10.22-5.18-14.7-4.75q-.55.05-.59.6l-.14 1.76zm259.82-.06q4.6 8.17 1.35 19l-5.02 6q-6.42 4.65-14.79 5.4c-3.89.36-16.22 2.3-16.23-3.59q-.04-13.73-.01-27c-.15-3.66-.77-9.31 3.93-9.72 11.2-.99 23.69.09 30.77 9.91zm-26.88-.31v22.42q0 .47.46.55c8.35 1.48 20.35-.5 21.4-10.52q.79-7.52-4.92-11.59-8.1-4-16.53-2.56-.53.09-.49.62l.08 1.08z" fill="#555"/><path d="M144.57 197.08q-7.02-3.32-15.43-2.39l.14-1.76q.04-.55.59-.6c4.48-.43 12.59-.22 14.7 4.75zm234.45-1.9l-16.94-.86-.08-1.08q-.04-.53.49-.62 8.43-1.44 16.53 2.56z" class="Z"/><path d="M292.63 196.61q8.99-2.69 17.73-1.56.82.11.56.9l-12.07 36.24q-9.99-10.93-23.25-16.85c-7.51-3.35-17.17-6.74-22.93-12.51-3.82-3.84 1.12-8.55 5.42-9 11.5-1.21 18.78 3.14 28.73 7.6 2.83 1.27 4.7-2.96 5.81-4.82zm-68.55-2.16l20.76.28c-4.16 11.21 4.86 17.76 13.74 21.68 14.5 6.39 28.63 11.11 37.28 25.37l-12.3 37.26a1.94 1.93 78 0 1-.55.85q-1.39 1.27.37 2.9c-15.99 9.65-39.36 7.69-55.92.97q-5.47-8.82-6.99-19.56l3.27-4.89q.29-.45.74-.15 8.91 5.96 16.09 8.75c10.63 4.12 30.57 4.99 34.32-9.56 3.8-14.71-16.93-22.16-27.01-26.39-15.07-6.34-27.82-20.19-23.8-37.51zm130.18-.01q-.03 13.27.01 27c.01 5.89 12.34 3.95 16.23 3.59q8.37-.75 14.79-5.4.36 1.5-1.73 3.93-3.97 4.64-14.29 17.34c-4.67-.25-15.02-2.38-14.93 4.84q.11 8.47-.41 15.06-11.03 12.07-20.28 24.36l-.4-90.63 21.01-.09zm7.82-.12l16.94.86q5.71 4.07 4.92 11.59c-1.05 10.02-13.05 12-21.4 10.52q-.46-.08-.46-.55v-22.42zm28.23 19.31q3.25-10.83-1.35-19l16.31.1a.35.35 0 0 1 .29.54q-6.34 9.78-15.25 18.36zm-245.74-16.55c4.59 12.3-2.21 19.87-14.9 18.09q-.5-.07-.5-.57l-.03-19.91q8.41-.93 15.43 2.39zm71.59-2.37c-2.64 19.27 7.93 33.59 24.33 42.01 5.61 2.89 25.54 11.05 26.82 17.13 1.99 9.42-12.63 9.63-18.06 8.65-7.83-1.43-16.62-7.36-26.01-13.74q-.46-.31-.97-.1-2.9 1.19-4.67 4.87-2.32-3.07-3.51-6.69-8.41-25.64-16.59-51.35-.17-.54.4-.55l18.26-.23zm-94.78.13l-.06 23.92-17.47-21.87q-.33-.41-.82-.63-.52-.24-.88-.74a.45.45 0 0 1 .36-.71l18.87.03zm55.36.1q3.07 16.97-8.95 30.07c-1.63 1.78-.51 3.92 1.08 5.44 6.14 5.88 10.65 10.35 12.14 19.8 1.72 10.88-1.57 22.36-10.67 28.98l-14.22-17.92c4.52-12.18-2.08-22.1-14.13-24.98q-5.21-1.24-9.19-1.89-2.42-5.42-6.84-9.66-.29-.28-.83-.63-1.43-.92.04-1.23 8.65.41 15.57-1.22c12.3-2.89 14.37-15.97 11.26-26.37q12.44-1.03 24.74-.39zm148.47.78q.38 2.13.37 3.09-.23 43.72-.06 87.44.01 2.98.56 6.06-2.22 7.01-8.37 11.16l-9.81-.08q-.59 0-.6.59l-.2 14.32q-2.43 2.69-4.58 2.18l-6.06-.02q-.54 0-.52-.54l.16-2.99q.02-.46.48-.53l4.2-.63q.72-.11.72-.85v-2.11q0-.7-.7-.78l-4.3-.47q-.5-.06-.5-.56v-2.89q0-.64.64-.67l5.12-.26a.47.46-90 0 0 .44-.45l.18-2.92q.03-.59-.56-.6l-9.42-.24q-.9-.02-.9.88v20.37q0 .43.42.44l9.71.24-29.06 35.81q-1.88 2.32-.98-.52L289 305.63q.13-.43.06-.87-.19-1.12.73-1.68a1.12 1.09-8 0 0 .47-.61l4.55-14.4q.17-.55.58-.93 1.63-1.53-.11-3.72 11.75-13.07 11.55-32.2l18.38-55.5zm-139.87 6.59l22.29 67.8c-4.57 8.29-2.83 8.55 3.6 13.77q4.81 11.2 8.36 22.49l17.71 54.76q.86 2.66-.89.48l-29.3-36.51c7.62-1.01 12.02-6.53 10.33-14.05-1.78-7.94-9.53-8.51-16.47-7.71q-.47.06-.48.53l-.08 13.6q-3.14-5.44-6.85-8.15a1.01 1.01 0 0 1 .65-1.83l.99.05q.47.02.47-.45l-.03-2.82q-.35-1.58-6.21-1.12l-14.21-18.13c18.11-14.48 18.11-41.41 2.32-57.26a1.49 1.49 0 0 1-.15-1.93q7.04-9.72 7.95-23.52zm228.6 4.88q-1.21 20.29-18.41 29.34-1.46.78-2.66 2.76a1.01 1 49.9 0 0-.07.88q1.16 2.81 2.78 5.26 13.59 20.47 26.97 41.06.37.57-.3.58l-19.9.25q-1.38.01-2.14-1.14l-22.28-33.72q2.9-4.25 4.17-5.87 15.3-19.54 31.84-39.4zm-314.89 5.18l22.04 27.23q.38 13.28.44 27.93c.02 5.75 1.88 5.57 6.85 5.65q8.73.15 16.94-2 7.17 6.04 11.32 14.22-8.16 1.79-15.7 1.81-20.81.06-40.76.04-1.13 0-1.13-1.13v-73.75z" class="Y"/><path fill="#555" d="M132.8 234.44q3.98.65 9.19 1.89c12.05 2.88 18.65 12.8 14.13 24.98q-2.82 7.34-10.8 9.87-8.21 2.15-16.94 2c-4.97-.08-6.83.1-6.85-5.65q-.06-14.65-.44-27.93c1.42-6.61 6.65-5.08 11.71-5.16zm-3.69 15.61l.2 14.74q0 .57.58.62 5.03.45 10.59-.86 7.9-1.37 9.11-8.39c2.01-11.66-11.75-13.84-19.67-13.66a.58.58 0 0 0-.57.56l-.24 6.99z"/><path d="M295.86 241.78c7.65 13.78.74 33.55-12.48 41.01q-1.76-1.63-.37-2.9a1.94 1.93 78 0 0 .55-.85l12.3-37.26zm-155.38 22.77l-11.37-14.5.24-6.99a.58.58 0 0 1 .57-.56c7.92-.18 21.68 2 19.67 13.66q-1.21 7.02-9.11 8.39zM374 260.24c-4.39.46-8.33 6.12-11.91 10.66l-.02-22.05q0-.57.57-.52l3.14.25a.72.71-13.9 0 1 .54.32l7.68 11.34z" class="Z"/><path d="M129.11 250.05l11.37 14.5q-5.56 1.31-10.59.86-.58-.05-.58-.62l-.2-14.74z" class="Y"/><path d="M156.12 261.31l14.22 17.92q-6.26 4.49-13.7 6.17-4.15-8.18-11.32-14.22 7.98-2.53 10.8-9.87zm197.81-.51l.17 19.95q-3.08 2.98-3.67 6.45l-16.1-.37a.86.86 0 0 1-.76-.49q-.28-.58.08-1.18 9.25-12.29 20.28-24.36zm-133.46 3.4q1.52 10.74 6.99 19.56-7.18-2.93-13.58-7.45-.45-.32-.17-.79l6.76-11.32z" class="Z"/><path d="M354.1 280.75l.07 5.84q.01.61-.61.61h-3.13q.59-3.47 3.67-6.45z" class="Y"/><path d="M295.28 283.42q1.74 2.19.11 3.72-.41.38-.58.93l-4.55 14.4a1.12 1.09-8 0 1-.47.61q-.92.56-.73 1.68.07.44-.06.87l-17.41 54.56q-.9 2.84.98.52l29.06-35.81q2.02-.95.89-4.42 2.15.51 4.58-2.18c.34 2.92-1.57 6.86 3.3 6.36q.97-.1 1.02-1.08l.28-5.68a1.28 1.28 0 0 1 2.35-.63l4.78 7.48-41.44 51.35q-8.27.8-11.57-6.42-3.87-8.46-7.08-15.59l9.78-29.01a.46.46 0 0 0-.28-.58q-.24-.09-.49.06l.03-.79q1.22.15 1.82-1.44 2.1-5.61 3.29-11.25l6.11 13.85a.53.53 0 0 0 .97-.01l8.78-21.45q.19-.46-.3-.55c-6.21-1.17-7.13 6.42-8.72 10.66a.43.43 0 0 1-.8.02l-4.35-10.09q3.64-3.56 3.8-10 9.44-3.35 16.9-10.09zm-84.05.46q9.46 5.63 18.55 8.92l2.56 9.27q.12.45.03.9-.08.4-.08.79.01.35.76.24c-4.77 4.18-2.93 9.89 2.76 11.68 1.42.44 2.63 1.08 2.9 2.45a1.96 1.96 0 0 1-1.69 2.33q-3.17.37-6.05-.93-.45-.21-.54.29c-1 5.9 5.96 5.72 9.53 4.83q3.9 14.5 9.89 29.18-3.44 8.53-8.33 18.06c-.62 1.22-2.22 2.99-3.33 3.3q-4.39 1.2-7.32.98l-41.05-51.02 5.75-.49q.6-.05.54-.64l-.29-2.95q-.04-.44-.49-.45l-5.34-.03q-.86 0-.85-.86l.04-2.73q.01-.58.58-.69l4-.81a1.82 1.82 0 0 0-.5-3.6q-1.73.13-3.43-.35a.79.79 0 0 1-.58-.76v-2.57q0-.63.63-.7 3.21-.38 5.76-3.25l.03 2.82q0 .47-.47.45l-.99-.05a1.01 1.01 0 0 0-.65 1.83q3.71 2.71 6.85 8.15l.14 6.59q.01.62.63.66l5.93.38 29.3 36.51q1.75 2.18.89-.48l-17.71-54.76q-3.55-11.29-8.36-22.49zm-36.01 1.14l14.21 18.13q-1.77-.45-4.01.39-.51.19-.5.74l.16 17.26q-2.78-7.13-7.93-12.41-.36-.36-.86-.38-2.6-.08-2.64 2.32-1.9-.94-1.33-2.81.16-.53.66-.74 2.46-1.07 4.83.14a.54.54 0 0 0 .76-.32l.89-2.87q.15-.49-.32-.69-4.46-1.89-8.18.38-1.37-6.24-7.66-11.02a.75.73-72.3 0 1-.3-.6q0-.15 0-.3-.01-.43-.44-.5-.17-.03-.35-.05 7.08-2.38 13.01-6.67zm150.86 7.29c2.41 3.66 11.62 2.47 15.94 2.74l-5.09 7.49q-.3.44.23.49l.38.04-2.02.24q-.64.08-.49.71.28 1.14-.06 1.79-.12-.05-.27-.07a.38.37-67.1 0 0-.33.14c-4.47 5.3-9.96 10.79-12.75 17.19l-2.8-6.6a.78.78 0 0 1 .22-.9c4.34-3.69 4.45-9.86-1.33-12.1q6.15-4.15 8.37-11.16z" class="Z"/><path d="M229.78 292.8q24.79 8.05 48.6.71-.16 6.44-3.8 10-1.96-.82-3.69-.13-.5.2-.33.71l2.33 6.99q-1.19 5.64-3.29 11.25-.6 1.59-1.82 1.44l-.05-2.78q0-.42-.43-.43l-5.5-.19q-.53-.02-.55-.55l-.46-16.13q-.02-.63-.66-.58l-2.81.21q-.57.04-.57.61v20.08q0 .53.52.61 5.27.83 10.48-.06.25-.15.49-.06a.46.46 0 0 1 .28.58l-9.78 29.01-3.93-9.4a.31.31 0 0 0-.56-.02l-4.4 9.16q-5.99-14.68-9.89-29.18 6.11-5.08 1.7-10.14c-2.31-2.64-7.06-2.11-6.3-6.78q.09-.58.68-.55l5.18.3q.28.01.28-.27 0-1.57 0-3.14 0-.55-.54-.7-4.3-1.19-7.91.63-.75.11-.76-.24 0-.39.08-.79.09-.45-.03-.9l-2.56-9.27zm21.704 10.933a.46.46 0 0 0-.462-.458l-3.28.012a.46.46 0 0 0-.458.462l.072 20.54a.46.46 0 0 0 .462.458l3.28-.012a.46.46 0 0 0 .458-.462l-.072-20.54z" class="Y"/><g fill="#868686"><path d="M158.44 320.34a1.77 1.77 0 0 0 .45-3.32c-3.64-1.83-9.74-5.38-6.57-10.56q3.17-5.18 9.69-2.93.4.13.44.54l.33 3.1q.05.41-.37.38l-5.25-.4a.71.71 0 0 0-.77.71l-.03 2.64a.76.76 0 0 0 .55.74c13.4 3.75 5.55 18.94-5.04 12.15q-.48-.31-.46-.89l.12-2.78a.41.41 0 0 1 .6-.34q2.94 1.62 6.31.96zm15.21-9.27c3.66 2.16 7.95 4.1 7.01 8.11l-2.74 4.9q-4.81 2.21-9.72-.43-.62-.33-.53-1.03l.37-2.84q.1-.74.75-.38 3.11 1.73 6.5.86a1.46 1.46 0 0 0 .65-2.46c-2.67-2.56-7.44-3.42-7.94-7.74q-.4-3.43 2.96-5.9 3.72-2.27 8.18-.38.47.2.32.69l-.89 2.87a.54.54 0 0 1-.76.32q-2.37-1.21-4.83-.14-.5.21-.66.74-.57 1.87 1.33 2.81zm66.31 13.58c-3.57.89-10.53 1.07-9.53-4.83q.09-.5.54-.29 2.88 1.3 6.05.93a1.96 1.96 0 0 0 1.69-2.33c-.27-1.37-1.48-2.01-2.9-2.45-5.69-1.79-7.53-7.5-2.76-11.68q3.61-1.82 7.91-.63.54.15.54.7 0 1.57 0 3.14 0 .28-.28.27l-5.18-.3q-.59-.03-.68.55c-.76 4.67 3.99 4.14 6.3 6.78q4.41 5.06-1.7 10.14zm32.93-13.57l-2.33-6.99q-.17-.51.33-.71 1.73-.69 3.69.13l4.35 10.09a.43.43 0 0 0 .8-.02c1.59-4.24 2.51-11.83 8.72-10.66q.49.09.3.55l-8.78 21.45a.53.53 0 0 1-.97.01l-6.11-13.85zm-170.06-7.45c6.72-2.01 17.5-.65 12.52 9.74q-.22.45.02.9 1.28 2.45 1.3 3.81c.11 8.44-8.45 6.61-13.86 6.7q-.59.01-.59-.57l.1-19.89a.72.71 81.9 0 1 .51-.69zm9.236 4.96a1.5 1.5 0 0 0-1.569-1.428l-2.997.141a1.5 1.5 0 0 0-1.428 1.569l.081 1.718a1.5 1.5 0 0 0 1.569 1.428l2.997-.141a1.5 1.5 0 0 0 1.428-1.569l-.081-1.718zm-6.036 8.43v2.58a1.08 1.08 0 0 0 1.09 1.08l2.95-.01a2.61 2.23-.2 0 0 2.6-2.24v-.28a2.61 2.23-.2 0 0-2.62-2.22l-2.95.01a1.08 1.08 0 0 0-1.07 1.08zm35.11-9.11l.16 3.24a.34.34 0 0 0 .31.32l4.41.39a.34.34 0 0 1 .3.31l.27 3.23a.34.34 0 0 1-.27.37l-4.8.91a.34.34 0 0 0-.28.33v3.14a.34.34 0 0 0 .34.34l5.71.02a.34.34 0 0 1 .34.3l.43 3.68a.34.34 0 0 1-.33.38l-10.89.03a.34.34 0 0 1-.34-.34v-20.97a.34.34 0 0 1 .33-.34l10.43-.34a.34.34 0 0 1 .34.38l-.42 3.61a.34.34 0 0 1-.31.3l-5.42.36a.34.34 0 0 0-.31.35zm48.29-4.76q5.86-.46 6.21 1.12-2.55 2.87-5.76 3.25-.63.07-.63.7v2.57a.79.79 0 0 0 .58.76q1.7.48 3.43.35a1.82 1.82 0 0 1 .5 3.6l-4 .81q-.57.11-.58.69l-.04 2.73q-.01.86.85.86l5.34.03q.45.01.49.45l.29 2.95q.06.59-.54.64l-5.75.49-4.7-.5q-.55-.06-.46-.61l.42-2.5-.16-17.26q-.01-.55.5-.74 2.24-.84 4.01-.39zm17.68 21.95l-5.93-.38q-.62-.04-.63-.66l-.14-6.59.08-13.6q.01-.47.48-.53c6.94-.8 14.69-.23 16.47 7.71 1.69 7.52-2.71 13.04-10.33 14.05zm-2.28-16.58l.04 10.9a1.05 1.05 0 0 0 1.05 1.05h.73a6.64 6.24-.2 0 0 6.62-6.26v-.52a6.64 6.24-.2 0 0-6.66-6.22h-.73a1.05 1.05 0 0 0-1.05 1.05zm62.95 15.25l-.03.79q-5.21.89-10.48.06-.52-.08-.52-.61v-20.08q0-.57.57-.61l2.81-.21q.64-.05.66.58l.46 16.13q.02.53.55.55l5.5.19q.43.01.43.43l.05 2.78zm34.74-3.29q1.13 3.47-.89 4.42l-9.71-.24q-.42-.01-.42-.44v-20.37q0-.9.9-.88l9.42.24q.59.01.56.6l-.18 2.92a.47.46-90 0 1-.44.45l-5.12.26q-.64.03-.64.67V311q0 .5.5.56l4.3.47q.7.08.7.78v2.11q0 .74-.72.85l-4.2.63q-.46.07-.48.53l-.16 2.99q-.02.54.52.54l6.06.02zm15.19-17.01c5.78 2.24 5.67 8.41 1.33 12.1a.78.78 0 0 0-.22.9l2.8 6.6q3.34 1.74-2.79 1.68l-4.78-7.48a1.28 1.28 0 0 0-2.35.63l-.28 5.68q-.05.98-1.02 1.08c-4.87.5-2.96-3.44-3.3-6.36l.2-14.32q.01-.59.6-.59l9.81.08zm-6.34 4.17l-.02 3.8a.7.7 0 0 0 .7.7h1.03a4.89 2.45.2 0 0 4.9-2.43v-.3a4.89 2.45.2 0 0-4.88-2.47h-1.03a.7.7 0 0 0-.7.7zm26.17-4.57c6.35-.37 13.37.21 11.99 8.2q-.54 3.1-3.04 4.51-.44.25-.2.69l4.12 7.65q.42.78-.46.71l-3.79-.31a.82.8 77.4 0 1-.62-.4l-3.77-6.56q-1.74-3.01-2.24.43-.46 3.06-.17 5.96.05.47-.41.52l-3.13.33q-.49.05-.5-.44l-.35-18.55q.34-.65.06-1.79-.15-.63.49-.71l2.02-.24zm1.7 5.24l-.02 2.82a1.01 1.01 0 0 0 1.01 1.02l2.5.01a2.71 2.2.3 0 0 2.72-2.18v-.44a2.71 2.2.3 0 0-2.7-2.22l-2.5-.01a1.01 1.01 0 0 0-1.01 1zm-207.08 12.76l.37 3.14a.34.34 0 0 1-.33.38l-10.37.23a.34.34 0 0 1-.35-.34l.03-20.89a.34.34 0 0 1 .34-.34h3.32a.34.34 0 0 1 .34.34l-.04 16.48a.34.34 0 0 0 .32.34l6.06.36a.34.34 0 0 1 .31.3z"/><rect x="-2.1" y="-10.73" transform="matrix(.999994 -.003491 .003491 .999994 249.42 314.01)" width="4.2" height="21.46" rx=".46"/><path d="M366.32 323.01c-4.77 4.02-11.85.81-12.15-5.44q-.33-6.81-.31-13.64 0-.43.44-.43h2.7q.64 0 .6.63-.46 7.65.57 15.23.06.47.48.7c4.41 2.4 6.74-.01 6.89-4.44q.21-5.84.2-11.6 0-.52.52-.52h2.25q.57 0 .56.57c-.08 4.89 1.24 15.58-2.75 18.94zm12.7-7.34q-.96-.23-.9.75l.46 7.83q.02.25-.23.25h-3.03a.44.43 0 0 1-.44-.43l.03-19.7q0-.4.39-.47 4.47-.84 8.5-.1c7.89 1.45 6.63 14.55-4.78 11.87zm-.85-7.56l.02 3.48a1.41 1.41 0 0 0 1.42 1.4l2.95-.02a3.2 3.09-.4 0 0 3.18-3.12v-.12a3.2 3.09-.4 0 0-3.22-3.06l-2.95.02a1.41 1.41 0 0 0-1.4 1.42z"/><use xlink:href="#B"/><use xlink:href="#B" x="14.686" y="-0.178"/></g><path d="M378.17 308.11a1.41 1.41 0 0 1 1.4-1.42l2.95-.02a3.2 3.09-.4 0 1 3.22 3.06v.12a3.2 3.09-.4 0 1-3.18 3.12l-2.95.02a1.41 1.41 0 0 1-1.42-1.4l-.02-3.48z" class="Y"/><path d="M311.37 307.64a.7.7 0 0 1 .7-.7h1.03a4.89 2.45.2 0 1 4.88 2.47v.3a4.89 2.45.2 0 1-4.9 2.43h-1.03a.7.7 0 0 1-.7-.7l.02-3.8z" class="Z"/><g class="Y"><rect x="-3" y="-2.36" transform="matrix(.99889 -.047106 .047106 .99889 109.11 309.59)" width="6" height="4.72" rx="1.5"/><path d="M339.24 308.31a1.01 1.01 0 0 1 1.01-1l2.5.01a2.71 2.2.3 0 1 2.7 2.22v.44a2.71 2.2.3 0 1-2.72 2.18l-2.5-.01a1.01 1.01 0 0 1-1.01-1.02l.02-2.82zm-134.41.21a1.05 1.05 0 0 1 1.05-1.05h.73a6.64 6.24-.2 0 1 6.66 6.22v.52a6.64 6.24-.2 0 1-6.62 6.26h-.73a1.05 1.05 0 0 1-1.05-1.05l-.04-10.9zm-98.8 8.5a1.08 1.08 0 0 1 1.07-1.08l2.95-.01a2.61 2.23-.2 0 1 2.62 2.22v.28a2.61 2.23-.2 0 1-2.6 2.24l-2.95.01a1.08 1.08 0 0 1-1.09-1.08v-2.58z"/></g><path d="M180.66 319.18q.02 3.81-2.74 4.9l2.74-4.9z" class="Z"/><path d="M258.74 354.09q3.21 7.13 7.08 15.59 3.3 7.22 11.57 6.42l23.86 2.58a.36.36 0 0 1 .2.62q-11.12 10.29-22.34 20.56c-1.76 1.61-1.74 4.43-1.23 6.9q2.81 13.69 6.01 27.28.12.5-.35.3c-7.07-3-13.61-7.32-20.31-11.05-6.35-3.55-9.01-5.82-15.16-1.75q-5.84 3.87-22.99 12.97-.41.22-.31-.24 3.19-13.88 5.83-27.75c.73-3.82-.1-5.85-2.81-8.31q-9.93-9.06-20.21-18.44a.61.61 0 0 1 .35-1.06l22.94-2.54q2.93.22 7.32-.98c1.11-.31 2.71-2.08 3.33-3.3q4.89-9.53 8.33-18.06l4.4-9.16a.31.31 0 0 1 .56.02l3.93 9.4z" fill="#747474"/><defs ><path id="B" d="M396.75 315.51v5.4a.34.34 0 0 0 .34.34h6.57a.34.34 0 0 1 .34.34v2.19a.34.34 0 0 1-.33.34l-9.33.17a.34.34 0 0 1-.34-.34l-.09-20.01a.34.34 0 0 1 .34-.34l9.46.1a.34.34 0 0 1 .32.43l-.69 2.45a.34.34 0 0 1-.35.25l-5.78-.39a.34.34 0 0 0-.36.35l.22 5.46a.34.34 0 0 0 .34.32l5.39-.08a.34.34 0 0 1 .34.35l-.12 2.41a.34.34 0 0 1-.37.32l-5.54-.4a.34.34 0 0 0-.36.34z"/></defs></svg>