<?xml version="1.0" encoding="UTF-8" standalone="no"?>
<!DOCTYPE svg PUBLIC "-//W3C//DTD SVG 1.1//EN" "http://www.w3.org/Graphics/SVG/1.1/DTD/svg11.dtd">
<svg xmlns="http://www.w3.org/2000/svg" version="1.1" viewBox="0.00 0.00 509.00 509.00">
<g stroke-width="2.00" fill="none" stroke-linecap="butt">
<path stroke="#d3d3d3" vector-effect="non-scaling-stroke" d="
  M 113.06 93.83
  Q 112.36 94.21 111.76 94.78
  Q 102.38 103.71 93.45 113.18
  Q 93.10 113.55 92.73 113.20
  L 84.10 104.86
  A 0.53 0.53 0.0 0 0 83.34 104.88
  Q 73.59 115.50 65.67 127.55
  A 0.49 0.48 33.5 0 0 65.81 128.23
  L 76.05 134.94
  Q 76.59 135.29 76.24 135.82
  Q 68.82 147.04 62.87 159.10
  A 0.79 0.79 0.0 0 1 61.79 159.45
  L 51.18 153.77
  Q 50.64 153.49 50.36 154.03
  Q 43.69 166.91 39.32 180.75
  Q 39.13 181.35 39.73 181.53
  L 50.82 184.78
  Q 51.68 185.03 51.45 185.90
  L 44.23 212.37
  Q 44.08 212.91 43.55 212.77
  L 31.98 209.76
  Q 31.54 209.64 31.44 210.09
  Q 28.47 224.33 27.64 238.84
  Q 27.61 239.50 28.26 239.50
  L 40.26 239.50
  Q 40.72 239.50 40.72 239.95
  L 40.68 267.98
  Q 40.68 268.38 40.27 268.39
  L 28.06 268.64
  Q 27.58 268.65 27.61 269.13
  Q 28.48 283.71 31.30 298.03
  A 0.58 0.58 0.0 0 0 32.00 298.48
  L 43.99 295.57
  Q 44.52 295.44 44.64 295.98
  Q 47.41 309.54 51.69 322.70
  Q 51.86 323.25 51.31 323.40
  L 39.95 326.47
  Q 39.07 326.71 39.36 327.58
  Q 43.99 341.30 50.36 354.28
  Q 50.57 354.71 50.98 354.47
  L 61.81 348.29
  A 0.55 0.54 61.6 0 1 62.56 348.52
  Q 68.63 360.84 76.22 372.28
  A 0.59 0.59 0.0 0 1 76.05 373.09
  L 65.76 379.60
  Q 65.32 379.88 65.61 380.32
  Q 73.50 392.30 83.17 402.89
  A 0.89 0.89 0.0 0 0 84.46 402.92
  L 92.51 394.85
  Q 92.91 394.46 93.30 394.85
  L 113.02 414.60
  Q 113.28 414.86 113.02 415.13
  L 104.71 423.94
  Q 104.35 424.32 104.74 424.68
  Q 115.56 434.41 127.67 442.47
  Q 128.14 442.79 128.43 442.30
  L 134.60 431.85
  Q 134.94 431.28 135.49 431.64
  Q 146.92 439.16 159.12 445.37
  A 0.80 0.79 28.4 0 1 159.45 446.46
  L 153.51 457.00
  Q 153.27 457.44 153.72 457.66
  Q 166.76 464.22 180.72 468.57
  Q 181.34 468.76 181.51 468.14
  L 184.64 457.19
  Q 184.89 456.31 185.77 456.55
  L 212.14 463.78
  A 0.56 0.56 0.0 0 1 212.53 464.46
  L 209.59 475.78
  Q 209.45 476.29 209.97 476.40
  Q 224.22 479.37 238.76 480.42
  Q 239.21 480.45 239.23 480.00
  L 239.76 467.81
  Q 239.78 467.40 240.19 467.40
  L 268.07 467.44
  A 0.39 0.38 89.2 0 1 268.45 467.82
  L 268.62 479.93
  Q 268.62 480.42 269.11 480.39
  Q 283.58 479.26 297.85 476.62
  Q 298.43 476.51 298.29 475.92
  L 295.40 464.08
  Q 295.33 463.77 295.64 463.69
  L 322.70 456.44
  A 0.40 0.39 74.2 0 1 323.18 456.71
  L 326.58 468.17
  A 0.50 0.49 -16.4 0 0 327.20 468.50
  Q 341.01 464.32 353.78 457.60
  A 0.62 0.62 0.0 0 0 354.04 456.76
  L 348.81 446.92
  A 1.32 1.31 -28.7 0 1 349.33 445.16
  L 372.59 432.03
  A 0.73 0.72 -30.2 0 1 373.57 432.28
  L 379.74 442.52
  Q 380.13 443.15 380.71 442.70
  L 403.13 425.11
  A 0.77 0.77 0.0 0 0 403.22 423.97
  L 395.23 415.37
  A 0.74 0.74 0.0 0 1 395.25 414.35
  L 414.57 394.93
  Q 414.89 394.61 415.21 394.92
  L 423.76 402.98
  Q 424.38 403.57 424.95 402.92
  Q 434.38 392.10 442.41 380.21
  Q 442.73 379.73 442.23 379.44
  L 431.83 373.44
  A 0.50 0.49 -60.5 0 1 431.65 372.77
  L 445.65 348.69
  Q 445.94 348.19 446.44 348.48
  L 456.78 354.48
  Q 457.17 354.70 457.37 354.30
  Q 463.99 341.21 468.63 327.30
  Q 468.82 326.75 468.26 326.59
  L 456.87 323.44
  Q 456.28 323.28 456.44 322.70
  L 463.60 295.91
  Q 463.72 295.47 464.16 295.58
  L 476.00 298.46
  Q 476.56 298.60 476.67 298.03
  Q 479.43 283.72 480.40 269.20
  Q 480.44 268.50 479.74 268.50
  L 467.89 268.50
  A 0.62 0.61 89.5 0 1 467.28 267.89
  L 467.17 240.29
  Q 467.17 239.75 467.71 239.73
  L 479.81 239.31
  Q 480.46 239.29 480.41 238.64
  Q 479.33 224.44 476.69 210.45
  Q 476.57 209.84 475.97 209.98
  L 464.48 212.63
  A 0.77 0.77 0.0 0 1 463.56 212.08
  L 456.49 185.97
  A 0.95 0.94 -15.8 0 1 457.14 184.81
  L 468.30 181.63
  Q 468.90 181.46 468.70 180.86
  Q 463.94 167.21 457.79 154.12
  A 0.78 0.78 0.0 0 0 456.70 153.77
  L 446.15 159.61
  Q 445.81 159.80 445.62 159.46
  L 431.66 135.28
  Q 431.46 134.93 431.81 134.72
  L 442.17 128.44
  Q 442.72 128.11 442.36 127.59
  Q 434.18 115.74 424.73 104.89
  A 0.47 0.46 47.9 0 0 424.06 104.85
  L 415.36 113.00
  Q 414.99 113.35 414.63 112.99
  L 395.21 93.60
  A 0.62 0.62 0.0 0 1 395.19 92.74
  L 403.21 84.01
  Q 403.59 83.60 403.17 83.24
  Q 392.41 73.84 380.54 65.87
  Q 379.93 65.46 379.53 66.09
  L 373.37 75.99
  Q 373.12 76.39 372.71 76.15
  L 348.87 62.39
  A 0.78 0.77 29.5 0 1 348.58 61.35
  L 353.95 51.51
  Q 354.24 50.98 353.71 50.68
  C 346.40 46.55 335.75 41.07 327.14 39.50
  Q 326.58 39.40 326.42 39.95
  L 323.25 51.25
  A 0.78 0.78 0.0 0 1 322.25 51.78
  Q 309.13 47.34 295.55 44.67
  A 0.37 0.36 12.4 0 1 295.26 44.22
  L 298.40 32.17
  A 0.70 0.70 0.0 0 0 297.85 31.30
  Q 283.55 28.52 269.02 27.57
  Q 268.59 27.55 268.58 27.97
  L 268.24 40.14
  Q 268.22 40.75 267.61 40.75
  L 240.03 40.75
  A 0.49 0.48 -0.6 0 1 239.54 40.28
  L 239.38 28.03
  Q 239.38 27.53 238.87 27.56
  Q 224.34 28.55 210.03 31.29
  Q 209.46 31.39 209.60 31.96
  L 212.60 43.88
  Q 212.77 44.57 212.07 44.71
  Q 198.55 47.41 185.48 51.79
  A 0.53 0.53 0.0 0 1 184.81 51.43
  L 181.49 39.77
  Q 181.33 39.21 180.78 39.37
  Q 166.73 43.49 153.99 50.67
  Q 153.47 50.96 153.76 51.47
  L 159.38 61.40
  A 0.69 0.69 0.0 0 1 159.13 62.34
  L 135.16 76.19
  A 0.37 0.37 0.0 0 1 134.65 76.06
  L 128.33 65.75
  A 0.55 0.55 0.0 0 0 127.55 65.59
  Q 115.72 73.90 104.77 83.35
  Q 104.39 83.69 104.73 84.06
  L 113.17 93.11
  Q 113.57 93.54 113.06 93.83"
/>
<path stroke="#d3d3d3" vector-effect="non-scaling-stroke" d="
  M 454.21 253.98
  A 200.37 200.37 0.0 0 0 253.84 53.61
  A 200.37 200.37 0.0 0 0 53.47 253.98
  A 200.37 200.37 0.0 0 0 253.84 454.35
  A 200.37 200.37 0.0 0 0 454.21 253.98"
/>
<path stroke="#d3d3d3" vector-effect="non-scaling-stroke" d="
  M 444.56 254.06
  A 190.70 190.70 0.0 0 0 253.86 63.36
  A 190.70 190.70 0.0 0 0 63.16 254.06
  A 190.70 190.70 0.0 0 0 253.86 444.76
  A 190.70 190.70 0.0 0 0 444.56 254.06"
/>
<path stroke="#aaaaaa" vector-effect="non-scaling-stroke" d="
  M 103.19 162.05
  L 94.82 162.57
  A 3.45 3.44 89.1 0 0 91.60 165.90
  L 91.33 175.05"
/>
<path stroke="#e8e8e9" vector-effect="non-scaling-stroke" d="
  M 91.33 175.05
  C 87.40 178.01 77.83 186.66 82.52 192.21
  Q 87.23 197.81 91.35 203.67"
/>
<path stroke="#aaaaaa" vector-effect="non-scaling-stroke" d="
  M 91.35 203.67
  L 91.48 290.74
  A 3.90 3.90 0.0 0 0 95.34 294.63
  Q 119.90 294.92 144.82 294.66
  Q 153.09 294.57 162.21 291.69"
/>
<path stroke="#e8e8e9" vector-effect="non-scaling-stroke" d="
  M 162.21 291.69
  Q 162.39 291.71 162.56 291.74
  Q 162.99 291.81 163.00 292.24
  Q 163.00 292.39 163.00 292.54
  A 0.75 0.73 -72.3 0 0 163.30 293.14
  Q 169.59 297.92 170.96 304.16"
/>
<path stroke="#c3c3c3" vector-effect="non-scaling-stroke" d="
  M 170.96 304.16
  Q 167.60 306.63 168.00 310.06
  C 168.50 314.38 173.27 315.24 175.94 317.80
  A 1.46 1.46 0.0 0 1 175.29 320.26
  Q 171.90 321.13 168.79 319.40
  Q 168.14 319.04 168.04 319.78
  L 167.67 322.62
  Q 167.58 323.32 168.20 323.65
  Q 173.11 326.29 177.92 324.08"
/>
<path stroke="#e8e8e9" vector-effect="non-scaling-stroke" d="
  M 177.92 324.08
  Q 180.68 322.99 180.66 319.18"
/>
<path stroke="#c3c3c3" vector-effect="non-scaling-stroke" d="
  M 180.66 319.18
  C 181.60 315.17 177.31 313.23 173.65 311.07"
/>
<path stroke="#e8e8e9" vector-effect="non-scaling-stroke" d="
  M 173.65 311.07
  Q 173.69 308.67 176.29 308.75
  Q 176.79 308.77 177.15 309.13
  Q 182.30 314.41 185.08 321.54"
/>
<path stroke="#c3c3c3" vector-effect="non-scaling-stroke" d="
  M 185.08 321.54
  L 184.66 324.04
  Q 184.57 324.59 185.12 324.65
  L 189.82 325.15"
/>
<path stroke="#e8e8e9" vector-effect="non-scaling-stroke" d="
  M 189.82 325.15
  L 230.87 376.17"
/>
<path stroke="#bababa" vector-effect="non-scaling-stroke" d="
  M 230.87 376.17
  L 207.93 378.71
  A 0.61 0.61 0.0 0 0 207.58 379.77
  Q 217.86 389.15 227.79 398.21
  C 230.50 400.67 231.33 402.70 230.60 406.52
  Q 227.96 420.39 224.77 434.27
  Q 224.67 434.73 225.08 434.51
  Q 242.23 425.41 248.07 421.54
  C 254.22 417.47 256.88 419.74 263.23 423.29
  C 269.93 427.02 276.47 431.34 283.54 434.34
  Q 284.01 434.54 283.89 434.04
  Q 280.69 420.45 277.88 406.76
  C 277.37 404.29 277.35 401.47 279.11 399.86
  Q 290.33 389.59 301.45 379.30
  A 0.36 0.36 0.0 0 0 301.25 378.68
  L 277.39 376.10"
/>
<path stroke="#e8e8e9" vector-effect="non-scaling-stroke" d="
  M 277.39 376.10
  L 318.83 324.75"
/>
<path stroke="#c3c3c3" vector-effect="non-scaling-stroke" d="
  M 318.83 324.75
  Q 324.96 324.81 321.62 323.07"
/>
<path stroke="#e8e8e9" vector-effect="non-scaling-stroke" d="
  M 321.62 323.07
  C 324.41 316.67 329.90 311.18 334.37 305.88
  A 0.38 0.37 -67.1 0 1 334.70 305.74
  Q 334.85 305.76 334.97 305.81"
/>
<path stroke="#c3c3c3" vector-effect="non-scaling-stroke" d="
  M 334.97 305.81
  L 335.32 324.36
  Q 335.33 324.85 335.82 324.80
  L 338.95 324.47
  Q 339.41 324.42 339.36 323.95
  Q 339.07 321.05 339.53 317.99
  Q 340.03 314.55 341.77 317.56
  L 345.54 324.12
  A 0.82 0.80 77.4 0 0 346.16 324.52
  L 349.95 324.83
  Q 350.83 324.90 350.41 324.12
  L 346.29 316.47
  Q 346.05 316.03 346.49 315.78
  Q 348.99 314.37 349.53 311.27
  C 350.91 303.28 343.89 302.70 337.54 303.07"
/>
<path stroke="#e8e8e9" vector-effect="non-scaling-stroke" d="
  M 337.54 303.07
  L 337.16 303.03
  Q 336.63 302.98 336.93 302.54
  L 342.02 295.05"
/>
<path stroke="#aaaaaa" vector-effect="non-scaling-stroke" d="
  M 342.02 295.05
  Q 348.40 294.68 355.31 294.71
  C 358.87 294.72 361.77 294.06 361.76 290.00
  Q 361.72 277.12 362.09 270.90"
/>
<path stroke="#e8e8e9" vector-effect="non-scaling-stroke" d="
  M 362.09 270.90
  C 365.67 266.36 369.61 260.70 374.00 260.24"
/>
<path stroke="#aaaaaa" vector-effect="non-scaling-stroke" d="
  M 374.00 260.24
  Q 384.23 276.06 394.79 291.71
  Q 396.71 294.56 398.50 294.59
  Q 413.75 294.89 429.00 294.80
  C 432.56 294.78 435.83 292.98 433.22 289.04
  Q 426.10 278.29 402.50 241.99
  Q 402.22 241.55 402.65 241.26
  C 417.95 231.06 423.49 214.41 421.40 196.68"
/>
<path stroke="#e8e8e9" vector-effect="non-scaling-stroke" d="
  M 421.40 196.68
  C 427.83 193.18 428.58 186.60 423.57 181.28
  Q 390.42 146.10 357.17 110.99
  C 354.94 108.65 352.82 107.97 349.75 107.98
  Q 254.85 107.99 159.95 108.00
  C 156.50 108.00 153.92 108.36 151.68 110.68
  Q 132.72 130.25 103.19 162.05"
/>
<path stroke="#939394" vector-effect="non-scaling-stroke" d="
  M 421.40 196.68
  C 418.40 179.82 408.29 168.84 392.15 164.23
  Q 388.78 163.26 386.56 162.37"
/>
<path stroke="#e8e8e9" vector-effect="non-scaling-stroke" d="
  M 386.56 162.37
  Q 370.54 144.05 354.02 127.64
  Q 353.63 127.25 353.42 127.76
  Q 347.21 142.42 341.20 157.19
  Q 340.30 159.42 340.21 161.75"
/>
<path stroke="#939394" vector-effect="non-scaling-stroke" d="
  M 340.21 161.75
  C 335.93 161.72 325.15 159.90 325.39 166.75
  Q 326.02 185.21 325.21 195.72"
/>
<path stroke="#e8e8e9" vector-effect="non-scaling-stroke" d="
  M 325.21 195.72
  L 306.83 251.22"
/>
<path stroke="#939394" vector-effect="non-scaling-stroke" d="
  M 306.83 251.22
  Q 305.39 240.36 298.85 232.19"
/>
<path stroke="#e8e8e9" vector-effect="non-scaling-stroke" d="
  M 298.85 232.19
  L 310.92 195.95
  Q 311.18 195.16 310.36 195.05
  Q 301.62 193.92 292.63 196.61"
/>
<path stroke="#939394" vector-effect="non-scaling-stroke" d="
  M 292.63 196.61
  C 295.24 191.63 301.08 182.05 302.81 174.41
  A 0.90 0.90 0.0 0 0 302.51 173.51
  Q 296.36 168.24 288.73 165.40"
/>
<path stroke="#e8e8e9" vector-effect="non-scaling-stroke" d="
  M 288.73 165.40
  Q 289.79 164.62 288.40 163.07
  Q 279.67 153.36 254.67 126.40
  Q 254.19 125.88 253.71 126.40
  L 203.96 180.44
  Q 203.49 180.94 204.18 180.95
  L 221.02 181.13"
/>
<path stroke="#939394" vector-effect="non-scaling-stroke" d="
  M 221.02 181.13
  Q 217.61 187.80 216.16 194.71"
/>
<path stroke="#e8e8e9" vector-effect="non-scaling-stroke" d="
  M 216.16 194.71
  L 197.90 194.94
  Q 197.33 194.95 197.50 195.49
  Q 205.68 221.20 214.09 246.84
  Q 215.28 250.46 217.60 253.53"
/>
<path stroke="#939394" vector-effect="non-scaling-stroke" d="
  M 217.60 253.53
  L 207.63 270.11"
/>
<path stroke="#e8e8e9" vector-effect="non-scaling-stroke" d="
  M 207.63 270.11
  L 185.34 202.31"
/>
<path stroke="#939394" vector-effect="non-scaling-stroke" d="
  M 185.34 202.31
  Q 184.84 195.46 183.50 190.00
  Q 180.85 179.16 173.17 172.08"
/>
<path stroke="#e8e8e9" vector-effect="non-scaling-stroke" d="
  M 173.17 172.08
  L 154.90 127.88
  A 0.48 0.48 0.0 0 0 154.10 127.74
  L 121.66 162.23"
/>
<path stroke="#939394" vector-effect="non-scaling-stroke" d="
  M 121.66 162.23
  L 103.19 162.05"
/>
<path stroke="#aaaaaa" vector-effect="non-scaling-stroke" d="
  M 386.56 162.37
  C 382.22 162.29 377.86 161.75 374.15 161.75
  Q 357.22 161.75 340.21 161.75"
/>
<path stroke="#aaaaaa" vector-effect="non-scaling-stroke" d="
  M 288.73 165.40
  C 263.99 155.09 236.81 157.42 221.02 181.13"
/>
<path stroke="#e8e8e9" vector-effect="non-scaling-stroke" d="
  M 211.23 283.88
  Q 216.04 295.08 219.59 306.37
  C 225.34 324.66 231.39 342.85 237.30 361.13
  Q 238.16 363.79 236.41 361.61
  L 207.11 325.10"
/>
<path stroke="#c3c3c3" vector-effect="non-scaling-stroke" d="
  M 207.11 325.10
  C 214.73 324.09 219.13 318.57 217.44 311.05
  C 215.66 303.11 207.91 302.54 200.97 303.34
  Q 200.50 303.40 200.49 303.87
  L 200.41 317.47"
/>
<path stroke="#e8e8e9" vector-effect="non-scaling-stroke" d="
  M 200.41 317.47
  Q 197.27 312.03 193.56 309.32
  A 1.01 1.01 0.0 0 1 194.21 307.49
  L 195.20 307.54
  Q 195.67 307.56 195.67 307.09
  L 195.64 304.27"
/>
<path stroke="#c3c3c3" vector-effect="non-scaling-stroke" d="
  M 195.64 304.27
  Q 195.29 302.69 189.43 303.15"
/>
<path stroke="#e8e8e9" vector-effect="non-scaling-stroke" d="
  M 189.43 303.15
  L 175.22 285.02"
/>
<path stroke="#aaaaaa" vector-effect="non-scaling-stroke" d="
  M 185.34 202.31
  Q 184.43 216.11 177.39 225.83
  A 1.49 1.49 0.0 0 0 177.54 227.76
  C 193.33 243.61 193.33 270.54 175.22 285.02"
/>
<path stroke="#939394" vector-effect="non-scaling-stroke" d="
  M 175.22 285.02
  Q 169.29 289.31 162.21 291.69"
/>
<path stroke="#939394" vector-effect="non-scaling-stroke" d="
  M 91.35 203.67
  L 91.33 175.05"
/>
<path stroke="#e8e8e9" vector-effect="non-scaling-stroke" d="
  M 326.08 292.31
  Q 323.86 299.32 317.71 303.47"
/>
<path stroke="#c3c3c3" vector-effect="non-scaling-stroke" d="
  M 317.71 303.47
  L 307.90 303.39
  Q 307.31 303.39 307.30 303.98
  L 307.10 318.30"
/>
<path stroke="#e8e8e9" vector-effect="non-scaling-stroke" d="
  M 307.10 318.30
  Q 304.67 320.99 302.52 320.48"
/>
<path stroke="#c3c3c3" vector-effect="non-scaling-stroke" d="
  M 302.52 320.48
  L 296.46 320.46
  Q 295.92 320.46 295.94 319.92
  L 296.10 316.93
  Q 296.12 316.47 296.58 316.40
  L 300.78 315.77
  Q 301.50 315.66 301.50 314.92
  L 301.50 312.81
  Q 301.50 312.11 300.80 312.03
  L 296.50 311.56
  Q 296.00 311.50 296.00 311.00
  L 296.00 308.11
  Q 296.00 307.47 296.64 307.44
  L 301.76 307.18
  A 0.47 0.46 -90.0 0 0 302.20 306.73
  L 302.38 303.81
  Q 302.41 303.22 301.82 303.21
  L 292.40 302.97
  Q 291.50 302.95 291.50 303.85
  L 291.50 324.22
  Q 291.50 324.65 291.92 324.66
  L 301.63 324.90"
/>
<path stroke="#e8e8e9" vector-effect="non-scaling-stroke" d="
  M 301.63 324.90
  L 272.57 360.71
  Q 270.69 363.03 271.59 360.19
  L 289.00 305.63
  Q 289.13 305.20 289.06 304.76
  Q 288.87 303.64 289.79 303.08
  A 1.12 1.09 -8.0 0 0 290.26 302.47
  L 294.81 288.07
  Q 294.98 287.52 295.39 287.14
  Q 297.02 285.61 295.28 283.42"
/>
<path stroke="#939394" vector-effect="non-scaling-stroke" d="
  M 374.00 260.24
  L 366.32 248.90
  A 0.72 0.71 -13.9 0 0 365.78 248.58
  L 362.64 248.33
  Q 362.07 248.28 362.07 248.85
  L 362.09 270.90"
/>
<path stroke="#939394" vector-effect="non-scaling-stroke" d="
  M 342.02 295.05
  C 337.70 294.78 328.49 295.97 326.08 292.31"
/>
<path stroke="#aaaaaa" vector-effect="non-scaling-stroke" d="
  M 326.08 292.31
  Q 325.53 289.23 325.52 286.25
  Q 325.35 242.53 325.58 198.81
  Q 325.59 197.85 325.21 195.72"
/>
<path stroke="#aaaaaa" vector-effect="non-scaling-stroke" d="
  M 173.17 172.08
  C 156.89 160.49 139.46 161.95 121.66 162.23"
/>
<path stroke="#aaaaaa" vector-effect="non-scaling-stroke" d="
  M 292.63 196.61
  C 291.52 198.47 289.65 202.70 286.82 201.43
  C 276.87 196.97 269.59 192.62 258.09 193.83
  C 253.79 194.28 248.85 198.99 252.67 202.83
  C 258.43 208.60 268.09 211.99 275.60 215.34
  Q 288.86 221.26 298.85 232.19"
/>
<path stroke="#aaaaaa" vector-effect="non-scaling-stroke" d="
  M 306.83 251.22
  Q 307.03 270.35 295.28 283.42"
/>
<path stroke="#939394" vector-effect="non-scaling-stroke" d="
  M 295.28 283.42
  Q 287.82 290.16 278.38 293.51"
/>
<path stroke="#aaaaaa" vector-effect="non-scaling-stroke" d="
  M 278.38 293.51
  Q 254.57 300.85 229.78 292.80"
/>
<path stroke="#939394" vector-effect="non-scaling-stroke" d="
  M 229.78 292.80
  Q 220.69 289.51 211.23 283.88"
/>
<path stroke="#aaaaaa" vector-effect="non-scaling-stroke" d="
  M 211.23 283.88
  C 204.80 278.66 203.06 278.40 207.63 270.11"
/>
<path stroke="#aaaaaa" vector-effect="non-scaling-stroke" d="
  M 217.60 253.53
  Q 219.37 249.85 222.27 248.66
  Q 222.78 248.45 223.24 248.76
  C 232.63 255.14 241.42 261.07 249.25 262.50
  C 254.68 263.48 269.30 263.27 267.31 253.85
  C 266.03 247.77 246.10 239.61 240.49 236.72
  C 224.09 228.30 213.52 213.98 216.16 194.71"
/>
<path stroke="#acacac" vector-effect="non-scaling-stroke" d="
  M 189.43 303.15
  Q 187.66 302.70 185.42 303.54
  Q 184.91 303.73 184.92 304.28
  L 185.08 321.54"
/>
<path stroke="#acacac" vector-effect="non-scaling-stroke" d="
  M 173.65 311.07
  Q 171.75 310.13 172.32 308.26
  Q 172.48 307.73 172.98 307.52
  Q 175.44 306.45 177.81 307.66
  A 0.54 0.54 0.0 0 0 178.57 307.34
  L 179.46 304.47
  Q 179.61 303.98 179.14 303.78
  Q 174.68 301.89 170.96 304.16"
/>
<path stroke="#e8e8e9" vector-effect="non-scaling-stroke" d="
  M 229.78 292.80
  L 232.34 302.07
  Q 232.46 302.52 232.37 302.97
  Q 232.29 303.37 232.29 303.76
  Q 232.30 304.11 233.05 304.00"
/>
<path stroke="#acacac" vector-effect="non-scaling-stroke" d="
  M 233.05 304.00
  C 228.28 308.18 230.12 313.89 235.81 315.68
  C 237.23 316.12 238.44 316.76 238.71 318.13
  A 1.96 1.96 0.0 0 1 237.02 320.46
  Q 233.85 320.83 230.97 319.53
  Q 230.52 319.32 230.43 319.82
  C 229.43 325.72 236.39 325.54 239.96 324.65"
/>
<path stroke="#e8e8e9" vector-effect="non-scaling-stroke" d="
  M 239.96 324.65
  Q 243.86 339.15 249.85 353.83"
/>
<path stroke="#a3a3a3" vector-effect="non-scaling-stroke" d="
  M 249.85 353.83
  Q 246.41 362.36 241.52 371.89
  C 240.90 373.11 239.30 374.88 238.19 375.19
  Q 233.80 376.39 230.87 376.17"
/>
<path stroke="#acacac" vector-effect="non-scaling-stroke" d="
  M 189.82 325.15
  L 195.57 324.66
  Q 196.17 324.61 196.11 324.02
  L 195.82 321.07
  Q 195.78 320.63 195.33 320.62
  L 189.99 320.59
  Q 189.13 320.59 189.14 319.73
  L 189.18 317.00
  Q 189.19 316.42 189.76 316.31
  L 193.76 315.50
  A 1.82 1.82 0.0 0 0 193.26 311.90
  Q 191.53 312.03 189.83 311.55
  A 0.79 0.79 0.0 0 1 189.25 310.79
  L 189.25 308.22
  Q 189.25 307.59 189.88 307.52
  Q 193.09 307.14 195.64 304.27"
/>
<path stroke="#acacac" vector-effect="non-scaling-stroke" d="
  M 200.41 317.47
  L 200.55 324.06
  Q 200.56 324.68 201.18 324.72
  L 207.11 325.10"
/>
<path stroke="#acacac" vector-effect="non-scaling-stroke" d="
  M 337.54 303.07
  L 335.52 303.31
  Q 334.88 303.39 335.03 304.02
  Q 335.31 305.16 334.97 305.81"
/>
<path stroke="#acacac" vector-effect="non-scaling-stroke" d="
  M 321.62 323.07
  L 318.82 316.47
  A 0.78 0.78 0.0 0 1 319.04 315.57
  C 323.38 311.88 323.49 305.71 317.71 303.47"
/>
<path stroke="#acacac" vector-effect="non-scaling-stroke" d="
  M 301.63 324.90
  Q 303.65 323.95 302.52 320.48"
/>
<path stroke="#acacac" vector-effect="non-scaling-stroke" d="
  M 307.10 318.30
  C 307.44 321.22 305.53 325.16 310.40 324.66
  Q 311.37 324.56 311.42 323.58
  L 311.70 317.90
  A 1.28 1.28 0.0 0 1 314.05 317.27
  L 318.83 324.75"
/>
<path stroke="#a3a3a3" vector-effect="non-scaling-stroke" d="
  M 277.39 376.10
  Q 269.12 376.90 265.82 369.68
  Q 261.95 361.22 258.74 354.09"
/>
<path stroke="#e8e8e9" vector-effect="non-scaling-stroke" d="
  M 258.74 354.09
  L 268.52 325.08
  A 0.46 0.46 0.0 0 0 268.24 324.50
  Q 268.00 324.41 267.75 324.56"
/>
<path stroke="#acacac" vector-effect="non-scaling-stroke" d="
  M 267.75 324.56
  L 267.78 323.77"
/>
<path stroke="#e8e8e9" vector-effect="non-scaling-stroke" d="
  M 267.78 323.77
  Q 269.00 323.92 269.60 322.33
  Q 271.70 316.72 272.89 311.08"
/>
<path stroke="#acacac" vector-effect="non-scaling-stroke" d="
  M 272.89 311.08
  L 279.00 324.93
  A 0.53 0.53 0.0 0 0 279.97 324.92
  L 288.75 303.47
  Q 288.94 303.01 288.45 302.92
  C 282.24 301.75 281.32 309.34 279.73 313.58
  A 0.43 0.43 0.0 0 1 278.93 313.60
  L 274.58 303.51"
/>
<path stroke="#e8e8e9" vector-effect="non-scaling-stroke" d="
  M 274.58 303.51
  Q 278.22 299.95 278.38 293.51"
/>
<path stroke="#c3c3c3" vector-effect="non-scaling-stroke" d="
  M 274.58 303.51
  Q 272.62 302.69 270.89 303.38
  Q 270.39 303.58 270.56 304.09
  L 272.89 311.08"
/>
<path stroke="#c3c3c3" vector-effect="non-scaling-stroke" d="
  M 267.78 323.77
  L 267.73 320.99
  Q 267.73 320.57 267.30 320.56
  L 261.80 320.37
  Q 261.27 320.35 261.25 319.82
  L 260.79 303.69
  Q 260.77 303.06 260.13 303.11
  L 257.32 303.32
  Q 256.75 303.36 256.75 303.93
  L 256.75 324.01
  Q 256.75 324.54 257.27 324.62
  Q 262.54 325.45 267.75 324.56"
/>
<path stroke="#bababa" vector-effect="non-scaling-stroke" d="
  M 258.74 354.09
  L 254.81 344.69
  A 0.31 0.31 0.0 0 0 254.25 344.67
  L 249.85 353.83"
/>
<path stroke="#c3c3c3" vector-effect="non-scaling-stroke" d="
  M 239.96 324.65
  Q 246.07 319.57 241.66 314.51
  C 239.35 311.87 234.60 312.40 235.36 307.73
  Q 235.45 307.15 236.04 307.18
  L 241.22 307.48
  Q 241.50 307.49 241.50 307.21
  Q 241.50 305.64 241.50 304.07
  Q 241.50 303.52 240.96 303.37
  Q 236.66 302.18 233.05 304.00"
/>
<path stroke="#acacac" vector-effect="non-scaling-stroke" d="
  M 180.66 319.18
  L 177.92 324.08"
/>
<path stroke="#c3c3c3" vector-effect="non-scaling-stroke" d="
  M 158.44 320.34
  Q 155.07 321.00 152.13 319.38
  A 0.41 0.41 0.0 0 0 151.53 319.72
  L 151.41 322.50
  Q 151.39 323.08 151.87 323.39
  C 162.46 330.18 170.31 314.99 156.91 311.24
  A 0.76 0.76 0.0 0 1 156.36 310.50
  L 156.39 307.86
  A 0.71 0.71 0.0 0 1 157.16 307.15
  L 162.41 307.55
  Q 162.83 307.58 162.78 307.17
  L 162.45 304.07
  Q 162.41 303.66 162.01 303.53
  Q 155.49 301.28 152.32 306.46
  C 149.15 311.64 155.25 315.19 158.89 317.02
  A 1.77 1.77 0.0 0 1 158.44 320.34"
/>
<path stroke="#c3c3c3" vector-effect="non-scaling-stroke" d="
  M 115.35 313.37
  C 120.33 302.98 109.55 301.62 102.83 303.63
  A 0.72 0.71 81.9 0 0 102.32 304.32
  L 102.22 324.21
  Q 102.22 324.79 102.81 324.78
  C 108.22 324.69 116.78 326.52 116.67 318.08
  Q 116.65 316.72 115.37 314.27
  Q 115.13 313.82 115.35 313.37"
/>
<path stroke="#c3c3c3" vector-effect="non-scaling-stroke" d="
  M 141.14 307.91
  A 0.34 0.34 0.0 0 1 141.45 307.56
  L 146.87 307.20
  A 0.34 0.34 0.0 0 0 147.18 306.90
  L 147.60 303.29
  A 0.34 0.34 0.0 0 0 147.26 302.91
  L 136.83 303.25
  A 0.34 0.34 0.0 0 0 136.50 303.59
  L 136.50 324.56
  A 0.34 0.34 0.0 0 0 136.84 324.90
  L 147.73 324.87
  A 0.34 0.34 0.0 0 0 148.06 324.49
  L 147.63 320.81
  A 0.34 0.34 0.0 0 0 147.29 320.51
  L 141.58 320.49
  A 0.34 0.34 0.0 0 1 141.24 320.15
  L 141.24 317.01
  A 0.34 0.34 0.0 0 1 141.52 316.68
  L 146.32 315.77
  A 0.34 0.34 0.0 0 0 146.59 315.40
  L 146.32 312.17
  A 0.34 0.34 0.0 0 0 146.02 311.86
  L 141.61 311.47
  A 0.34 0.34 0.0 0 1 141.30 311.15
  L 141.14 307.91"
/>
<path stroke="#c3c3c3" vector-effect="non-scaling-stroke" d="
  M 132.16 321.07
  A 0.34 0.34 0.0 0 0 131.85 320.77
  L 125.79 320.41
  A 0.34 0.34 0.0 0 1 125.47 320.07
  L 125.51 303.59
  A 0.34 0.34 0.0 0 0 125.17 303.25
  L 121.85 303.25
  A 0.34 0.34 0.0 0 0 121.51 303.59
  L 121.48 324.48
  A 0.34 0.34 0.0 0 0 121.83 324.82
  L 132.20 324.59
  A 0.34 0.34 0.0 0 0 132.53 324.21
  L 132.16 321.07"
/>
<path stroke="#bababa" vector-effect="non-scaling-stroke" d="
  M 413.10 319.89
  L 413.30 316.45
  Q 413.32 315.96 413.81 315.95
  L 417.10 315.90
  A 2.03 2.03 0.0 0 0 417.03 311.84
  L 413.82 311.89
  A 0.60 0.60 0.0 0 1 413.21 311.33
  L 412.99 308.01
  A 0.70 0.69 -2.3 0 1 413.68 307.27
  L 418.63 307.17
  A 0.62 0.62 0.0 0 0 419.24 306.55
  L 419.27 303.76
  Q 419.27 303.18 418.69 303.19
  L 409.67 303.39
  Q 409.00 303.41 409.00 304.08
  L 409.00 324.29
  Q 409.00 324.83 409.54 324.82
  L 419.29 324.57
  Q 420.14 324.55 420.06 323.71
  L 419.84 321.43
  A 0.65 0.65 0.0 0 0 419.23 320.84
  L 413.63 320.48
  Q 413.07 320.45 413.10 319.89"
/>
<path stroke="#aaaaaa" vector-effect="non-scaling-stroke" d="
  M 354.17 317.57
  C 354.47 323.82 361.55 327.03 366.32 323.01
  C 370.31 319.65 368.99 308.96 369.07 304.07
  Q 369.08 303.50 368.51 303.50
  L 366.26 303.50
  Q 365.74 303.50 365.74 304.02
  Q 365.75 309.78 365.54 315.62
  C 365.39 320.05 363.06 322.46 358.65 320.06
  Q 358.23 319.83 358.17 319.36
  Q 357.14 311.78 357.60 304.13
  Q 357.64 303.50 357.00 303.50
  L 354.30 303.50
  Q 353.86 303.50 353.86 303.93
  Q 353.84 310.76 354.17 317.57"
/>
<path stroke="#bababa" vector-effect="non-scaling-stroke" d="
  M 379.02 315.67
  C 390.43 318.35 391.69 305.25 383.80 303.80
  Q 379.77 303.06 375.30 303.90
  Q 374.91 303.97 374.91 304.37
  L 374.88 324.07
  A 0.44 0.43 -0.0 0 0 375.32 324.50
  L 378.35 324.50
  Q 378.60 324.50 378.58 324.25
  L 378.12 316.42
  Q 378.06 315.44 379.02 315.67"
/>
<path stroke="#808080" vector-effect="non-scaling-stroke" d="
  M 396.75 315.51
  A 0.34 0.34 0.0 0 1 397.11 315.17
  L 402.65 315.57
  A 0.34 0.34 0.0 0 0 403.02 315.25
  L 403.14 312.84
  A 0.34 0.34 0.0 0 0 402.80 312.49
  L 397.41 312.57
  A 0.34 0.34 0.0 0 1 397.07 312.25
  L 396.85 306.79
  A 0.34 0.34 0.0 0 1 397.21 306.44
  L 402.99 306.83
  A 0.34 0.34 0.0 0 0 403.34 306.58
  L 404.03 304.13
  A 0.34 0.34 0.0 0 0 403.71 303.70
  L 394.25 303.60
  A 0.34 0.34 0.0 0 0 393.91 303.94
  L 394.00 323.95
  A 0.34 0.34 0.0 0 0 394.34 324.29
  L 403.67 324.12
  A 0.34 0.34 0.0 0 0 404.00 323.78
  L 404.00 321.59
  A 0.34 0.34 0.0 0 0 403.66 321.25
  L 397.09 321.25
  A 0.34 0.34 0.0 0 1 396.75 320.91
  L 396.75 315.51"
/>
<path stroke="#e8e8e9" vector-effect="non-scaling-stroke" d="
  M 239.30 122.02
  A 0.30 0.30 0.0 0 0 239.08 121.52
  L 167.59 121.52
  A 0.30 0.30 0.0 0 0 167.32 121.94
  L 189.81 175.34
  A 0.30 0.30 0.0 0 0 190.31 175.43
  L 239.30 122.02"
/>
<path stroke="#e8e8e9" vector-effect="non-scaling-stroke" d="
  M 317.80 175.10
  A 0.62 0.62 0.0 0 0 318.82 174.92
  L 340.92 122.42
  A 0.62 0.62 0.0 0 0 340.35 121.56
  L 270.02 121.47
  A 0.62 0.62 0.0 0 0 269.56 122.51
  L 317.80 175.10"
/>
<path stroke="#939394" vector-effect="non-scaling-stroke" d="
  M 230.86 180.81
  Q 226.49 185.39 224.08 194.45"
/>
<path stroke="#aaaaaa" vector-effect="non-scaling-stroke" d="
  M 224.08 194.45
  C 220.06 211.77 232.81 225.62 247.88 231.96
  C 257.96 236.19 278.69 243.64 274.89 258.35
  C 271.14 272.90 251.20 272.03 240.57 267.91
  Q 233.39 265.12 224.48 259.16
  Q 224.03 258.86 223.74 259.31
  L 220.47 264.20"
/>
<path stroke="#939394" vector-effect="non-scaling-stroke" d="
  M 220.47 264.20
  L 213.71 275.52
  Q 213.43 275.99 213.88 276.31
  Q 220.28 280.83 227.46 283.76"
/>
<path stroke="#aaaaaa" vector-effect="non-scaling-stroke" d="
  M 227.46 283.76
  C 244.02 290.48 267.39 292.44 283.38 282.79"
/>
<path stroke="#939394" vector-effect="non-scaling-stroke" d="
  M 283.38 282.79
  C 296.60 275.33 303.51 255.56 295.86 241.78"
/>
<path stroke="#aaaaaa" vector-effect="non-scaling-stroke" d="
  M 295.86 241.78
  C 287.21 227.52 273.08 222.80 258.58 216.41
  C 249.70 212.49 240.68 205.94 244.84 194.73"
/>
<path stroke="#939394" vector-effect="non-scaling-stroke" d="
  M 244.84 194.73
  C 251.94 179.48 274.66 186.58 285.30 192.27
  Q 285.78 192.53 286.03 192.05
  L 292.41 179.67"
/>
<path stroke="#aaaaaa" vector-effect="non-scaling-stroke" d="
  M 292.41 179.67
  Q 293.29 178.26 293.48 176.81
  Q 293.55 176.29 293.10 176.03
  C 273.30 164.97 247.45 161.87 230.86 180.81"
/>
<path stroke="#e8e8e9" vector-effect="non-scaling-stroke" d="
  M 292.41 179.67
  Q 291.02 179.96 289.76 180.87
  Q 289.36 181.16 288.86 181.16
  L 230.86 180.81"
/>
<path stroke="#e8e8e9" vector-effect="non-scaling-stroke" d="
  M 244.84 194.73
  L 224.08 194.45"
/>
<path stroke="#e8e8e9" vector-effect="non-scaling-stroke" d="
  M 295.86 241.78
  L 283.56 279.04
  A 1.94 1.93 78.0 0 1 283.01 279.89
  Q 281.62 281.16 283.38 282.79"
/>
<path stroke="#e8e8e9" vector-effect="non-scaling-stroke" d="
  M 227.46 283.76
  Q 221.99 274.94 220.47 264.20"
/>
<path stroke="#939394" vector-effect="non-scaling-stroke" d="
  M 333.23 181.09
  L 333.25 194.53"
/>
<path stroke="#aaaaaa" vector-effect="non-scaling-stroke" d="
  M 333.25 194.53
  L 333.65 285.16"
/>
<path stroke="#939394" vector-effect="non-scaling-stroke" d="
  M 333.65 285.16
  Q 333.29 285.76 333.57 286.34
  A 0.86 0.86 0.0 0 0 334.33 286.83
  L 350.43 287.20"
/>
<path stroke="#aaaaaa" vector-effect="non-scaling-stroke" d="
  M 350.43 287.20
  L 353.56 287.20
  Q 354.18 287.20 354.17 286.59
  L 354.10 280.75"
/>
<path stroke="#939394" vector-effect="non-scaling-stroke" d="
  M 354.10 280.75
  L 353.93 260.80"
/>
<path stroke="#aaaaaa" vector-effect="non-scaling-stroke" d="
  M 353.93 260.80
  Q 354.45 254.21 354.34 245.74
  C 354.25 238.52 364.60 240.65 369.27 240.90"
/>
<path stroke="#939394" vector-effect="non-scaling-stroke" d="
  M 369.27 240.90
  Q 370.21 241.10 370.69 241.81
  Q 374.29 247.22 377.93 252.46"
/>
<path stroke="#aaaaaa" vector-effect="non-scaling-stroke" d="
  M 377.93 252.46
  L 400.21 286.18
  Q 400.97 287.33 402.35 287.32
  L 422.25 287.07
  Q 422.92 287.06 422.55 286.49
  Q 409.17 265.90 395.58 245.43
  Q 393.96 242.98 392.80 240.17
  A 1.01 1.00 49.9 0 1 392.87 239.29
  Q 394.07 237.31 395.53 236.53
  Q 412.73 227.48 413.94 207.19"
/>
<path stroke="#939394" vector-effect="non-scaling-stroke" d="
  M 413.94 207.19
  Q 415.33 195.84 409.69 185.56
  Q 408.07 182.61 404.92 179.77"
/>
<path stroke="#aaaaaa" vector-effect="non-scaling-stroke" d="
  M 404.92 179.77
  C 394.28 170.36 383.39 169.41 370.00 169.28
  Q 352.02 169.10 334.06 169.58
  Q 333.58 169.59 333.57 170.07
  L 333.23 181.09"
/>
<path stroke="#e8e8e9" vector-effect="non-scaling-stroke" d="
  M 404.92 179.77
  Q 401.04 181.21 394.25 181.24
  Q 363.80 181.40 333.23 181.09"
/>
<path stroke="#e8e8e9" vector-effect="non-scaling-stroke" d="
  M 413.94 207.19
  Q 397.40 227.05 382.10 246.59
  Q 380.83 248.21 377.93 252.46"
/>
<path stroke="#e8e8e9" vector-effect="non-scaling-stroke" d="
  M 369.27 240.90
  Q 379.59 228.20 383.56 223.56
  Q 385.65 221.13 385.29 219.63"
/>
<path stroke="#939394" vector-effect="non-scaling-stroke" d="
  M 385.29 219.63
  L 390.31 213.63"
/>
<path stroke="#e8e8e9" vector-effect="non-scaling-stroke" d="
  M 390.31 213.63
  Q 399.22 205.05 405.56 195.27
  A 0.35 0.35 0.0 0 0 405.27 194.73
  L 388.96 194.63"
/>
<path stroke="#939394" vector-effect="non-scaling-stroke" d="
  M 388.96 194.63
  C 381.88 184.81 369.39 183.73 358.19 184.72
  C 353.49 185.13 354.11 190.78 354.26 194.44"
/>
<path stroke="#e8e8e9" vector-effect="non-scaling-stroke" d="
  M 354.26 194.44
  L 333.25 194.53"
/>
<path stroke="#e8e8e9" vector-effect="non-scaling-stroke" d="
  M 353.93 260.80
  Q 342.90 272.87 333.65 285.16"
/>
<path stroke="#aaaaaa" vector-effect="non-scaling-stroke" d="
  M 388.96 194.63
  Q 393.56 202.80 390.31 213.63"
/>
<path stroke="#aaaaaa" vector-effect="non-scaling-stroke" d="
  M 385.29 219.63
  Q 378.87 224.28 370.50 225.03
  C 366.61 225.39 354.28 227.33 354.27 221.44
  Q 354.23 207.71 354.26 194.44"
/>
<path stroke="#e8e8e9" vector-effect="non-scaling-stroke" d="
  M 354.10 280.75
  Q 351.02 283.73 350.43 287.20"
/>
<path stroke="#aaaaaa" vector-effect="non-scaling-stroke" d="
  M 99.05 212.37
  L 99.05 286.12
  Q 99.05 287.25 100.18 287.25
  Q 120.13 287.27 140.94 287.21
  Q 148.48 287.19 156.64 285.40"
/>
<path stroke="#939394" vector-effect="non-scaling-stroke" d="
  M 156.64 285.40
  Q 164.08 283.72 170.34 279.23"
/>
<path stroke="#aaaaaa" vector-effect="non-scaling-stroke" d="
  M 170.34 279.23
  C 179.44 272.61 182.73 261.13 181.01 250.25
  C 179.52 240.80 175.01 236.33 168.87 230.45
  C 167.28 228.93 166.16 226.79 167.79 225.01
  Q 179.81 211.91 176.74 194.94"
/>
<path stroke="#939394" vector-effect="non-scaling-stroke" d="
  M 176.74 194.94
  Q 175.53 186.55 171.09 181.30"
/>
<path stroke="#aaaaaa" vector-effect="non-scaling-stroke" d="
  M 171.09 181.30
  C 164.74 172.75 153.38 170.02 143.50 169.99
  Q 128.15 169.93 113.97 170.05"
/>
<path stroke="#939394" vector-effect="non-scaling-stroke" d="
  M 113.97 170.05
  L 99.76 170.01
  A 0.75 0.75 0.0 0 0 99.01 170.76
  L 99.05 212.37"
/>
<path stroke="#e8e8e9" vector-effect="non-scaling-stroke" d="
  M 113.97 170.05
  L 104.01 180.53
  A 0.43 0.43 0.0 0 0 104.32 181.26
  L 171.09 181.30"
/>
<path stroke="#e8e8e9" vector-effect="non-scaling-stroke" d="
  M 176.74 194.94
  Q 164.44 194.30 152.00 195.33"
/>
<path stroke="#939394" vector-effect="non-scaling-stroke" d="
  M 152.00 195.33
  Q 149.14 187.88 140.50 185.74
  Q 133.02 183.89 124.86 184.57
  C 120.43 184.93 121.22 191.14 121.38 194.84"
/>
<path stroke="#e8e8e9" vector-effect="non-scaling-stroke" d="
  M 121.38 194.84
  L 102.51 194.81
  A 0.45 0.45 0.0 0 0 102.15 195.52
  Q 102.51 196.02 103.03 196.26
  Q 103.52 196.48 103.85 196.89
  L 121.32 218.76"
/>
<path stroke="#939394" vector-effect="non-scaling-stroke" d="
  M 121.32 218.76
  Q 122.19 222.80 125.17 222.92"
/>
<path stroke="#e8e8e9" vector-effect="non-scaling-stroke" d="
  M 125.17 222.92
  Q 123.70 223.23 125.13 224.15
  Q 125.67 224.50 125.96 224.78
  Q 130.38 229.02 132.80 234.44"
/>
<path stroke="#939394" vector-effect="non-scaling-stroke" d="
  M 132.80 234.44
  C 127.74 234.52 122.51 232.99 121.09 239.60"
/>
<path stroke="#e8e8e9" vector-effect="non-scaling-stroke" d="
  M 121.09 239.60
  L 99.05 212.37"
/>
<path stroke="#939394" vector-effect="non-scaling-stroke" d="
  M 156.12 261.31
  Q 153.30 268.65 145.32 271.18"
/>
<path stroke="#aaaaaa" vector-effect="non-scaling-stroke" d="
  M 121.09 239.60
  Q 121.47 252.88 121.53 267.53
  C 121.55 273.28 123.41 273.10 128.38 273.18
  Q 137.11 273.33 145.32 271.18"
/>
<path stroke="#e8e8e9" vector-effect="non-scaling-stroke" d="
  M 145.32 271.18
  Q 152.49 277.22 156.64 285.40"
/>
<path stroke="#aaaaaa" vector-effect="non-scaling-stroke" d="
  M 152.00 195.33
  C 155.11 205.73 153.04 218.81 140.74 221.70
  Q 133.82 223.33 125.17 222.92"
/>
<path stroke="#aaaaaa" vector-effect="non-scaling-stroke" d="
  M 121.32 218.76
  L 121.38 194.84"
/>
<path stroke="#e8e8e9" vector-effect="non-scaling-stroke" d="
  M 170.34 279.23
  L 156.12 261.31"
/>
<path stroke="#aaaaaa" vector-effect="non-scaling-stroke" d="
  M 156.12 261.31
  C 160.64 249.13 154.04 239.21 141.99 236.33
  Q 136.78 235.09 132.80 234.44"
/>
<path stroke="#aaaaaa" vector-effect="non-scaling-stroke" d="
  M 129.14 194.69
  L 129.17 214.60
  Q 129.17 215.10 129.67 215.17
  C 142.36 216.95 149.16 209.38 144.57 197.08"
/>
<path stroke="#939394" vector-effect="non-scaling-stroke" d="
  M 144.57 197.08
  C 142.46 192.11 134.35 191.90 129.87 192.33
  Q 129.32 192.38 129.28 192.93
  L 129.14 194.69"
/>
<path stroke="#e8e8e9" vector-effect="non-scaling-stroke" d="
  M 144.57 197.08
  Q 137.55 193.76 129.14 194.69"
/>
<path stroke="#aaaaaa" vector-effect="non-scaling-stroke" d="
  M 362.08 194.32
  L 362.08 216.74
  Q 362.08 217.21 362.54 217.29
  C 370.89 218.77 382.89 216.79 383.94 206.77
  Q 384.73 199.25 379.02 195.18"
/>
<path stroke="#939394" vector-effect="non-scaling-stroke" d="
  M 379.02 195.18
  Q 370.92 191.18 362.49 192.62
  Q 361.96 192.71 362.00 193.24
  L 362.08 194.32"
/>
<path stroke="#e8e8e9" vector-effect="non-scaling-stroke" d="
  M 379.02 195.18
  L 362.08 194.32"
/>
<path stroke="#aaaaaa" vector-effect="non-scaling-stroke" d="
  M 129.11 250.05
  L 129.31 264.79
  Q 129.31 265.36 129.89 265.41
  Q 134.92 265.86 140.48 264.55"
/>
<path stroke="#939394" vector-effect="non-scaling-stroke" d="
  M 140.48 264.55
  Q 148.38 263.18 149.59 256.16
  C 151.60 244.50 137.84 242.32 129.92 242.50
  A 0.58 0.58 0.0 0 0 129.35 243.06
  L 129.11 250.05"
/>
<path stroke="#e8e8e9" vector-effect="non-scaling-stroke" d="
  M 140.48 264.55
  L 129.11 250.05"
/>
<path stroke="#c3c3c3" vector-effect="non-scaling-stroke" d="
  M 251.4841 303.7327
  A 0.46 0.46 0.0 0 0 251.0225 303.2743
  L 247.7426 303.2858
  A 0.46 0.46 0.0 0 0 247.2842 303.7474
  L 247.3559 324.2873
  A 0.46 0.46 0.0 0 0 247.8175 324.7457
  L 251.0974 324.7342
  A 0.46 0.46 0.0 0 0 251.5558 324.2726
  L 251.4841 303.7327"
/>
<path stroke="#c3c3c3" vector-effect="non-scaling-stroke" d="
  M 112.0662 308.5896
  A 1.50 1.50 0.0 0 0 110.4972 307.1620
  L 107.5005 307.3033
  A 1.50 1.50 0.0 0 0 106.0728 308.8723
  L 106.1538 310.5904
  A 1.50 1.50 0.0 0 0 107.7228 312.0180
  L 110.7195 311.8767
  A 1.50 1.50 0.0 0 0 112.1472 310.3077
  L 112.0662 308.5896"
/>
<path stroke="#c3c3c3" vector-effect="non-scaling-stroke" d="
  M 106.03 317.02
  L 106.03 319.60
  A 1.08 1.08 0.0 0 0 107.12 320.68
  L 110.07 320.67
  A 2.61 2.23 -0.2 0 0 112.67 318.43
  L 112.67 318.15
  A 2.61 2.23 -0.2 0 0 110.05 315.93
  L 107.10 315.94
  A 1.08 1.08 0.0 0 0 106.03 317.02"
/>
<path stroke="#c3c3c3" vector-effect="non-scaling-stroke" d="
  M 204.83 308.52
  L 204.87 319.42
  A 1.05 1.05 0.0 0 0 205.92 320.47
  L 206.65 320.47
  A 6.64 6.24 -0.2 0 0 213.27 314.21
  L 213.27 313.69
  A 6.64 6.24 -0.2 0 0 206.61 307.47
  L 205.88 307.47
  A 1.05 1.05 0.0 0 0 204.83 308.52"
/>
<path stroke="#acacac" vector-effect="non-scaling-stroke" d="
  M 311.37 307.64
  L 311.35 311.44
  A 0.70 0.70 0.0 0 0 312.05 312.14
  L 313.08 312.14
  A 4.89 2.45 0.2 0 0 317.98 309.71
  L 317.98 309.41
  A 4.89 2.45 0.2 0 0 313.10 306.94
  L 312.07 306.94
  A 0.70 0.70 0.0 0 0 311.37 307.64"
/>
<path stroke="#c3c3c3" vector-effect="non-scaling-stroke" d="
  M 339.24 308.31
  L 339.22 311.13
  A 1.01 1.01 0.0 0 0 340.23 312.15
  L 342.73 312.16
  A 2.71 2.20 0.3 0 0 345.45 309.98
  L 345.45 309.54
  A 2.71 2.20 0.3 0 0 342.75 307.32
  L 340.25 307.31
  A 1.01 1.01 0.0 0 0 339.24 308.31"
/>
<path stroke="#bababa" vector-effect="non-scaling-stroke" d="
  M 378.17 308.11
  L 378.19 311.59
  A 1.41 1.41 0.0 0 0 379.61 312.99
  L 382.56 312.97
  A 3.20 3.09 -0.4 0 0 385.74 309.85
  L 385.74 309.73
  A 3.20 3.09 -0.4 0 0 382.52 306.67
  L 379.57 306.69
  A 1.41 1.41 0.0 0 0 378.17 308.11"
/>
</g>
<path fill="#a6a6a6" d="
  M 248.33 0.00
  L 261.04 0.00
  C 397.53 4.44 504.83 112.33 509.00 248.58
  L 509.00 260.30
  C 504.42 397.25 397.62 504.62 260.42 509.00
  L 248.21 509.00
  C 111.36 504.64 4.36 396.81 0.00 260.42
  L 0.00 249.21
  C 3.69 111.94 111.74 4.66 248.33 0.00
  Z
  M 113.06 93.83
  Q 112.36 94.21 111.76 94.78
  Q 102.38 103.71 93.45 113.18
  Q 93.10 113.55 92.73 113.20
  L 84.10 104.86
  A 0.53 0.53 0.0 0 0 83.34 104.88
  Q 73.59 115.50 65.67 127.55
  A 0.49 0.48 33.5 0 0 65.81 128.23
  L 76.05 134.94
  Q 76.59 135.29 76.24 135.82
  Q 68.82 147.04 62.87 159.10
  A 0.79 0.79 0.0 0 1 61.79 159.45
  L 51.18 153.77
  Q 50.64 153.49 50.36 154.03
  Q 43.69 166.91 39.32 180.75
  Q 39.13 181.35 39.73 181.53
  L 50.82 184.78
  Q 51.68 185.03 51.45 185.90
  L 44.23 212.37
  Q 44.08 212.91 43.55 212.77
  L 31.98 209.76
  Q 31.54 209.64 31.44 210.09
  Q 28.47 224.33 27.64 238.84
  Q 27.61 239.50 28.26 239.50
  L 40.26 239.50
  Q 40.72 239.50 40.72 239.95
  L 40.68 267.98
  Q 40.68 268.38 40.27 268.39
  L 28.06 268.64
  Q 27.58 268.65 27.61 269.13
  Q 28.48 283.71 31.30 298.03
  A 0.58 0.58 0.0 0 0 32.00 298.48
  L 43.99 295.57
  Q 44.52 295.44 44.64 295.98
  Q 47.41 309.54 51.69 322.70
  Q 51.86 323.25 51.31 323.40
  L 39.95 326.47
  Q 39.07 326.71 39.36 327.58
  Q 43.99 341.30 50.36 354.28
  Q 50.57 354.71 50.98 354.47
  L 61.81 348.29
  A 0.55 0.54 61.6 0 1 62.56 348.52
  Q 68.63 360.84 76.22 372.28
  A 0.59 0.59 0.0 0 1 76.05 373.09
  L 65.76 379.60
  Q 65.32 379.88 65.61 380.32
  Q 73.50 392.30 83.17 402.89
  A 0.89 0.89 0.0 0 0 84.46 402.92
  L 92.51 394.85
  Q 92.91 394.46 93.30 394.85
  L 113.02 414.60
  Q 113.28 414.86 113.02 415.13
  L 104.71 423.94
  Q 104.35 424.32 104.74 424.68
  Q 115.56 434.41 127.67 442.47
  Q 128.14 442.79 128.43 442.30
  L 134.60 431.85
  Q 134.94 431.28 135.49 431.64
  Q 146.92 439.16 159.12 445.37
  A 0.80 0.79 28.4 0 1 159.45 446.46
  L 153.51 457.00
  Q 153.27 457.44 153.72 457.66
  Q 166.76 464.22 180.72 468.57
  Q 181.34 468.76 181.51 468.14
  L 184.64 457.19
  Q 184.89 456.31 185.77 456.55
  L 212.14 463.78
  A 0.56 0.56 0.0 0 1 212.53 464.46
  L 209.59 475.78
  Q 209.45 476.29 209.97 476.40
  Q 224.22 479.37 238.76 480.42
  Q 239.21 480.45 239.23 480.00
  L 239.76 467.81
  Q 239.78 467.40 240.19 467.40
  L 268.07 467.44
  A 0.39 0.38 89.2 0 1 268.45 467.82
  L 268.62 479.93
  Q 268.62 480.42 269.11 480.39
  Q 283.58 479.26 297.85 476.62
  Q 298.43 476.51 298.29 475.92
  L 295.40 464.08
  Q 295.33 463.77 295.64 463.69
  L 322.70 456.44
  A 0.40 0.39 74.2 0 1 323.18 456.71
  L 326.58 468.17
  A 0.50 0.49 -16.4 0 0 327.20 468.50
  Q 341.01 464.32 353.78 457.60
  A 0.62 0.62 0.0 0 0 354.04 456.76
  L 348.81 446.92
  A 1.32 1.31 -28.7 0 1 349.33 445.16
  L 372.59 432.03
  A 0.73 0.72 -30.2 0 1 373.57 432.28
  L 379.74 442.52
  Q 380.13 443.15 380.71 442.70
  L 403.13 425.11
  A 0.77 0.77 0.0 0 0 403.22 423.97
  L 395.23 415.37
  A 0.74 0.74 0.0 0 1 395.25 414.35
  L 414.57 394.93
  Q 414.89 394.61 415.21 394.92
  L 423.76 402.98
  Q 424.38 403.57 424.95 402.92
  Q 434.38 392.10 442.41 380.21
  Q 442.73 379.73 442.23 379.44
  L 431.83 373.44
  A 0.50 0.49 -60.5 0 1 431.65 372.77
  L 445.65 348.69
  Q 445.94 348.19 446.44 348.48
  L 456.78 354.48
  Q 457.17 354.70 457.37 354.30
  Q 463.99 341.21 468.63 327.30
  Q 468.82 326.75 468.26 326.59
  L 456.87 323.44
  Q 456.28 323.28 456.44 322.70
  L 463.60 295.91
  Q 463.72 295.47 464.16 295.58
  L 476.00 298.46
  Q 476.56 298.60 476.67 298.03
  Q 479.43 283.72 480.40 269.20
  Q 480.44 268.50 479.74 268.50
  L 467.89 268.50
  A 0.62 0.61 89.5 0 1 467.28 267.89
  L 467.17 240.29
  Q 467.17 239.75 467.71 239.73
  L 479.81 239.31
  Q 480.46 239.29 480.41 238.64
  Q 479.33 224.44 476.69 210.45
  Q 476.57 209.84 475.97 209.98
  L 464.48 212.63
  A 0.77 0.77 0.0 0 1 463.56 212.08
  L 456.49 185.97
  A 0.95 0.94 -15.8 0 1 457.14 184.81
  L 468.30 181.63
  Q 468.90 181.46 468.70 180.86
  Q 463.94 167.21 457.79 154.12
  A 0.78 0.78 0.0 0 0 456.70 153.77
  L 446.15 159.61
  Q 445.81 159.80 445.62 159.46
  L 431.66 135.28
  Q 431.46 134.93 431.81 134.72
  L 442.17 128.44
  Q 442.72 128.11 442.36 127.59
  Q 434.18 115.74 424.73 104.89
  A 0.47 0.46 47.9 0 0 424.06 104.85
  L 415.36 113.00
  Q 414.99 113.35 414.63 112.99
  L 395.21 93.60
  A 0.62 0.62 0.0 0 1 395.19 92.74
  L 403.21 84.01
  Q 403.59 83.60 403.17 83.24
  Q 392.41 73.84 380.54 65.87
  Q 379.93 65.46 379.53 66.09
  L 373.37 75.99
  Q 373.12 76.39 372.71 76.15
  L 348.87 62.39
  A 0.78 0.77 29.5 0 1 348.58 61.35
  L 353.95 51.51
  Q 354.24 50.98 353.71 50.68
  C 346.40 46.55 335.75 41.07 327.14 39.50
  Q 326.58 39.40 326.42 39.95
  L 323.25 51.25
  A 0.78 0.78 0.0 0 1 322.25 51.78
  Q 309.13 47.34 295.55 44.67
  A 0.37 0.36 12.4 0 1 295.26 44.22
  L 298.40 32.17
  A 0.70 0.70 0.0 0 0 297.85 31.30
  Q 283.55 28.52 269.02 27.57
  Q 268.59 27.55 268.58 27.97
  L 268.24 40.14
  Q 268.22 40.75 267.61 40.75
  L 240.03 40.75
  A 0.49 0.48 -0.6 0 1 239.54 40.28
  L 239.38 28.03
  Q 239.38 27.53 238.87 27.56
  Q 224.34 28.55 210.03 31.29
  Q 209.46 31.39 209.60 31.96
  L 212.60 43.88
  Q 212.77 44.57 212.07 44.71
  Q 198.55 47.41 185.48 51.79
  A 0.53 0.53 0.0 0 1 184.81 51.43
  L 181.49 39.77
  Q 181.33 39.21 180.78 39.37
  Q 166.73 43.49 153.99 50.67
  Q 153.47 50.96 153.76 51.47
  L 159.38 61.40
  A 0.69 0.69 0.0 0 1 159.13 62.34
  L 135.16 76.19
  A 0.37 0.37 0.0 0 1 134.65 76.06
  L 128.33 65.75
  A 0.55 0.55 0.0 0 0 127.55 65.59
  Q 115.72 73.90 104.77 83.35
  Q 104.39 83.69 104.73 84.06
  L 113.17 93.11
  Q 113.57 93.54 113.06 93.83
  Z"
/>
<path fill="#ffffff" d="
  M 113.17 93.11
  L 104.73 84.06
  Q 104.39 83.69 104.77 83.35
  Q 115.72 73.90 127.55 65.59
  A 0.55 0.55 0.0 0 1 128.33 65.75
  L 134.65 76.06
  A 0.37 0.37 0.0 0 0 135.16 76.19
  L 159.13 62.34
  A 0.69 0.69 0.0 0 0 159.38 61.40
  L 153.76 51.47
  Q 153.47 50.96 153.99 50.67
  Q 166.73 43.49 180.78 39.37
  Q 181.33 39.21 181.49 39.77
  L 184.81 51.43
  A 0.53 0.53 0.0 0 0 185.48 51.79
  Q 198.55 47.41 212.07 44.71
  Q 212.77 44.57 212.60 43.88
  L 209.60 31.96
  Q 209.46 31.39 210.03 31.29
  Q 224.34 28.55 238.87 27.56
  Q 239.38 27.53 239.38 28.03
  L 239.54 40.28
  A 0.49 0.48 -0.6 0 0 240.03 40.75
  L 267.61 40.75
  Q 268.22 40.75 268.24 40.14
  L 268.58 27.97
  Q 268.59 27.55 269.02 27.57
  Q 283.55 28.52 297.85 31.30
  A 0.70 0.70 0.0 0 1 298.40 32.17
  L 295.26 44.22
  A 0.37 0.36 12.4 0 0 295.55 44.67
  Q 309.13 47.34 322.25 51.78
  A 0.78 0.78 0.0 0 0 323.25 51.25
  L 326.42 39.95
  Q 326.58 39.40 327.14 39.50
  C 335.75 41.07 346.40 46.55 353.71 50.68
  Q 354.24 50.98 353.95 51.51
  L 348.58 61.35
  A 0.78 0.77 29.5 0 0 348.87 62.39
  L 372.71 76.15
  Q 373.12 76.39 373.37 75.99
  L 379.53 66.09
  Q 379.93 65.46 380.54 65.87
  Q 392.41 73.84 403.17 83.24
  Q 403.59 83.60 403.21 84.01
  L 395.19 92.74
  A 0.62 0.62 0.0 0 0 395.21 93.60
  L 414.63 112.99
  Q 414.99 113.35 415.36 113.00
  L 424.06 104.85
  A 0.47 0.46 47.9 0 1 424.73 104.89
  Q 434.18 115.74 442.36 127.59
  Q 442.72 128.11 442.17 128.44
  L 431.81 134.72
  Q 431.46 134.93 431.66 135.28
  L 445.62 159.46
  Q 445.81 159.80 446.15 159.61
  L 456.70 153.77
  A 0.78 0.78 0.0 0 1 457.79 154.12
  Q 463.94 167.21 468.70 180.86
  Q 468.90 181.46 468.30 181.63
  L 457.14 184.81
  A 0.95 0.94 -15.8 0 0 456.49 185.97
  L 463.56 212.08
  A 0.77 0.77 0.0 0 0 464.48 212.63
  L 475.97 209.98
  Q 476.57 209.84 476.69 210.45
  Q 479.33 224.44 480.41 238.64
  Q 480.46 239.29 479.81 239.31
  L 467.71 239.73
  Q 467.17 239.75 467.17 240.29
  L 467.28 267.89
  A 0.62 0.61 89.5 0 0 467.89 268.50
  L 479.74 268.50
  Q 480.44 268.50 480.40 269.20
  Q 479.43 283.72 476.67 298.03
  Q 476.56 298.60 476.00 298.46
  L 464.16 295.58
  Q 463.72 295.47 463.60 295.91
  L 456.44 322.70
  Q 456.28 323.28 456.87 323.44
  L 468.26 326.59
  Q 468.82 326.75 468.63 327.30
  Q 463.99 341.21 457.37 354.30
  Q 457.17 354.70 456.78 354.48
  L 446.44 348.48
  Q 445.94 348.19 445.65 348.69
  L 431.65 372.77
  A 0.50 0.49 -60.5 0 0 431.83 373.44
  L 442.23 379.44
  Q 442.73 379.73 442.41 380.21
  Q 434.38 392.10 424.95 402.92
  Q 424.38 403.57 423.76 402.98
  L 415.21 394.92
  Q 414.89 394.61 414.57 394.93
  L 395.25 414.35
  A 0.74 0.74 0.0 0 0 395.23 415.37
  L 403.22 423.97
  A 0.77 0.77 0.0 0 1 403.13 425.11
  L 380.71 442.70
  Q 380.13 443.15 379.74 442.52
  L 373.57 432.28
  A 0.73 0.72 -30.2 0 0 372.59 432.03
  L 349.33 445.16
  A 1.32 1.31 -28.7 0 0 348.81 446.92
  L 354.04 456.76
  A 0.62 0.62 0.0 0 1 353.78 457.60
  Q 341.01 464.32 327.20 468.50
  A 0.50 0.49 -16.4 0 1 326.58 468.17
  L 323.18 456.71
  A 0.40 0.39 74.2 0 0 322.70 456.44
  L 295.64 463.69
  Q 295.33 463.77 295.40 464.08
  L 298.29 475.92
  Q 298.43 476.51 297.85 476.62
  Q 283.58 479.26 269.11 480.39
  Q 268.62 480.42 268.62 479.93
  L 268.45 467.82
  A 0.39 0.38 89.2 0 0 268.07 467.44
  L 240.19 467.40
  Q 239.78 467.40 239.76 467.81
  L 239.23 480.00
  Q 239.21 480.45 238.76 480.42
  Q 224.22 479.37 209.97 476.40
  Q 209.45 476.29 209.59 475.78
  L 212.53 464.46
  A 0.56 0.56 0.0 0 0 212.14 463.78
  L 185.77 456.55
  Q 184.89 456.31 184.64 457.19
  L 181.51 468.14
  Q 181.34 468.76 180.72 468.57
  Q 166.76 464.22 153.72 457.66
  Q 153.27 457.44 153.51 457.00
  L 159.45 446.46
  A 0.80 0.79 28.4 0 0 159.12 445.37
  Q 146.92 439.16 135.49 431.64
  Q 134.94 431.28 134.60 431.85
  L 128.43 442.30
  Q 128.14 442.79 127.67 442.47
  Q 115.56 434.41 104.74 424.68
  Q 104.35 424.32 104.71 423.94
  L 113.02 415.13
  Q 113.28 414.86 113.02 414.60
  L 93.30 394.85
  Q 92.91 394.46 92.51 394.85
  L 84.46 402.92
  A 0.89 0.89 0.0 0 1 83.17 402.89
  Q 73.50 392.30 65.61 380.32
  Q 65.32 379.88 65.76 379.60
  L 76.05 373.09
  A 0.59 0.59 0.0 0 0 76.22 372.28
  Q 68.63 360.84 62.56 348.52
  A 0.55 0.54 61.6 0 0 61.81 348.29
  L 50.98 354.47
  Q 50.57 354.71 50.36 354.28
  Q 43.99 341.30 39.36 327.58
  Q 39.07 326.71 39.95 326.47
  L 51.31 323.40
  Q 51.86 323.25 51.69 322.70
  Q 47.41 309.54 44.64 295.98
  Q 44.52 295.44 43.99 295.57
  L 32.00 298.48
  A 0.58 0.58 0.0 0 1 31.30 298.03
  Q 28.48 283.71 27.61 269.13
  Q 27.58 268.65 28.06 268.64
  L 40.27 268.39
  Q 40.68 268.38 40.68 267.98
  L 40.72 239.95
  Q 40.72 239.50 40.26 239.50
  L 28.26 239.50
  Q 27.61 239.50 27.64 238.84
  Q 28.47 224.33 31.44 210.09
  Q 31.54 209.64 31.98 209.76
  L 43.55 212.77
  Q 44.08 212.91 44.23 212.37
  L 51.45 185.90
  Q 51.68 185.03 50.82 184.78
  L 39.73 181.53
  Q 39.13 181.35 39.32 180.75
  Q 43.69 166.91 50.36 154.03
  Q 50.64 153.49 51.18 153.77
  L 61.79 159.45
  A 0.79 0.79 0.0 0 0 62.87 159.10
  Q 68.82 147.04 76.24 135.82
  Q 76.59 135.29 76.05 134.94
  L 65.81 128.23
  A 0.49 0.48 33.5 0 1 65.67 127.55
  Q 73.59 115.50 83.34 104.88
  A 0.53 0.53 0.0 0 1 84.10 104.86
  L 92.73 113.20
  Q 93.10 113.55 93.45 113.18
  Q 102.38 103.71 111.76 94.78
  Q 112.36 94.21 113.06 93.83
  Q 113.57 93.54 113.17 93.11
  Z
  M 454.21 253.98
  A 200.37 200.37 0.0 0 0 253.84 53.61
  A 200.37 200.37 0.0 0 0 53.47 253.98
  A 200.37 200.37 0.0 0 0 253.84 454.35
  A 200.37 200.37 0.0 0 0 454.21 253.98
  Z"
/>
<path fill="#a6a6a6" d="
  M 454.21 253.98
  A 200.37 200.37 0.0 0 1 253.84 454.35
  A 200.37 200.37 0.0 0 1 53.47 253.98
  A 200.37 200.37 0.0 0 1 253.84 53.61
  A 200.37 200.37 0.0 0 1 454.21 253.98
  Z
  M 444.56 254.06
  A 190.70 190.70 0.0 0 0 253.86 63.36
  A 190.70 190.70 0.0 0 0 63.16 254.06
  A 190.70 190.70 0.0 0 0 253.86 444.76
  A 190.70 190.70 0.0 0 0 444.56 254.06
  Z"
/>
<path fill="#ffffff" d="
  M 444.56 254.06
  A 190.70 190.70 0.0 0 1 253.86 444.76
  A 190.70 190.70 0.0 0 1 63.16 254.06
  A 190.70 190.70 0.0 0 1 253.86 63.36
  A 190.70 190.70 0.0 0 1 444.56 254.06
  Z
  M 103.19 162.05
  L 94.82 162.57
  A 3.45 3.44 89.1 0 0 91.60 165.90
  L 91.33 175.05
  C 87.40 178.01 77.83 186.66 82.52 192.21
  Q 87.23 197.81 91.35 203.67
  L 91.48 290.74
  A 3.90 3.90 0.0 0 0 95.34 294.63
  Q 119.90 294.92 144.82 294.66
  Q 153.09 294.57 162.21 291.69
  Q 162.39 291.71 162.56 291.74
  Q 162.99 291.81 163.00 292.24
  Q 163.00 292.39 163.00 292.54
  A 0.75 0.73 -72.3 0 0 163.30 293.14
  Q 169.59 297.92 170.96 304.16
  Q 167.60 306.63 168.00 310.06
  C 168.50 314.38 173.27 315.24 175.94 317.80
  A 1.46 1.46 0.0 0 1 175.29 320.26
  Q 171.90 321.13 168.79 319.40
  Q 168.14 319.04 168.04 319.78
  L 167.67 322.62
  Q 167.58 323.32 168.20 323.65
  Q 173.11 326.29 177.92 324.08
  Q 180.68 322.99 180.66 319.18
  C 181.60 315.17 177.31 313.23 173.65 311.07
  Q 173.69 308.67 176.29 308.75
  Q 176.79 308.77 177.15 309.13
  Q 182.30 314.41 185.08 321.54
  L 184.66 324.04
  Q 184.57 324.59 185.12 324.65
  L 189.82 325.15
  L 230.87 376.17
  L 207.93 378.71
  A 0.61 0.61 0.0 0 0 207.58 379.77
  Q 217.86 389.15 227.79 398.21
  C 230.50 400.67 231.33 402.70 230.60 406.52
  Q 227.96 420.39 224.77 434.27
  Q 224.67 434.73 225.08 434.51
  Q 242.23 425.41 248.07 421.54
  C 254.22 417.47 256.88 419.74 263.23 423.29
  C 269.93 427.02 276.47 431.34 283.54 434.34
  Q 284.01 434.54 283.89 434.04
  Q 280.69 420.45 277.88 406.76
  C 277.37 404.29 277.35 401.47 279.11 399.86
  Q 290.33 389.59 301.45 379.30
  A 0.36 0.36 0.0 0 0 301.25 378.68
  L 277.39 376.10
  L 318.83 324.75
  Q 324.96 324.81 321.62 323.07
  C 324.41 316.67 329.90 311.18 334.37 305.88
  A 0.38 0.37 -67.1 0 1 334.70 305.74
  Q 334.85 305.76 334.97 305.81
  L 335.32 324.36
  Q 335.33 324.85 335.82 324.80
  L 338.95 324.47
  Q 339.41 324.42 339.36 323.95
  Q 339.07 321.05 339.53 317.99
  Q 340.03 314.55 341.77 317.56
  L 345.54 324.12
  A 0.82 0.80 77.4 0 0 346.16 324.52
  L 349.95 324.83
  Q 350.83 324.90 350.41 324.12
  L 346.29 316.47
  Q 346.05 316.03 346.49 315.78
  Q 348.99 314.37 349.53 311.27
  C 350.91 303.28 343.89 302.70 337.54 303.07
  L 337.16 303.03
  Q 336.63 302.98 336.93 302.54
  L 342.02 295.05
  Q 348.40 294.68 355.31 294.71
  C 358.87 294.72 361.77 294.06 361.76 290.00
  Q 361.72 277.12 362.09 270.90
  C 365.67 266.36 369.61 260.70 374.00 260.24
  Q 384.23 276.06 394.79 291.71
  Q 396.71 294.56 398.50 294.59
  Q 413.75 294.89 429.00 294.80
  C 432.56 294.78 435.83 292.98 433.22 289.04
  Q 426.10 278.29 402.50 241.99
  Q 402.22 241.55 402.65 241.26
  C 417.95 231.06 423.49 214.41 421.40 196.68
  C 427.83 193.18 428.58 186.60 423.57 181.28
  Q 390.42 146.10 357.17 110.99
  C 354.94 108.65 352.82 107.97 349.75 107.98
  Q 254.85 107.99 159.95 108.00
  C 156.50 108.00 153.92 108.36 151.68 110.68
  Q 132.72 130.25 103.19 162.05
  Z
  M 158.44 320.34
  Q 155.07 321.00 152.13 319.38
  A 0.41 0.41 0.0 0 0 151.53 319.72
  L 151.41 322.50
  Q 151.39 323.08 151.87 323.39
  C 162.46 330.18 170.31 314.99 156.91 311.24
  A 0.76 0.76 0.0 0 1 156.36 310.50
  L 156.39 307.86
  A 0.71 0.71 0.0 0 1 157.16 307.15
  L 162.41 307.55
  Q 162.83 307.58 162.78 307.17
  L 162.45 304.07
  Q 162.41 303.66 162.01 303.53
  Q 155.49 301.28 152.32 306.46
  C 149.15 311.64 155.25 315.19 158.89 317.02
  A 1.77 1.77 0.0 0 1 158.44 320.34
  Z
  M 115.35 313.37
  C 120.33 302.98 109.55 301.62 102.83 303.63
  A 0.72 0.71 81.9 0 0 102.32 304.32
  L 102.22 324.21
  Q 102.22 324.79 102.81 324.78
  C 108.22 324.69 116.78 326.52 116.67 318.08
  Q 116.65 316.72 115.37 314.27
  Q 115.13 313.82 115.35 313.37
  Z
  M 141.14 307.91
  A 0.34 0.34 0.0 0 1 141.45 307.56
  L 146.87 307.20
  A 0.34 0.34 0.0 0 0 147.18 306.90
  L 147.60 303.29
  A 0.34 0.34 0.0 0 0 147.26 302.91
  L 136.83 303.25
  A 0.34 0.34 0.0 0 0 136.50 303.59
  L 136.50 324.56
  A 0.34 0.34 0.0 0 0 136.84 324.90
  L 147.73 324.87
  A 0.34 0.34 0.0 0 0 148.06 324.49
  L 147.63 320.81
  A 0.34 0.34 0.0 0 0 147.29 320.51
  L 141.58 320.49
  A 0.34 0.34 0.0 0 1 141.24 320.15
  L 141.24 317.01
  A 0.34 0.34 0.0 0 1 141.52 316.68
  L 146.32 315.77
  A 0.34 0.34 0.0 0 0 146.59 315.40
  L 146.32 312.17
  A 0.34 0.34 0.0 0 0 146.02 311.86
  L 141.61 311.47
  A 0.34 0.34 0.0 0 1 141.30 311.15
  L 141.14 307.91
  Z
  M 132.16 321.07
  A 0.34 0.34 0.0 0 0 131.85 320.77
  L 125.79 320.41
  A 0.34 0.34 0.0 0 1 125.47 320.07
  L 125.51 303.59
  A 0.34 0.34 0.0 0 0 125.17 303.25
  L 121.85 303.25
  A 0.34 0.34 0.0 0 0 121.51 303.59
  L 121.48 324.48
  A 0.34 0.34 0.0 0 0 121.83 324.82
  L 132.20 324.59
  A 0.34 0.34 0.0 0 0 132.53 324.21
  L 132.16 321.07
  Z
  M 413.10 319.89
  L 413.30 316.45
  Q 413.32 315.96 413.81 315.95
  L 417.10 315.90
  A 2.03 2.03 0.0 0 0 417.03 311.84
  L 413.82 311.89
  A 0.60 0.60 0.0 0 1 413.21 311.33
  L 412.99 308.01
  A 0.70 0.69 -2.3 0 1 413.68 307.27
  L 418.63 307.17
  A 0.62 0.62 0.0 0 0 419.24 306.55
  L 419.27 303.76
  Q 419.27 303.18 418.69 303.19
  L 409.67 303.39
  Q 409.00 303.41 409.00 304.08
  L 409.00 324.29
  Q 409.00 324.83 409.54 324.82
  L 419.29 324.57
  Q 420.14 324.55 420.06 323.71
  L 419.84 321.43
  A 0.65 0.65 0.0 0 0 419.23 320.84
  L 413.63 320.48
  Q 413.07 320.45 413.10 319.89
  Z
  M 354.17 317.57
  C 354.47 323.82 361.55 327.03 366.32 323.01
  C 370.31 319.65 368.99 308.96 369.07 304.07
  Q 369.08 303.50 368.51 303.50
  L 366.26 303.50
  Q 365.74 303.50 365.74 304.02
  Q 365.75 309.78 365.54 315.62
  C 365.39 320.05 363.06 322.46 358.65 320.06
  Q 358.23 319.83 358.17 319.36
  Q 357.14 311.78 357.60 304.13
  Q 357.64 303.50 357.00 303.50
  L 354.30 303.50
  Q 353.86 303.50 353.86 303.93
  Q 353.84 310.76 354.17 317.57
  Z
  M 379.02 315.67
  C 390.43 318.35 391.69 305.25 383.80 303.80
  Q 379.77 303.06 375.30 303.90
  Q 374.91 303.97 374.91 304.37
  L 374.88 324.07
  A 0.44 0.43 -0.0 0 0 375.32 324.50
  L 378.35 324.50
  Q 378.60 324.50 378.58 324.25
  L 378.12 316.42
  Q 378.06 315.44 379.02 315.67
  Z
  M 396.75 315.51
  A 0.34 0.34 0.0 0 1 397.11 315.17
  L 402.65 315.57
  A 0.34 0.34 0.0 0 0 403.02 315.25
  L 403.14 312.84
  A 0.34 0.34 0.0 0 0 402.80 312.49
  L 397.41 312.57
  A 0.34 0.34 0.0 0 1 397.07 312.25
  L 396.85 306.79
  A 0.34 0.34 0.0 0 1 397.21 306.44
  L 402.99 306.83
  A 0.34 0.34 0.0 0 0 403.34 306.58
  L 404.03 304.13
  A 0.34 0.34 0.0 0 0 403.71 303.70
  L 394.25 303.60
  A 0.34 0.34 0.0 0 0 393.91 303.94
  L 394.00 323.95
  A 0.34 0.34 0.0 0 0 394.34 324.29
  L 403.67 324.12
  A 0.34 0.34 0.0 0 0 404.00 323.78
  L 404.00 321.59
  A 0.34 0.34 0.0 0 0 403.66 321.25
  L 397.09 321.25
  A 0.34 0.34 0.0 0 1 396.75 320.91
  L 396.75 315.51
  Z"
/>
<path fill="#d1d1d2" d="
  M 421.40 196.68
  C 418.40 179.82 408.29 168.84 392.15 164.23
  Q 388.78 163.26 386.56 162.37
  Q 370.54 144.05 354.02 127.64
  Q 353.63 127.25 353.42 127.76
  Q 347.21 142.42 341.20 157.19
  Q 340.30 159.42 340.21 161.75
  C 335.93 161.72 325.15 159.90 325.39 166.75
  Q 326.02 185.21 325.21 195.72
  L 306.83 251.22
  Q 305.39 240.36 298.85 232.19
  L 310.92 195.95
  Q 311.18 195.16 310.36 195.05
  Q 301.62 193.92 292.63 196.61
  C 295.24 191.63 301.08 182.05 302.81 174.41
  A 0.90 0.90 0.0 0 0 302.51 173.51
  Q 296.36 168.24 288.73 165.40
  Q 289.79 164.62 288.40 163.07
  Q 279.67 153.36 254.67 126.40
  Q 254.19 125.88 253.71 126.40
  L 203.96 180.44
  Q 203.49 180.94 204.18 180.95
  L 221.02 181.13
  Q 217.61 187.80 216.16 194.71
  L 197.90 194.94
  Q 197.33 194.95 197.50 195.49
  Q 205.68 221.20 214.09 246.84
  Q 215.28 250.46 217.60 253.53
  L 207.63 270.11
  L 185.34 202.31
  Q 184.84 195.46 183.50 190.00
  Q 180.85 179.16 173.17 172.08
  L 154.90 127.88
  A 0.48 0.48 0.0 0 0 154.10 127.74
  L 121.66 162.23
  L 103.19 162.05
  Q 132.72 130.25 151.68 110.68
  C 153.92 108.36 156.50 108.00 159.95 108.00
  Q 254.85 107.99 349.75 107.98
  C 352.82 107.97 354.94 108.65 357.17 110.99
  Q 390.42 146.10 423.57 181.28
  C 428.58 186.60 427.83 193.18 421.40 196.68
  Z
  M 239.30 122.02
  A 0.30 0.30 0.0 0 0 239.08 121.52
  L 167.59 121.52
  A 0.30 0.30 0.0 0 0 167.32 121.94
  L 189.81 175.34
  A 0.30 0.30 0.0 0 0 190.31 175.43
  L 239.30 122.02
  Z
  M 317.80 175.10
  A 0.62 0.62 0.0 0 0 318.82 174.92
  L 340.92 122.42
  A 0.62 0.62 0.0 0 0 340.35 121.56
  L 270.02 121.47
  A 0.62 0.62 0.0 0 0 269.56 122.51
  L 317.80 175.10
  Z"
/>
<path fill="#ffffff" d="
  M 239.30 122.02
  L 190.31 175.43
  A 0.30 0.30 0.0 0 1 189.81 175.34
  L 167.32 121.94
  A 0.30 0.30 0.0 0 1 167.59 121.52
  L 239.08 121.52
  A 0.30 0.30 0.0 0 1 239.30 122.02
  Z"
/>
<path fill="#ffffff" d="
  M 317.80 175.10
  L 269.56 122.51
  A 0.62 0.62 0.0 0 1 270.02 121.47
  L 340.35 121.56
  A 0.62 0.62 0.0 0 1 340.92 122.42
  L 318.82 174.92
  A 0.62 0.62 0.0 0 1 317.80 175.10
  Z"
/>
<path fill="#ffffff" d="
  M 288.73 165.40
  C 263.99 155.09 236.81 157.42 221.02 181.13
  L 204.18 180.95
  Q 203.49 180.94 203.96 180.44
  L 253.71 126.40
  Q 254.19 125.88 254.67 126.40
  Q 279.67 153.36 288.40 163.07
  Q 289.79 164.62 288.73 165.40
  Z"
/>
<path fill="#ffffff" d="
  M 386.56 162.37
  C 382.22 162.29 377.86 161.75 374.15 161.75
  Q 357.22 161.75 340.21 161.75
  Q 340.30 159.42 341.20 157.19
  Q 347.21 142.42 353.42 127.76
  Q 353.63 127.25 354.02 127.64
  Q 370.54 144.05 386.56 162.37
  Z"
/>
<path fill="#ffffff" d="
  M 173.17 172.08
  C 156.89 160.49 139.46 161.95 121.66 162.23
  L 154.10 127.74
  A 0.48 0.48 0.0 0 1 154.90 127.88
  L 173.17 172.08
  Z"
/>
<path fill="#555555" d="
  M 288.73 165.40
  Q 296.36 168.24 302.51 173.51
  A 0.90 0.90 0.0 0 1 302.81 174.41
  C 301.08 182.05 295.24 191.63 292.63 196.61
  C 291.52 198.47 289.65 202.70 286.82 201.43
  C 276.87 196.97 269.59 192.62 258.09 193.83
  C 253.79 194.28 248.85 198.99 252.67 202.83
  C 258.43 208.60 268.09 211.99 275.60 215.34
  Q 288.86 221.26 298.85 232.19
  Q 305.39 240.36 306.83 251.22
  Q 307.03 270.35 295.28 283.42
  Q 287.82 290.16 278.38 293.51
  Q 254.57 300.85 229.78 292.80
  Q 220.69 289.51 211.23 283.88
  C 204.80 278.66 203.06 278.40 207.63 270.11
  L 217.60 253.53
  Q 219.37 249.85 222.27 248.66
  Q 222.78 248.45 223.24 248.76
  C 232.63 255.14 241.42 261.07 249.25 262.50
  C 254.68 263.48 269.30 263.27 267.31 253.85
  C 266.03 247.77 246.10 239.61 240.49 236.72
  C 224.09 228.30 213.52 213.98 216.16 194.71
  Q 217.61 187.80 221.02 181.13
  C 236.81 157.42 263.99 155.09 288.73 165.40
  Z
  M 230.86 180.81
  Q 226.49 185.39 224.08 194.45
  C 220.06 211.77 232.81 225.62 247.88 231.96
  C 257.96 236.19 278.69 243.64 274.89 258.35
  C 271.14 272.90 251.20 272.03 240.57 267.91
  Q 233.39 265.12 224.48 259.16
  Q 224.03 258.86 223.74 259.31
  L 220.47 264.20
  L 213.71 275.52
  Q 213.43 275.99 213.88 276.31
  Q 220.28 280.83 227.46 283.76
  C 244.02 290.48 267.39 292.44 283.38 282.79
  C 296.60 275.33 303.51 255.56 295.86 241.78
  C 287.21 227.52 273.08 222.80 258.58 216.41
  C 249.70 212.49 240.68 205.94 244.84 194.73
  C 251.94 179.48 274.66 186.58 285.30 192.27
  Q 285.78 192.53 286.03 192.05
  L 292.41 179.67
  Q 293.29 178.26 293.48 176.81
  Q 293.55 176.29 293.10 176.03
  C 273.30 164.97 247.45 161.87 230.86 180.81
  Z"
/>
<path fill="#555555" d="
  M 340.21 161.75
  Q 357.22 161.75 374.15 161.75
  C 377.86 161.75 382.22 162.29 386.56 162.37
  Q 388.78 163.26 392.15 164.23
  C 408.29 168.84 418.40 179.82 421.40 196.68
  C 423.49 214.41 417.95 231.06 402.65 241.26
  Q 402.22 241.55 402.50 241.99
  Q 426.10 278.29 433.22 289.04
  C 435.83 292.98 432.56 294.78 429.00 294.80
  Q 413.75 294.89 398.50 294.59
  Q 396.71 294.56 394.79 291.71
  Q 384.23 276.06 374.00 260.24
  L 366.32 248.90
  A 0.72 0.71 -13.9 0 0 365.78 248.58
  L 362.64 248.33
  Q 362.07 248.28 362.07 248.85
  L 362.09 270.90
  Q 361.72 277.12 361.76 290.00
  C 361.77 294.06 358.87 294.72 355.31 294.71
  Q 348.40 294.68 342.02 295.05
  C 337.70 294.78 328.49 295.97 326.08 292.31
  Q 325.53 289.23 325.52 286.25
  Q 325.35 242.53 325.58 198.81
  Q 325.59 197.85 325.21 195.72
  Q 326.02 185.21 325.39 166.75
  C 325.15 159.90 335.93 161.72 340.21 161.75
  Z
  M 333.23 181.09
  L 333.25 194.53
  L 333.65 285.16
  Q 333.29 285.76 333.57 286.34
  A 0.86 0.86 0.0 0 0 334.33 286.83
  L 350.43 287.20
  L 353.56 287.20
  Q 354.18 287.20 354.17 286.59
  L 354.10 280.75
  L 353.93 260.80
  Q 354.45 254.21 354.34 245.74
  C 354.25 238.52 364.60 240.65 369.27 240.90
  Q 370.21 241.10 370.69 241.81
  Q 374.29 247.22 377.93 252.46
  L 400.21 286.18
  Q 400.97 287.33 402.35 287.32
  L 422.25 287.07
  Q 422.92 287.06 422.55 286.49
  Q 409.17 265.90 395.58 245.43
  Q 393.96 242.98 392.80 240.17
  A 1.01 1.00 49.9 0 1 392.87 239.29
  Q 394.07 237.31 395.53 236.53
  Q 412.73 227.48 413.94 207.19
  Q 415.33 195.84 409.69 185.56
  Q 408.07 182.61 404.92 179.77
  C 394.28 170.36 383.39 169.41 370.00 169.28
  Q 352.02 169.10 334.06 169.58
  Q 333.58 169.59 333.57 170.07
  L 333.23 181.09
  Z"
/>
<path fill="#555555" d="
  M 103.19 162.05
  L 121.66 162.23
  C 139.46 161.95 156.89 160.49 173.17 172.08
  Q 180.85 179.16 183.50 190.00
  Q 184.84 195.46 185.34 202.31
  Q 184.43 216.11 177.39 225.83
  A 1.49 1.49 0.0 0 0 177.54 227.76
  C 193.33 243.61 193.33 270.54 175.22 285.02
  Q 169.29 289.31 162.21 291.69
  Q 153.09 294.57 144.82 294.66
  Q 119.90 294.92 95.34 294.63
  A 3.90 3.90 0.0 0 1 91.48 290.74
  L 91.35 203.67
  L 91.33 175.05
  L 91.60 165.90
  A 3.45 3.44 89.1 0 1 94.82 162.57
  L 103.19 162.05
  Z
  M 99.05 212.37
  L 99.05 286.12
  Q 99.05 287.25 100.18 287.25
  Q 120.13 287.27 140.94 287.21
  Q 148.48 287.19 156.64 285.40
  Q 164.08 283.72 170.34 279.23
  C 179.44 272.61 182.73 261.13 181.01 250.25
  C 179.52 240.80 175.01 236.33 168.87 230.45
  C 167.28 228.93 166.16 226.79 167.79 225.01
  Q 179.81 211.91 176.74 194.94
  Q 175.53 186.55 171.09 181.30
  C 164.74 172.75 153.38 170.02 143.50 169.99
  Q 128.15 169.93 113.97 170.05
  L 99.76 170.01
  A 0.75 0.75 0.0 0 0 99.01 170.76
  L 99.05 212.37
  Z"
/>
<path fill="#ffffff" d="
  M 292.41 179.67
  Q 291.02 179.96 289.76 180.87
  Q 289.36 181.16 288.86 181.16
  L 230.86 180.81
  C 247.45 161.87 273.30 164.97 293.10 176.03
  Q 293.55 176.29 293.48 176.81
  Q 293.29 178.26 292.41 179.67
  Z"
/>
<path fill="#ffffff" d="
  M 404.92 179.77
  Q 401.04 181.21 394.25 181.24
  Q 363.80 181.40 333.23 181.09
  L 333.57 170.07
  Q 333.58 169.59 334.06 169.58
  Q 352.02 169.10 370.00 169.28
  C 383.39 169.41 394.28 170.36 404.92 179.77
  Z"
/>
<path fill="#d1d1d2" d="
  M 113.97 170.05
  L 104.01 180.53
  A 0.43 0.43 0.0 0 0 104.32 181.26
  L 171.09 181.30
  Q 175.53 186.55 176.74 194.94
  Q 164.44 194.30 152.00 195.33
  Q 149.14 187.88 140.50 185.74
  Q 133.02 183.89 124.86 184.57
  C 120.43 184.93 121.22 191.14 121.38 194.84
  L 102.51 194.81
  A 0.45 0.45 0.0 0 0 102.15 195.52
  Q 102.51 196.02 103.03 196.26
  Q 103.52 196.48 103.85 196.89
  L 121.32 218.76
  Q 122.19 222.80 125.17 222.92
  Q 123.70 223.23 125.13 224.15
  Q 125.67 224.50 125.96 224.78
  Q 130.38 229.02 132.80 234.44
  C 127.74 234.52 122.51 232.99 121.09 239.60
  L 99.05 212.37
  L 99.01 170.76
  A 0.75 0.75 0.0 0 1 99.76 170.01
  L 113.97 170.05
  Z"
/>
<path fill="#ffffff" d="
  M 113.97 170.05
  Q 128.15 169.93 143.50 169.99
  C 153.38 170.02 164.74 172.75 171.09 181.30
  L 104.32 181.26
  A 0.43 0.43 0.0 0 1 104.01 180.53
  L 113.97 170.05
  Z"
/>
<path fill="#d1d1d2" d="
  M 91.33 175.05
  L 91.35 203.67
  Q 87.23 197.81 82.52 192.21
  C 77.83 186.66 87.40 178.01 91.33 175.05
  Z"
/>
<path fill="#d1d1d2" d="
  M 292.41 179.67
  L 286.03 192.05
  Q 285.78 192.53 285.30 192.27
  C 274.66 186.58 251.94 179.48 244.84 194.73
  L 224.08 194.45
  Q 226.49 185.39 230.86 180.81
  L 288.86 181.16
  Q 289.36 181.16 289.76 180.87
  Q 291.02 179.96 292.41 179.67
  Z"
/>
<path fill="#d1d1d2" d="
  M 404.92 179.77
  Q 408.07 182.61 409.69 185.56
  Q 415.33 195.84 413.94 207.19
  Q 397.40 227.05 382.10 246.59
  Q 380.83 248.21 377.93 252.46
  Q 374.29 247.22 370.69 241.81
  Q 370.21 241.10 369.27 240.90
  Q 379.59 228.20 383.56 223.56
  Q 385.65 221.13 385.29 219.63
  L 390.31 213.63
  Q 399.22 205.05 405.56 195.27
  A 0.35 0.35 0.0 0 0 405.27 194.73
  L 388.96 194.63
  C 381.88 184.81 369.39 183.73 358.19 184.72
  C 353.49 185.13 354.11 190.78 354.26 194.44
  L 333.25 194.53
  L 333.23 181.09
  Q 363.80 181.40 394.25 181.24
  Q 401.04 181.21 404.92 179.77
  Z"
/>
<path fill="#555555" d="
  M 152.00 195.33
  C 155.11 205.73 153.04 218.81 140.74 221.70
  Q 133.82 223.33 125.17 222.92
  Q 122.19 222.80 121.32 218.76
  L 121.38 194.84
  C 121.22 191.14 120.43 184.93 124.86 184.57
  Q 133.02 183.89 140.50 185.74
  Q 149.14 187.88 152.00 195.33
  Z
  M 129.14 194.69
  L 129.17 214.60
  Q 129.17 215.10 129.67 215.17
  C 142.36 216.95 149.16 209.38 144.57 197.08
  C 142.46 192.11 134.35 191.90 129.87 192.33
  Q 129.32 192.38 129.28 192.93
  L 129.14 194.69
  Z"
/>
<path fill="#555555" d="
  M 388.96 194.63
  Q 393.56 202.80 390.31 213.63
  L 385.29 219.63
  Q 378.87 224.28 370.50 225.03
  C 366.61 225.39 354.28 227.33 354.27 221.44
  Q 354.23 207.71 354.26 194.44
  C 354.11 190.78 353.49 185.13 358.19 184.72
  C 369.39 183.73 381.88 184.81 388.96 194.63
  Z
  M 362.08 194.32
  L 362.08 216.74
  Q 362.08 217.21 362.54 217.29
  C 370.89 218.77 382.89 216.79 383.94 206.77
  Q 384.73 199.25 379.02 195.18
  Q 370.92 191.18 362.49 192.62
  Q 361.96 192.71 362.00 193.24
  L 362.08 194.32
  Z"
/>
<path fill="#d1d1d2" d="
  M 144.57 197.08
  Q 137.55 193.76 129.14 194.69
  L 129.28 192.93
  Q 129.32 192.38 129.87 192.33
  C 134.35 191.90 142.46 192.11 144.57 197.08
  Z"
/>
<path fill="#d1d1d2" d="
  M 379.02 195.18
  L 362.08 194.32
  L 362.00 193.24
  Q 361.96 192.71 362.49 192.62
  Q 370.92 191.18 379.02 195.18
  Z"
/>
<path fill="#ffffff" d="
  M 292.63 196.61
  Q 301.62 193.92 310.36 195.05
  Q 311.18 195.16 310.92 195.95
  L 298.85 232.19
  Q 288.86 221.26 275.60 215.34
  C 268.09 211.99 258.43 208.60 252.67 202.83
  C 248.85 198.99 253.79 194.28 258.09 193.83
  C 269.59 192.62 276.87 196.97 286.82 201.43
  C 289.65 202.70 291.52 198.47 292.63 196.61
  Z"
/>
<path fill="#ffffff" d="
  M 224.08 194.45
  L 244.84 194.73
  C 240.68 205.94 249.70 212.49 258.58 216.41
  C 273.08 222.80 287.21 227.52 295.86 241.78
  L 283.56 279.04
  A 1.94 1.93 78.0 0 1 283.01 279.89
  Q 281.62 281.16 283.38 282.79
  C 267.39 292.44 244.02 290.48 227.46 283.76
  Q 221.99 274.94 220.47 264.20
  L 223.74 259.31
  Q 224.03 258.86 224.48 259.16
  Q 233.39 265.12 240.57 267.91
  C 251.20 272.03 271.14 272.90 274.89 258.35
  C 278.69 243.64 257.96 236.19 247.88 231.96
  C 232.81 225.62 220.06 211.77 224.08 194.45
  Z"
/>
<path fill="#ffffff" d="
  M 354.26 194.44
  Q 354.23 207.71 354.27 221.44
  C 354.28 227.33 366.61 225.39 370.50 225.03
  Q 378.87 224.28 385.29 219.63
  Q 385.65 221.13 383.56 223.56
  Q 379.59 228.20 369.27 240.90
  C 364.60 240.65 354.25 238.52 354.34 245.74
  Q 354.45 254.21 353.93 260.80
  Q 342.90 272.87 333.65 285.16
  L 333.25 194.53
  L 354.26 194.44
  Z"
/>
<path fill="#ffffff" d="
  M 362.08 194.32
  L 379.02 195.18
  Q 384.73 199.25 383.94 206.77
  C 382.89 216.79 370.89 218.77 362.54 217.29
  Q 362.08 217.21 362.08 216.74
  L 362.08 194.32
  Z"
/>
<path fill="#ffffff" d="
  M 390.31 213.63
  Q 393.56 202.80 388.96 194.63
  L 405.27 194.73
  A 0.35 0.35 0.0 0 1 405.56 195.27
  Q 399.22 205.05 390.31 213.63
  Z"
/>
<path fill="#ffffff" d="
  M 144.57 197.08
  C 149.16 209.38 142.36 216.95 129.67 215.17
  Q 129.17 215.10 129.17 214.60
  L 129.14 194.69
  Q 137.55 193.76 144.57 197.08
  Z"
/>
<path fill="#ffffff" d="
  M 216.16 194.71
  C 213.52 213.98 224.09 228.30 240.49 236.72
  C 246.10 239.61 266.03 247.77 267.31 253.85
  C 269.30 263.27 254.68 263.48 249.25 262.50
  C 241.42 261.07 232.63 255.14 223.24 248.76
  Q 222.78 248.45 222.27 248.66
  Q 219.37 249.85 217.60 253.53
  Q 215.28 250.46 214.09 246.84
  Q 205.68 221.20 197.50 195.49
  Q 197.33 194.95 197.90 194.94
  L 216.16 194.71
  Z"
/>
<path fill="#ffffff" d="
  M 121.38 194.84
  L 121.32 218.76
  L 103.85 196.89
  Q 103.52 196.48 103.03 196.26
  Q 102.51 196.02 102.15 195.52
  A 0.45 0.45 0.0 0 1 102.51 194.81
  L 121.38 194.84
  Z"
/>
<path fill="#ffffff" d="
  M 176.74 194.94
  Q 179.81 211.91 167.79 225.01
  C 166.16 226.79 167.28 228.93 168.87 230.45
  C 175.01 236.33 179.52 240.80 181.01 250.25
  C 182.73 261.13 179.44 272.61 170.34 279.23
  L 156.12 261.31
  C 160.64 249.13 154.04 239.21 141.99 236.33
  Q 136.78 235.09 132.80 234.44
  Q 130.38 229.02 125.96 224.78
  Q 125.67 224.50 125.13 224.15
  Q 123.70 223.23 125.17 222.92
  Q 133.82 223.33 140.74 221.70
  C 153.04 218.81 155.11 205.73 152.00 195.33
  Q 164.44 194.30 176.74 194.94
  Z"
/>
<path fill="#ffffff" d="
  M 325.21 195.72
  Q 325.59 197.85 325.58 198.81
  Q 325.35 242.53 325.52 286.25
  Q 325.53 289.23 326.08 292.31
  Q 323.86 299.32 317.71 303.47
  L 307.90 303.39
  Q 307.31 303.39 307.30 303.98
  L 307.10 318.30
  Q 304.67 320.99 302.52 320.48
  L 296.46 320.46
  Q 295.92 320.46 295.94 319.92
  L 296.10 316.93
  Q 296.12 316.47 296.58 316.40
  L 300.78 315.77
  Q 301.50 315.66 301.50 314.92
  L 301.50 312.81
  Q 301.50 312.11 300.80 312.03
  L 296.50 311.56
  Q 296.00 311.50 296.00 311.00
  L 296.00 308.11
  Q 296.00 307.47 296.64 307.44
  L 301.76 307.18
  A 0.47 0.46 -90.0 0 0 302.20 306.73
  L 302.38 303.81
  Q 302.41 303.22 301.82 303.21
  L 292.40 302.97
  Q 291.50 302.95 291.50 303.85
  L 291.50 324.22
  Q 291.50 324.65 291.92 324.66
  L 301.63 324.90
  L 272.57 360.71
  Q 270.69 363.03 271.59 360.19
  L 289.00 305.63
  Q 289.13 305.20 289.06 304.76
  Q 288.87 303.64 289.79 303.08
  A 1.12 1.09 -8.0 0 0 290.26 302.47
  L 294.81 288.07
  Q 294.98 287.52 295.39 287.14
  Q 297.02 285.61 295.28 283.42
  Q 307.03 270.35 306.83 251.22
  L 325.21 195.72
  Z"
/>
<path fill="#ffffff" d="
  M 185.34 202.31
  L 207.63 270.11
  C 203.06 278.40 204.80 278.66 211.23 283.88
  Q 216.04 295.08 219.59 306.37
  C 225.34 324.66 231.39 342.85 237.30 361.13
  Q 238.16 363.79 236.41 361.61
  L 207.11 325.10
  C 214.73 324.09 219.13 318.57 217.44 311.05
  C 215.66 303.11 207.91 302.54 200.97 303.34
  Q 200.50 303.40 200.49 303.87
  L 200.41 317.47
  Q 197.27 312.03 193.56 309.32
  A 1.01 1.01 0.0 0 1 194.21 307.49
  L 195.20 307.54
  Q 195.67 307.56 195.67 307.09
  L 195.64 304.27
  Q 195.29 302.69 189.43 303.15
  L 175.22 285.02
  C 193.33 270.54 193.33 243.61 177.54 227.76
  A 1.49 1.49 0.0 0 1 177.39 225.83
  Q 184.43 216.11 185.34 202.31
  Z"
/>
<path fill="#ffffff" d="
  M 413.94 207.19
  Q 412.73 227.48 395.53 236.53
  Q 394.07 237.31 392.87 239.29
  A 1.01 1.00 49.9 0 0 392.80 240.17
  Q 393.96 242.98 395.58 245.43
  Q 409.17 265.90 422.55 286.49
  Q 422.92 287.06 422.25 287.07
  L 402.35 287.32
  Q 400.97 287.33 400.21 286.18
  L 377.93 252.46
  Q 380.83 248.21 382.10 246.59
  Q 397.40 227.05 413.94 207.19
  Z"
/>
<path fill="#ffffff" d="
  M 99.05 212.37
  L 121.09 239.60
  Q 121.47 252.88 121.53 267.53
  C 121.55 273.28 123.41 273.10 128.38 273.18
  Q 137.11 273.33 145.32 271.18
  Q 152.49 277.22 156.64 285.40
  Q 148.48 287.19 140.94 287.21
  Q 120.13 287.27 100.18 287.25
  Q 99.05 287.25 99.05 286.12
  L 99.05 212.37
  Z"
/>
<path fill="#555555" d="
  M 132.80 234.44
  Q 136.78 235.09 141.99 236.33
  C 154.04 239.21 160.64 249.13 156.12 261.31
  Q 153.30 268.65 145.32 271.18
  Q 137.11 273.33 128.38 273.18
  C 123.41 273.10 121.55 273.28 121.53 267.53
  Q 121.47 252.88 121.09 239.60
  C 122.51 232.99 127.74 234.52 132.80 234.44
  Z
  M 129.11 250.05
  L 129.31 264.79
  Q 129.31 265.36 129.89 265.41
  Q 134.92 265.86 140.48 264.55
  Q 148.38 263.18 149.59 256.16
  C 151.60 244.50 137.84 242.32 129.92 242.50
  A 0.58 0.58 0.0 0 0 129.35 243.06
  L 129.11 250.05
  Z"
/>
<path fill="#d1d1d2" d="
  M 295.86 241.78
  C 303.51 255.56 296.60 275.33 283.38 282.79
  Q 281.62 281.16 283.01 279.89
  A 1.94 1.93 78.0 0 0 283.56 279.04
  L 295.86 241.78
  Z"
/>
<path fill="#d1d1d2" d="
  M 140.48 264.55
  L 129.11 250.05
  L 129.35 243.06
  A 0.58 0.58 0.0 0 1 129.92 242.50
  C 137.84 242.32 151.60 244.50 149.59 256.16
  Q 148.38 263.18 140.48 264.55
  Z"
/>
<path fill="#d1d1d2" d="
  M 374.00 260.24
  C 369.61 260.70 365.67 266.36 362.09 270.90
  L 362.07 248.85
  Q 362.07 248.28 362.64 248.33
  L 365.78 248.58
  A 0.72 0.71 -13.9 0 1 366.32 248.90
  L 374.00 260.24
  Z"
/>
<path fill="#ffffff" d="
  M 129.11 250.05
  L 140.48 264.55
  Q 134.92 265.86 129.89 265.41
  Q 129.31 265.36 129.31 264.79
  L 129.11 250.05
  Z"
/>
<path fill="#d1d1d2" d="
  M 156.12 261.31
  L 170.34 279.23
  Q 164.08 283.72 156.64 285.40
  Q 152.49 277.22 145.32 271.18
  Q 153.30 268.65 156.12 261.31
  Z"
/>
<path fill="#d1d1d2" d="
  M 353.93 260.80
  L 354.10 280.75
  Q 351.02 283.73 350.43 287.20
  L 334.33 286.83
  A 0.86 0.86 0.0 0 1 333.57 286.34
  Q 333.29 285.76 333.65 285.16
  Q 342.90 272.87 353.93 260.80
  Z"
/>
<path fill="#d1d1d2" d="
  M 220.47 264.20
  Q 221.99 274.94 227.46 283.76
  Q 220.28 280.83 213.88 276.31
  Q 213.43 275.99 213.71 275.52
  L 220.47 264.20
  Z"
/>
<path fill="#ffffff" d="
  M 354.10 280.75
  L 354.17 286.59
  Q 354.18 287.20 353.56 287.20
  L 350.43 287.20
  Q 351.02 283.73 354.10 280.75
  Z"
/>
<path fill="#d1d1d2" d="
  M 295.28 283.42
  Q 297.02 285.61 295.39 287.14
  Q 294.98 287.52 294.81 288.07
  L 290.26 302.47
  A 1.12 1.09 -8.0 0 1 289.79 303.08
  Q 288.87 303.64 289.06 304.76
  Q 289.13 305.20 289.00 305.63
  L 271.59 360.19
  Q 270.69 363.03 272.57 360.71
  L 301.63 324.90
  Q 303.65 323.95 302.52 320.48
  Q 304.67 320.99 307.10 318.30
  C 307.44 321.22 305.53 325.16 310.40 324.66
  Q 311.37 324.56 311.42 323.58
  L 311.70 317.90
  A 1.28 1.28 0.0 0 1 314.05 317.27
  L 318.83 324.75
  L 277.39 376.10
  Q 269.12 376.90 265.82 369.68
  Q 261.95 361.22 258.74 354.09
  L 268.52 325.08
  A 0.46 0.46 0.0 0 0 268.24 324.50
  Q 268.00 324.41 267.75 324.56
  L 267.78 323.77
  Q 269.00 323.92 269.60 322.33
  Q 271.70 316.72 272.89 311.08
  L 279.00 324.93
  A 0.53 0.53 0.0 0 0 279.97 324.92
  L 288.75 303.47
  Q 288.94 303.01 288.45 302.92
  C 282.24 301.75 281.32 309.34 279.73 313.58
  A 0.43 0.43 0.0 0 1 278.93 313.60
  L 274.58 303.51
  Q 278.22 299.95 278.38 293.51
  Q 287.82 290.16 295.28 283.42
  Z"
/>
<path fill="#d1d1d2" d="
  M 211.23 283.88
  Q 220.69 289.51 229.78 292.80
  L 232.34 302.07
  Q 232.46 302.52 232.37 302.97
  Q 232.29 303.37 232.29 303.76
  Q 232.30 304.11 233.05 304.00
  C 228.28 308.18 230.12 313.89 235.81 315.68
  C 237.23 316.12 238.44 316.76 238.71 318.13
  A 1.96 1.96 0.0 0 1 237.02 320.46
  Q 233.85 320.83 230.97 319.53
  Q 230.52 319.32 230.43 319.82
  C 229.43 325.72 236.39 325.54 239.96 324.65
  Q 243.86 339.15 249.85 353.83
  Q 246.41 362.36 241.52 371.89
  C 240.90 373.11 239.30 374.88 238.19 375.19
  Q 233.80 376.39 230.87 376.17
  L 189.82 325.15
  L 195.57 324.66
  Q 196.17 324.61 196.11 324.02
  L 195.82 321.07
  Q 195.78 320.63 195.33 320.62
  L 189.99 320.59
  Q 189.13 320.59 189.14 319.73
  L 189.18 317.00
  Q 189.19 316.42 189.76 316.31
  L 193.76 315.50
  A 1.82 1.82 0.0 0 0 193.26 311.90
  Q 191.53 312.03 189.83 311.55
  A 0.79 0.79 0.0 0 1 189.25 310.79
  L 189.25 308.22
  Q 189.25 307.59 189.88 307.52
  Q 193.09 307.14 195.64 304.27
  L 195.67 307.09
  Q 195.67 307.56 195.20 307.54
  L 194.21 307.49
  A 1.01 1.01 0.0 0 0 193.56 309.32
  Q 197.27 312.03 200.41 317.47
  L 200.55 324.06
  Q 200.56 324.68 201.18 324.72
  L 207.11 325.10
  L 236.41 361.61
  Q 238.16 363.79 237.30 361.13
  C 231.39 342.85 225.34 324.66 219.59 306.37
  Q 216.04 295.08 211.23 283.88
  Z"
/>
<path fill="#d1d1d2" d="
  M 175.22 285.02
  L 189.43 303.15
  Q 187.66 302.70 185.42 303.54
  Q 184.91 303.73 184.92 304.28
  L 185.08 321.54
  Q 182.30 314.41 177.15 309.13
  Q 176.79 308.77 176.29 308.75
  Q 173.69 308.67 173.65 311.07
  Q 171.75 310.13 172.32 308.26
  Q 172.48 307.73 172.98 307.52
  Q 175.44 306.45 177.81 307.66
  A 0.54 0.54 0.0 0 0 178.57 307.34
  L 179.46 304.47
  Q 179.61 303.98 179.14 303.78
  Q 174.68 301.89 170.96 304.16
  Q 169.59 297.92 163.30 293.14
  A 0.75 0.73 -72.3 0 1 163.00 292.54
  Q 163.00 292.39 163.00 292.24
  Q 162.99 291.81 162.56 291.74
  Q 162.39 291.71 162.21 291.69
  Q 169.29 289.31 175.22 285.02
  Z"
/>
<path fill="#d1d1d2" d="
  M 326.08 292.31
  C 328.49 295.97 337.70 294.78 342.02 295.05
  L 336.93 302.54
  Q 336.63 302.98 337.16 303.03
  L 337.54 303.07
  L 335.52 303.31
  Q 334.88 303.39 335.03 304.02
  Q 335.31 305.16 334.97 305.81
  Q 334.85 305.76 334.70 305.74
  A 0.38 0.37 -67.1 0 0 334.37 305.88
  C 329.90 311.18 324.41 316.67 321.62 323.07
  L 318.82 316.47
  A 0.78 0.78 0.0 0 1 319.04 315.57
  C 323.38 311.88 323.49 305.71 317.71 303.47
  Q 323.86 299.32 326.08 292.31
  Z"
/>
<path fill="#ffffff" d="
  M 229.78 292.80
  Q 254.57 300.85 278.38 293.51
  Q 278.22 299.95 274.58 303.51
  Q 272.62 302.69 270.89 303.38
  Q 270.39 303.58 270.56 304.09
  L 272.89 311.08
  Q 271.70 316.72 269.60 322.33
  Q 269.00 323.92 267.78 323.77
  L 267.73 320.99
  Q 267.73 320.57 267.30 320.56
  L 261.80 320.37
  Q 261.27 320.35 261.25 319.82
  L 260.79 303.69
  Q 260.77 303.06 260.13 303.11
  L 257.32 303.32
  Q 256.75 303.36 256.75 303.93
  L 256.75 324.01
  Q 256.75 324.54 257.27 324.62
  Q 262.54 325.45 267.75 324.56
  Q 268.00 324.41 268.24 324.50
  A 0.46 0.46 0.0 0 1 268.52 325.08
  L 258.74 354.09
  L 254.81 344.69
  A 0.31 0.31 0.0 0 0 254.25 344.67
  L 249.85 353.83
  Q 243.86 339.15 239.96 324.65
  Q 246.07 319.57 241.66 314.51
  C 239.35 311.87 234.60 312.40 235.36 307.73
  Q 235.45 307.15 236.04 307.18
  L 241.22 307.48
  Q 241.50 307.49 241.50 307.21
  Q 241.50 305.64 241.50 304.07
  Q 241.50 303.52 240.96 303.37
  Q 236.66 302.18 233.05 304.00
  Q 232.30 304.11 232.29 303.76
  Q 232.29 303.37 232.37 302.97
  Q 232.46 302.52 232.34 302.07
  L 229.78 292.80
  Z
  M 251.4841 303.7327
  A 0.46 0.46 0.0 0 0 251.0225 303.2743
  L 247.7426 303.2858
  A 0.46 0.46 0.0 0 0 247.2842 303.7474
  L 247.3559 324.2873
  A 0.46 0.46 0.0 0 0 247.8175 324.7457
  L 251.0974 324.7342
  A 0.46 0.46 0.0 0 0 251.5558 324.2726
  L 251.4841 303.7327
  Z"
/>
<path fill="#868686" d="
  M 158.44 320.34
  A 1.77 1.77 0.0 0 0 158.89 317.02
  C 155.25 315.19 149.15 311.64 152.32 306.46
  Q 155.49 301.28 162.01 303.53
  Q 162.41 303.66 162.45 304.07
  L 162.78 307.17
  Q 162.83 307.58 162.41 307.55
  L 157.16 307.15
  A 0.71 0.71 0.0 0 0 156.39 307.86
  L 156.36 310.50
  A 0.76 0.76 0.0 0 0 156.91 311.24
  C 170.31 314.99 162.46 330.18 151.87 323.39
  Q 151.39 323.08 151.41 322.50
  L 151.53 319.72
  A 0.41 0.41 0.0 0 1 152.13 319.38
  Q 155.07 321.00 158.44 320.34
  Z"
/>
<path fill="#868686" d="
  M 173.65 311.07
  C 177.31 313.23 181.60 315.17 180.66 319.18
  L 177.92 324.08
  Q 173.11 326.29 168.20 323.65
  Q 167.58 323.32 167.67 322.62
  L 168.04 319.78
  Q 168.14 319.04 168.79 319.40
  Q 171.90 321.13 175.29 320.26
  A 1.46 1.46 0.0 0 0 175.94 317.80
  C 173.27 315.24 168.50 314.38 168.00 310.06
  Q 167.60 306.63 170.96 304.16
  Q 174.68 301.89 179.14 303.78
  Q 179.61 303.98 179.46 304.47
  L 178.57 307.34
  A 0.54 0.54 0.0 0 1 177.81 307.66
  Q 175.44 306.45 172.98 307.52
  Q 172.48 307.73 172.32 308.26
  Q 171.75 310.13 173.65 311.07
  Z"
/>
<path fill="#868686" d="
  M 239.96 324.65
  C 236.39 325.54 229.43 325.72 230.43 319.82
  Q 230.52 319.32 230.97 319.53
  Q 233.85 320.83 237.02 320.46
  A 1.96 1.96 0.0 0 0 238.71 318.13
  C 238.44 316.76 237.23 316.12 235.81 315.68
  C 230.12 313.89 228.28 308.18 233.05 304.00
  Q 236.66 302.18 240.96 303.37
  Q 241.50 303.52 241.50 304.07
  Q 241.50 305.64 241.50 307.21
  Q 241.50 307.49 241.22 307.48
  L 236.04 307.18
  Q 235.45 307.15 235.36 307.73
  C 234.60 312.40 239.35 311.87 241.66 314.51
  Q 246.07 319.57 239.96 324.65
  Z"
/>
<path fill="#868686" d="
  M 272.89 311.08
  L 270.56 304.09
  Q 270.39 303.58 270.89 303.38
  Q 272.62 302.69 274.58 303.51
  L 278.93 313.60
  A 0.43 0.43 0.0 0 0 279.73 313.58
  C 281.32 309.34 282.24 301.75 288.45 302.92
  Q 288.94 303.01 288.75 303.47
  L 279.97 324.92
  A 0.53 0.53 0.0 0 1 279.00 324.93
  L 272.89 311.08
  Z"
/>
<path fill="#868686" d="
  M 102.83 303.63
  C 109.55 301.62 120.33 302.98 115.35 313.37
  Q 115.13 313.82 115.37 314.27
  Q 116.65 316.72 116.67 318.08
  C 116.78 326.52 108.22 324.69 102.81 324.78
  Q 102.22 324.79 102.22 324.21
  L 102.32 304.32
  A 0.72 0.71 81.9 0 1 102.83 303.63
  Z
  M 112.0662 308.5896
  A 1.50 1.50 0.0 0 0 110.4972 307.1620
  L 107.5005 307.3033
  A 1.50 1.50 0.0 0 0 106.0728 308.8723
  L 106.1538 310.5904
  A 1.50 1.50 0.0 0 0 107.7228 312.0180
  L 110.7195 311.8767
  A 1.50 1.50 0.0 0 0 112.1472 310.3077
  L 112.0662 308.5896
  Z
  M 106.03 317.02
  L 106.03 319.60
  A 1.08 1.08 0.0 0 0 107.12 320.68
  L 110.07 320.67
  A 2.61 2.23 -0.2 0 0 112.67 318.43
  L 112.67 318.15
  A 2.61 2.23 -0.2 0 0 110.05 315.93
  L 107.10 315.94
  A 1.08 1.08 0.0 0 0 106.03 317.02
  Z"
/>
<path fill="#868686" d="
  M 141.14 307.91
  L 141.30 311.15
  A 0.34 0.34 0.0 0 0 141.61 311.47
  L 146.02 311.86
  A 0.34 0.34 0.0 0 1 146.32 312.17
  L 146.59 315.40
  A 0.34 0.34 0.0 0 1 146.32 315.77
  L 141.52 316.68
  A 0.34 0.34 0.0 0 0 141.24 317.01
  L 141.24 320.15
  A 0.34 0.34 0.0 0 0 141.58 320.49
  L 147.29 320.51
  A 0.34 0.34 0.0 0 1 147.63 320.81
  L 148.06 324.49
  A 0.34 0.34 0.0 0 1 147.73 324.87
  L 136.84 324.90
  A 0.34 0.34 0.0 0 1 136.50 324.56
  L 136.50 303.59
  A 0.34 0.34 0.0 0 1 136.83 303.25
  L 147.26 302.91
  A 0.34 0.34 0.0 0 1 147.60 303.29
  L 147.18 306.90
  A 0.34 0.34 0.0 0 1 146.87 307.20
  L 141.45 307.56
  A 0.34 0.34 0.0 0 0 141.14 307.91
  Z"
/>
<path fill="#868686" d="
  M 189.43 303.15
  Q 195.29 302.69 195.64 304.27
  Q 193.09 307.14 189.88 307.52
  Q 189.25 307.59 189.25 308.22
  L 189.25 310.79
  A 0.79 0.79 0.0 0 0 189.83 311.55
  Q 191.53 312.03 193.26 311.90
  A 1.82 1.82 0.0 0 1 193.76 315.50
  L 189.76 316.31
  Q 189.19 316.42 189.18 317.00
  L 189.14 319.73
  Q 189.13 320.59 189.99 320.59
  L 195.33 320.62
  Q 195.78 320.63 195.82 321.07
  L 196.11 324.02
  Q 196.17 324.61 195.57 324.66
  L 189.82 325.15
  L 185.12 324.65
  Q 184.57 324.59 184.66 324.04
  L 185.08 321.54
  L 184.92 304.28
  Q 184.91 303.73 185.42 303.54
  Q 187.66 302.70 189.43 303.15
  Z"
/>
<path fill="#868686" d="
  M 207.11 325.10
  L 201.18 324.72
  Q 200.56 324.68 200.55 324.06
  L 200.41 317.47
  L 200.49 303.87
  Q 200.50 303.40 200.97 303.34
  C 207.91 302.54 215.66 303.11 217.44 311.05
  C 219.13 318.57 214.73 324.09 207.11 325.10
  Z
  M 204.83 308.52
  L 204.87 319.42
  A 1.05 1.05 0.0 0 0 205.92 320.47
  L 206.65 320.47
  A 6.64 6.24 -0.2 0 0 213.27 314.21
  L 213.27 313.69
  A 6.64 6.24 -0.2 0 0 206.61 307.47
  L 205.88 307.47
  A 1.05 1.05 0.0 0 0 204.83 308.52
  Z"
/>
<path fill="#868686" d="
  M 267.78 323.77
  L 267.75 324.56
  Q 262.54 325.45 257.27 324.62
  Q 256.75 324.54 256.75 324.01
  L 256.75 303.93
  Q 256.75 303.36 257.32 303.32
  L 260.13 303.11
  Q 260.77 303.06 260.79 303.69
  L 261.25 319.82
  Q 261.27 320.35 261.80 320.37
  L 267.30 320.56
  Q 267.73 320.57 267.73 320.99
  L 267.78 323.77
  Z"
/>
<path fill="#868686" d="
  M 302.52 320.48
  Q 303.65 323.95 301.63 324.90
  L 291.92 324.66
  Q 291.50 324.65 291.50 324.22
  L 291.50 303.85
  Q 291.50 302.95 292.40 302.97
  L 301.82 303.21
  Q 302.41 303.22 302.38 303.81
  L 302.20 306.73
  A 0.47 0.46 -90.0 0 1 301.76 307.18
  L 296.64 307.44
  Q 296.00 307.47 296.00 308.11
  L 296.00 311.00
  Q 296.00 311.50 296.50 311.56
  L 300.80 312.03
  Q 301.50 312.11 301.50 312.81
  L 301.50 314.92
  Q 301.50 315.66 300.78 315.77
  L 296.58 316.40
  Q 296.12 316.47 296.10 316.93
  L 295.94 319.92
  Q 295.92 320.46 296.46 320.46
  L 302.52 320.48
  Z"
/>
<path fill="#868686" d="
  M 317.71 303.47
  C 323.49 305.71 323.38 311.88 319.04 315.57
  A 0.78 0.78 0.0 0 0 318.82 316.47
  L 321.62 323.07
  Q 324.96 324.81 318.83 324.75
  L 314.05 317.27
  A 1.28 1.28 0.0 0 0 311.70 317.90
  L 311.42 323.58
  Q 311.37 324.56 310.40 324.66
  C 305.53 325.16 307.44 321.22 307.10 318.30
  L 307.30 303.98
  Q 307.31 303.39 307.90 303.39
  L 317.71 303.47
  Z
  M 311.37 307.64
  L 311.35 311.44
  A 0.70 0.70 0.0 0 0 312.05 312.14
  L 313.08 312.14
  A 4.89 2.45 0.2 0 0 317.98 309.71
  L 317.98 309.41
  A 4.89 2.45 0.2 0 0 313.10 306.94
  L 312.07 306.94
  A 0.70 0.70 0.0 0 0 311.37 307.64
  Z"
/>
<path fill="#868686" d="
  M 337.54 303.07
  C 343.89 302.70 350.91 303.28 349.53 311.27
  Q 348.99 314.37 346.49 315.78
  Q 346.05 316.03 346.29 316.47
  L 350.41 324.12
  Q 350.83 324.90 349.95 324.83
  L 346.16 324.52
  A 0.82 0.80 77.4 0 1 345.54 324.12
  L 341.77 317.56
  Q 340.03 314.55 339.53 317.99
  Q 339.07 321.05 339.36 323.95
  Q 339.41 324.42 338.95 324.47
  L 335.82 324.80
  Q 335.33 324.85 335.32 324.36
  L 334.97 305.81
  Q 335.31 305.16 335.03 304.02
  Q 334.88 303.39 335.52 303.31
  L 337.54 303.07
  Z
  M 339.24 308.31
  L 339.22 311.13
  A 1.01 1.01 0.0 0 0 340.23 312.15
  L 342.73 312.16
  A 2.71 2.20 0.3 0 0 345.45 309.98
  L 345.45 309.54
  A 2.71 2.20 0.3 0 0 342.75 307.32
  L 340.25 307.31
  A 1.01 1.01 0.0 0 0 339.24 308.31
  Z"
/>
<path fill="#868686" d="
  M 132.16 321.07
  L 132.53 324.21
  A 0.34 0.34 0.0 0 1 132.20 324.59
  L 121.83 324.82
  A 0.34 0.34 0.0 0 1 121.48 324.48
  L 121.51 303.59
  A 0.34 0.34 0.0 0 1 121.85 303.25
  L 125.17 303.25
  A 0.34 0.34 0.0 0 1 125.51 303.59
  L 125.47 320.07
  A 0.34 0.34 0.0 0 0 125.79 320.41
  L 131.85 320.77
  A 0.34 0.34 0.0 0 1 132.16 321.07
  Z"
/>
<rect fill="#868686" x="-2.10" y="-10.73" transform="translate(249.42,314.01) rotate(-0.2)" width="4.20" height="21.46" rx="0.46"/>
<path fill="#747474" d="
  M 413.63 320.48
  L 419.23 320.84
  A 0.65 0.65 0.0 0 1 419.84 321.43
  L 420.06 323.71
  Q 420.14 324.55 419.29 324.57
  L 409.54 324.82
  Q 409.00 324.83 409.00 324.29
  L 409.00 304.08
  Q 409.00 303.41 409.67 303.39
  L 418.69 303.19
  Q 419.27 303.18 419.27 303.76
  L 419.24 306.55
  A 0.62 0.62 0.0 0 1 418.63 307.17
  L 413.68 307.27
  A 0.70 0.69 -2.3 0 0 412.99 308.01
  L 413.21 311.33
  A 0.60 0.60 0.0 0 0 413.82 311.89
  L 417.03 311.84
  A 2.03 2.03 0.0 0 1 417.10 315.90
  L 413.81 315.95
  Q 413.32 315.96 413.30 316.45
  L 413.10 319.89
  Q 413.07 320.45 413.63 320.48
  Z"
/>
<path fill="#555555" d="
  M 366.32 323.01
  C 361.55 327.03 354.47 323.82 354.17 317.57
  Q 353.84 310.76 353.86 303.93
  Q 353.86 303.50 354.30 303.50
  L 357.00 303.50
  Q 357.64 303.50 357.60 304.13
  Q 357.14 311.78 358.17 319.36
  Q 358.23 319.83 358.65 320.06
  C 363.06 322.46 365.39 320.05 365.54 315.62
  Q 365.75 309.78 365.74 304.02
  Q 365.74 303.50 366.26 303.50
  L 368.51 303.50
  Q 369.08 303.50 369.07 304.07
  C 368.99 308.96 370.31 319.65 366.32 323.01
  Z"
/>
<path fill="#747474" d="
  M 379.02 315.67
  Q 378.06 315.44 378.12 316.42
  L 378.58 324.25
  Q 378.60 324.50 378.35 324.50
  L 375.32 324.50
  A 0.44 0.43 -0.0 0 1 374.88 324.07
  L 374.91 304.37
  Q 374.91 303.97 375.30 303.90
  Q 379.77 303.06 383.80 303.80
  C 391.69 305.25 390.43 318.35 379.02 315.67
  Z
  M 378.17 308.11
  L 378.19 311.59
  A 1.41 1.41 0.0 0 0 379.61 312.99
  L 382.56 312.97
  A 3.20 3.09 -0.4 0 0 385.74 309.85
  L 385.74 309.73
  A 3.20 3.09 -0.4 0 0 382.52 306.67
  L 379.57 306.69
  A 1.41 1.41 0.0 0 0 378.17 308.11
  Z"
/>
<path fill="#000000" d="
  M 396.75 315.51
  L 396.75 320.91
  A 0.34 0.34 0.0 0 0 397.09 321.25
  L 403.66 321.25
  A 0.34 0.34 0.0 0 1 404.00 321.59
  L 404.00 323.78
  A 0.34 0.34 0.0 0 1 403.67 324.12
  L 394.34 324.29
  A 0.34 0.34 0.0 0 1 394.00 323.95
  L 393.91 303.94
  A 0.34 0.34 0.0 0 1 394.25 303.60
  L 403.71 303.70
  A 0.34 0.34 0.0 0 1 404.03 304.13
  L 403.34 306.58
  A 0.34 0.34 0.0 0 1 402.99 306.83
  L 397.21 306.44
  A 0.34 0.34 0.0 0 0 396.85 306.79
  L 397.07 312.25
  A 0.34 0.34 0.0 0 0 397.41 312.57
  L 402.80 312.49
  A 0.34 0.34 0.0 0 1 403.14 312.84
  L 403.02 315.25
  A 0.34 0.34 0.0 0 1 402.65 315.57
  L 397.11 315.17
  A 0.34 0.34 0.0 0 0 396.75 315.51
  Z"
/>
<path fill="#ffffff" d="
  M 378.17 308.11
  A 1.41 1.41 0.0 0 1 379.57 306.69
  L 382.52 306.67
  A 3.20 3.09 -0.4 0 1 385.74 309.73
  L 385.74 309.85
  A 3.20 3.09 -0.4 0 1 382.56 312.97
  L 379.61 312.99
  A 1.41 1.41 0.0 0 1 378.19 311.59
  L 378.17 308.11
  Z"
/>
<path fill="#d1d1d2" d="
  M 311.37 307.64
  A 0.70 0.70 0.0 0 1 312.07 306.94
  L 313.10 306.94
  A 4.89 2.45 0.2 0 1 317.98 309.41
  L 317.98 309.71
  A 4.89 2.45 0.2 0 1 313.08 312.14
  L 312.05 312.14
  A 0.70 0.70 0.0 0 1 311.35 311.44
  L 311.37 307.64
  Z"
/>
<rect fill="#ffffff" x="-3.00" y="-2.36" transform="translate(109.11,309.59) rotate(-2.7)" width="6.00" height="4.72" rx="1.50"/>
<path fill="#ffffff" d="
  M 339.24 308.31
  A 1.01 1.01 0.0 0 1 340.25 307.31
  L 342.75 307.32
  A 2.71 2.20 0.3 0 1 345.45 309.54
  L 345.45 309.98
  A 2.71 2.20 0.3 0 1 342.73 312.16
  L 340.23 312.15
  A 1.01 1.01 0.0 0 1 339.22 311.13
  L 339.24 308.31
  Z"
/>
<path fill="#ffffff" d="
  M 204.83 308.52
  A 1.05 1.05 0.0 0 1 205.88 307.47
  L 206.61 307.47
  A 6.64 6.24 -0.2 0 1 213.27 313.69
  L 213.27 314.21
  A 6.64 6.24 -0.2 0 1 206.65 320.47
  L 205.92 320.47
  A 1.05 1.05 0.0 0 1 204.87 319.42
  L 204.83 308.52
  Z"
/>
<path fill="#ffffff" d="
  M 106.03 317.02
  A 1.08 1.08 0.0 0 1 107.10 315.94
  L 110.05 315.93
  A 2.61 2.23 -0.2 0 1 112.67 318.15
  L 112.67 318.43
  A 2.61 2.23 -0.2 0 1 110.07 320.67
  L 107.12 320.68
  A 1.08 1.08 0.0 0 1 106.03 319.60
  L 106.03 317.02
  Z"
/>
<path fill="#d1d1d2" d="
  M 180.66 319.18
  Q 180.68 322.99 177.92 324.08
  L 180.66 319.18
  Z"
/>
<path fill="#747474" d="
  M 258.74 354.09
  Q 261.95 361.22 265.82 369.68
  Q 269.12 376.90 277.39 376.10
  L 301.25 378.68
  A 0.36 0.36 0.0 0 1 301.45 379.30
  Q 290.33 389.59 279.11 399.86
  C 277.35 401.47 277.37 404.29 277.88 406.76
  Q 280.69 420.45 283.89 434.04
  Q 284.01 434.54 283.54 434.34
  C 276.47 431.34 269.93 427.02 263.23 423.29
  C 256.88 419.74 254.22 417.47 248.07 421.54
  Q 242.23 425.41 225.08 434.51
  Q 224.67 434.73 224.77 434.27
  Q 227.96 420.39 230.60 406.52
  C 231.33 402.70 230.50 400.67 227.79 398.21
  Q 217.86 389.15 207.58 379.77
  A 0.61 0.61 0.0 0 1 207.93 378.71
  L 230.87 376.17
  Q 233.80 376.39 238.19 375.19
  C 239.30 374.88 240.90 373.11 241.52 371.89
  Q 246.41 362.36 249.85 353.83
  L 254.25 344.67
  A 0.31 0.31 0.0 0 1 254.81 344.69
  L 258.74 354.09
  Z"
/>
</svg>
